<svg width="27" height="23" viewBox="0 0 27 23" fill="none" xmlns="http://www.w3.org/2000/svg">
<path d="M21.6072 21.7352C22.8342 21.7352 24.0111 21.2479 24.879 20.3805C25.7469 19.5131 26.2348 18.3366 26.2355 17.1096V14.4265C25.8345 14.4265 25.4373 14.3475 25.0667 14.1941C24.6962 14.0406 24.3595 13.8156 24.0759 13.532C23.7923 13.2484 23.5673 12.9117 23.4138 12.5411C23.2604 12.1706 23.1814 11.7734 23.1814 11.3724C23.1814 10.9713 23.2604 10.5741 23.4138 10.2036C23.5673 9.83302 23.7923 9.49633 24.0759 9.21273C24.3595 8.92912 24.6962 8.70415 25.0667 8.55066C25.4373 8.39718 25.8345 8.31818 26.2355 8.31818V5.63788C26.237 5.0298 26.1185 4.4274 25.887 3.86513C25.6554 3.30285 25.3153 2.79173 24.8861 2.36099C24.4569 1.93025 23.947 1.58835 23.3855 1.35482C22.8241 1.12129 22.2221 1.00072 21.614 1H5.6297C4.4023 1 3.22513 1.4874 2.35697 2.35504C1.48881 3.22269 1.00072 4.39957 1 5.62697V8.43276C1.3873 8.41927 1.77347 8.48221 2.13644 8.61799C2.49941 8.75376 2.83208 8.95972 3.11544 9.22408C3.39881 9.48844 3.62732 9.80604 3.78792 10.1587C3.94852 10.5114 4.03807 10.8923 4.05145 11.2796C4.05145 11.3096 4.05145 11.3396 4.05145 11.3696C4.05218 12.178 3.73213 12.9536 3.16156 13.5262C2.591 14.0988 1.81653 14.4216 1.00818 14.4238H1V17.1068C0.999821 17.7145 1.11932 18.3162 1.35169 18.8776C1.58405 19.439 1.92472 19.9492 2.35424 20.379C2.78377 20.8088 3.29374 21.1497 3.85504 21.3824C4.41635 21.6151 5.01798 21.735 5.62561 21.7352H21.6072Z" fill="#F9001E" stroke="#F9001E" stroke-width="1.5" stroke-miterlimit="10" stroke-linecap="round" stroke-linejoin="round"/>
<path d="M15.809 11.4441L15.8072 11.4458C15.6487 11.5985 15.5291 11.7876 15.4595 11.9974C15.39 12.2072 15.3728 12.4309 15.4097 12.649L15.4097 12.649L15.4103 12.6524L15.7108 14.3805L14.1344 13.5606C14.1341 13.5605 14.1339 13.5603 14.1336 13.5602C13.9379 13.458 13.7204 13.4049 13.5001 13.4049C13.2799 13.4049 13.0627 13.4579 12.8671 13.5599C12.8666 13.5602 12.8662 13.5604 12.8658 13.5606L11.2819 14.3824L11.5825 12.6538L11.5826 12.6533C11.6205 12.4343 11.6037 12.2095 11.5338 11.9987C11.4641 11.7884 11.3439 11.5989 11.1845 11.4463C11.1842 11.446 11.1838 11.4457 11.1835 11.4453L9.92087 10.2313L11.6794 9.97939L11.6813 9.97912C11.8982 9.94748 12.1049 9.8644 12.2836 9.73619C12.4623 9.60795 12.6079 9.43817 12.707 9.24069L12.708 9.23865L13.4982 7.65187L14.2922 9.23723C14.2924 9.23755 14.2925 9.23788 14.2927 9.2382C14.3913 9.43573 14.5364 9.60564 14.7148 9.73406C14.8934 9.86264 15.1002 9.94596 15.3173 9.97764L15.3193 9.97792L17.0782 10.2299L15.809 11.4441L15.809 11.4441ZM14.0483 7.07549L13.509 7.34561L13.5053 7.35332L14.0483 7.07549Z" fill="white" stroke="white" stroke-width="1.5" stroke-miterlimit="10" stroke-linecap="round" stroke-linejoin="round"/>
</svg>
