<svg width="33" height="35" viewBox="0 0 33 35" fill="none" xmlns="http://www.w3.org/2000/svg">
<path d="M1 1L4.48544 1.66736L6.09914 22.9357C6.16112 23.7726 6.50607 24.5529 7.06516 25.121C7.62424 25.6889 8.35634 26.0028 9.11539 26H27.3955C28.1226 26.0013 28.8257 25.7121 29.3753 25.1855C29.9249 24.6589 30.2841 23.9304 30.3867 23.134L31.9769 10.977C32.0621 10.3246 31.9097 9.66146 31.5531 9.13339C31.1963 8.60534 30.6648 8.25562 30.075 8.16113C29.9678 8.14446 5.04513 8.13519 5.04513 8.13519" stroke="black" stroke-width="2" stroke-miterlimit="10" stroke-linecap="round" stroke-linejoin="round"/>
<path d="M15.8034 15.6224H21.9355" stroke="black" stroke-width="2" stroke-miterlimit="10" stroke-linecap="round" stroke-linejoin="round"/>
<path d="M8.36771 31.36C8.54818 31.3597 8.7247 31.4129 8.87489 31.5129C9.02508 31.613 9.1422 31.7554 9.21142 31.922C9.28064 32.0887 9.29883 32.2722 9.2637 32.4491C9.22858 32.6262 9.14171 32.7889 9.0141 32.9164C8.88648 33.0441 8.72387 33.1309 8.54686 33.1661C8.36983 33.2012 8.18637 33.183 8.0197 33.1138C7.85303 33.0446 7.71065 32.9275 7.61059 32.7772C7.51053 32.6271 7.45729 32.4505 7.45763 32.2701C7.45763 32.0287 7.55351 31.7972 7.72419 31.6266C7.89486 31.4559 8.12635 31.36 8.36771 31.36Z" fill="black" stroke="black" stroke-width="2" stroke-miterlimit="10" stroke-linecap="round" stroke-linejoin="round"/>
<path d="M27.2402 31.36C27.4208 31.3597 27.5972 31.4129 27.7475 31.5129C27.8976 31.613 28.0147 31.7554 28.084 31.922C28.1532 32.0887 28.1713 32.2722 28.1363 32.4491C28.1012 32.6262 28.0142 32.7889 27.8867 32.9164C27.759 33.0441 27.5964 33.1309 27.4194 33.1661C27.2424 33.2012 27.059 33.183 26.8923 33.1138C26.7256 33.0446 26.5832 32.9275 26.4831 32.7772C26.3831 32.6271 26.3298 32.4505 26.3302 32.2701C26.3306 32.0289 26.4266 31.7977 26.5972 31.6271C26.7678 31.4565 26.999 31.3604 27.2402 31.36Z" fill="black" stroke="black" stroke-width="2" stroke-miterlimit="10" stroke-linecap="round" stroke-linejoin="round"/>
</svg>
