<svg width="25" height="25" viewBox="0 0 25 25" fill="none" xmlns="http://www.w3.org/2000/svg">
<path d="M18.9284 23.0638C18.935 22.6914 19.0514 22.3293 19.263 22.0228C19.4746 21.7164 19.7719 21.4791 20.1178 21.3409C20.4636 21.2027 20.8425 21.1697 21.2071 21.2459C21.5716 21.3222 21.9055 21.5044 22.167 21.7696C22.4284 22.0348 22.6057 22.3713 22.6767 22.7369C22.7477 23.1025 22.7092 23.4809 22.5661 23.8247C22.4229 24.1685 22.1815 24.4624 21.872 24.6696C21.5625 24.8767 21.1987 24.9879 20.8263 24.9892C20.3198 24.9839 19.836 24.7785 19.4804 24.4178C19.1248 24.0571 18.9264 23.5703 18.9284 23.0638ZM4.88317 23.0638C4.88982 22.6914 5.00626 22.3292 5.2179 22.0227C5.42954 21.7162 5.72695 21.479 6.07286 21.3408C6.41876 21.2027 6.79776 21.1697 7.16232 21.246C7.52689 21.3224 7.86081 21.5047 8.1222 21.77C8.38359 22.0354 8.56083 22.372 8.63169 22.7377C8.70255 23.1033 8.66389 23.4818 8.52053 23.8256C8.37718 24.1694 8.13553 24.4632 7.82587 24.6702C7.51621 24.8772 7.15233 24.9882 6.77986 24.9892C6.27348 24.9839 5.78976 24.7785 5.43438 24.4177C5.079 24.057 4.88084 23.5702 4.88317 23.0638ZM6.98102 19.1105C6.17847 19.1102 5.40661 18.8021 4.82445 18.2496C4.2342 17.6922 3.87254 16.935 3.80989 16.1255L2.66038 2.22904L0.774945 1.89668C0.541381 1.8514 0.333052 1.72076 0.190583 1.53022C0.0481132 1.33968 -0.0182838 1.10291 0.00433873 0.86608C0.0269612 0.629245 0.136981 0.409327 0.312946 0.249206C0.488911 0.089085 0.718204 0.000241831 0.956117 0C1.00422 0.000358277 1.05223 0.00411602 1.0998 0.0112452L4.07727 0.468548C4.28327 0.508625 4.47045 0.615128 4.61014 0.771744C4.74983 0.92836 4.83433 1.12645 4.85069 1.33567L5.08809 4.19194C5.10218 4.38479 5.18823 4.5653 5.32917 4.69768C5.47011 4.83006 5.65565 4.90464 5.84901 4.90663H22.7105C23.0511 4.89635 23.3892 4.96872 23.6958 5.11755C24.0024 5.26638 24.2683 5.48725 24.471 5.76127C24.6962 6.07447 24.8546 6.43066 24.9362 6.80768C25.0179 7.1847 25.0212 7.57449 24.9458 7.95282L23.7588 16.3167C23.6548 17.0837 23.2786 17.7877 22.6987 18.3003C22.1189 18.813 21.3741 19.1001 20.6001 19.1093L6.98102 19.1105ZM14.2092 10.5817C14.2068 10.8327 14.3042 11.0743 14.4799 11.2535C14.6556 11.4327 14.8953 11.5349 15.1462 11.5375H18.6035C18.8545 11.5349 19.0941 11.4327 19.2698 11.2535C19.4456 11.0743 19.5429 10.8327 19.5406 10.5817C19.5433 10.457 19.521 10.3329 19.4751 10.2169C19.4292 10.1009 19.3606 9.99524 19.2733 9.9061C19.186 9.81695 19.0818 9.74613 18.9668 9.6978C18.8518 9.64946 18.7283 9.62457 18.6035 9.6246H15.145C15.0205 9.62474 14.8972 9.64971 14.7824 9.69804C14.6676 9.74638 14.5636 9.81711 14.4765 9.90611C14.3893 9.9951 14.3208 10.1006 14.2749 10.2164C14.229 10.3321 14.2067 10.4559 14.2092 10.5804V10.5817Z" fill="#F9001E"/>
</svg>
