<svg width="167" height="151" viewBox="0 0 167 151" fill="none" xmlns="http://www.w3.org/2000/svg">
<g clip-path="url(#clip0_936:4834)">
<path d="M149.395 87.3989C152.752 85.6682 156.699 85.4432 160.425 86.0601C162.425 86.3902 164.511 86.9889 165.868 88.491C167.225 89.9932 167.486 92.6382 165.926 93.9335C164.994 94.7027 163.695 94.8188 162.49 94.8043C159.587 94.7717 156.34 94.2564 154.011 96.0125C152.683 97.0103 151.797 98.6757 150.208 99.1692C148.619 99.6626 146.899 98.7338 146.076 97.3296C145.252 95.9255 145.226 94.173 145.607 92.591C145.798 91.4928 146.238 90.4532 146.895 89.5528C147.552 88.6523 148.408 87.9153 149.395 87.3989Z" fill="#EBEBEB"/>
<path d="M141.711 72.5627C143.761 75.4944 147.748 74.522 149.599 72.7369C151.449 70.9518 152.226 68.3539 152.937 65.883C154.562 60.2373 156.202 54.3123 154.994 48.565C154.631 46.8452 153.989 45.129 152.781 43.8482C151.572 42.5674 149.715 41.8127 148.017 42.2627C146.007 42.7924 144.751 44.7626 143.855 46.6166C141.194 52.1455 139.8 58.198 139.773 64.3337C139.773 67.1892 140.1 70.1826 141.711 72.5373" fill="#EBEBEB"/>
<path d="M136.08 76.7752C138.307 74.1302 138.728 70.2769 137.738 66.9788C136.747 63.6806 134.509 60.8505 131.932 58.5538C128.897 55.849 125.362 53.7636 121.526 52.4147C120.024 51.885 118.435 51.4677 116.85 51.6201C115.264 51.7725 113.664 52.5816 112.924 53.993C111.835 56.0829 112.877 58.6155 114.012 60.68C116.013 64.3228 118.297 67.8022 120.844 71.086C122.894 73.7274 125.238 76.3326 128.362 77.5263C131.486 78.72 134.726 78.5785 136.381 76.4124" fill="#EBEBEB"/>
<path d="M141.573 116.756C141.68 116.319 141.742 115.873 141.758 115.424C141.852 114.455 141.972 113.247 142.121 111.796C142.304 110.008 142.577 108.23 142.941 106.469C143.416 104.325 144.062 102.222 144.875 100.182C145.672 98.1414 146.754 96.2247 148.089 94.4887C149.175 93.0758 150.562 91.923 152.15 91.1143C153.226 90.5812 154.379 90.2212 155.567 90.0476C156.014 90.0293 156.458 89.966 156.892 89.8589C156.444 89.7998 155.991 89.7925 155.542 89.8372C154.308 89.9309 153.101 90.2455 151.979 90.766C150.306 91.5535 148.84 92.7185 147.694 94.1694C146.304 95.9293 145.183 97.8857 144.367 99.9747C143.542 102.046 142.898 104.185 142.444 106.368C142.091 108.147 141.846 109.947 141.711 111.756C141.595 113.298 141.551 114.546 141.529 115.41C141.497 115.859 141.511 116.31 141.573 116.756Z" fill="#E0E0E0"/>
<path d="M141.823 113.958C141.858 113.755 141.87 113.548 141.86 113.341C141.86 112.877 141.86 112.293 141.86 111.574C141.86 110.043 141.86 107.823 141.939 105.083C142.074 99.6046 142.545 93.7086 143.46 85.3961C144.32 77.5807 145.481 68.4845 146.7 62.5704C146.965 61.2243 147.226 60.0305 147.476 58.942C147.727 57.8535 147.915 56.9646 148.111 56.2208C148.307 55.477 148.412 54.9545 148.521 54.5046C148.582 54.3066 148.619 54.1019 148.63 53.8951C148.537 54.0799 148.465 54.2746 148.416 54.4756L147.904 56.1664C147.676 56.892 147.444 57.81 147.179 58.8695C146.914 59.9289 146.613 61.1335 146.326 62.476C144.811 69.4707 143.673 76.5415 142.915 83.6581C142.001 91.9851 141.591 99.5719 141.555 105.065C141.522 107.812 141.58 110.036 141.649 111.571C141.696 112.296 141.729 112.87 141.758 113.334C141.756 113.544 141.778 113.753 141.823 113.958Z" fill="#E0E0E0"/>
<path d="M141.859 99.3325C141.908 98.7178 141.908 98.1003 141.859 97.4857C141.755 95.8107 141.568 94.142 141.297 92.4858C140.892 90.03 140.349 87.5988 139.671 85.2038C138.878 82.2575 137.859 79.3766 136.624 76.5865C134.084 70.5926 130.666 65.7016 127.68 62.6574C127.02 61.9618 126.318 61.3086 125.575 60.7018C125.253 60.4296 124.97 60.1575 124.679 59.9434L123.863 59.3811C123.371 59.0085 122.85 58.6749 122.306 58.3833C122.219 58.503 124.509 59.8527 127.386 62.9259C130.263 65.9991 133.601 70.8611 136.094 76.8042C137.309 79.5783 138.337 82.4305 139.171 85.3417C139.87 87.715 140.448 90.1225 140.901 92.5548C141.282 94.6302 141.504 96.3282 141.627 97.5038C141.658 98.1183 141.736 98.7296 141.859 99.3325Z" fill="#E0E0E0"/>
<path d="M127.72 125.133L129.186 145.216H154.983L156.449 125.133H127.72Z" fill="#E0E0E0"/>
<path d="M159.526 117.22H125.227V125.137H159.526V117.22Z" fill="#E0E0E0"/>
<path d="M125.227 144.447V146.642H126.838H158.96V144.447H125.227Z" fill="#EBEBEB"/>
<path d="M128.42 150.503L126.838 146.642H157.734L155.89 150.503H128.42Z" fill="#E0E0E0"/>
<path d="M155.97 131.697C155.97 131.697 155.937 131.766 155.85 131.882L155.465 132.394L153.963 134.317L153.894 134.404L153.829 134.313L150.139 129.208H150.35L146.721 134.353L146.605 134.516L146.478 134.364L142.168 129.233H142.414L142.179 129.531C140.84 131.207 139.548 132.833 138.322 134.364L138.195 134.527L138.075 134.36C136.769 132.506 135.535 130.775 134.447 129.212H134.657L130.18 134.317L130.1 134.407L130.038 134.302C129.447 133.312 128.979 132.521 128.638 131.947L128.275 131.32C128.229 131.25 128.193 131.174 128.166 131.095C128.224 131.155 128.275 131.222 128.318 131.294C128.42 131.454 128.554 131.657 128.714 131.9L130.187 134.211H130.045L134.454 129.041L134.566 128.914L134.664 129.052L138.336 134.175H138.089L141.935 129.335L142.171 129.038L142.295 128.885L142.422 129.034L146.718 134.175H146.478L150.15 129.056L150.255 128.907L150.36 129.056L153.989 134.219H153.854L155.418 132.343L155.839 131.857C155.878 131.799 155.921 131.746 155.97 131.697Z" fill="#F5F5F5"/>
<path d="M156.808 125.003C156.808 125.09 150.346 125.162 142.371 125.162C134.396 125.162 127.934 125.09 127.934 125.003C127.934 124.916 134.4 124.843 142.371 124.843C150.343 124.843 156.808 124.912 156.808 125.003Z" fill="#F5F5F5"/>
<path d="M158.111 146.86C158.111 146.947 151.086 147.019 142.422 147.019C133.757 147.019 126.733 146.947 126.733 146.86C126.733 146.773 133.757 146.697 142.422 146.697C151.086 146.697 158.111 146.769 158.111 146.86Z" fill="#F5F5F5"/>
<path d="M65.0662 70.6579L62.1635 72.2144L55.7377 77.1598C55.7377 77.1598 36.0614 79.7722 35.3067 80.3382C34.552 80.9042 24.7846 85.5521 23.4421 91.7892C22.0996 98.0263 19.4001 138.703 19.4001 138.703L22.9704 150.72L94.6333 150.833L111.44 150.593C111.44 150.593 117.894 135.51 117.894 131.363C117.894 127.216 116.008 96.0343 116.008 96.0343L95.8524 81.8222L65.0662 70.6579Z" fill="#FF725E"/>
<path d="M55.5565 76.8659C55.5302 76.925 55.4974 76.981 55.4586 77.0328C55.3715 77.1562 55.2699 77.3086 55.1429 77.4936C54.8599 77.8855 54.4753 78.4732 54.029 79.2098C53.8113 79.5726 53.5646 79.9863 53.336 80.4398C53.1074 80.8933 52.8607 81.3759 52.6103 81.8911C52.1035 83.0212 51.6685 84.1822 51.3078 85.3671C50.6862 87.5297 50.2206 89.7341 49.9145 91.9633C49.7911 92.7978 49.6932 93.4836 49.6206 93.9916C49.588 94.2129 49.5626 94.3943 49.5408 94.5431C49.5356 94.6078 49.5209 94.6713 49.4972 94.7317C49.4892 94.6679 49.4892 94.6033 49.4972 94.5394C49.4972 94.3907 49.5263 94.2056 49.5444 93.9807C49.5879 93.4981 49.6678 92.8015 49.7766 91.9452C50.0528 89.7001 50.509 87.4809 51.1409 85.309C51.5048 84.1187 51.9472 82.9539 52.4652 81.8222C52.7119 81.2997 52.9514 80.8099 53.1909 80.3709C53.4303 79.9318 53.6807 79.5146 53.9165 79.1445C54.3846 78.4188 54.7837 77.8347 55.0849 77.4537L55.4295 77.0147C55.4661 76.9604 55.5087 76.9105 55.5565 76.8659Z" fill="#263238"/>
<g opacity="0.3">
<path opacity="0.3" d="M56.0029 88.8249C55.8831 88.4403 55.7307 88.0085 55.357 87.8597C55.0668 87.74 55.1829 87.9287 54.8926 88.052C52.1714 89.1732 50.8579 91.6804 49.7041 94.525L49.7694 94.456C49.6873 94.694 49.6866 94.9525 49.7674 95.1909C49.8482 95.4293 50.0059 95.6341 50.2157 95.7731C50.8289 96.1359 51.6162 95.9364 52.2476 95.6098C52.8789 95.2833 53.4558 94.8297 54.1452 94.6556C55.6328 94.271 57.1168 95.2905 58.169 96.4153C59.2212 97.5401 60.1645 98.8753 61.6014 99.4304C59.1049 96.2657 57.2076 92.6715 56.0029 88.8249Z" fill="black"/>
</g>
<path d="M49.49 94.7318C49.8173 93.9352 50.2029 93.1639 50.6438 92.4242C51.146 91.5481 51.7239 90.7177 52.3709 89.9424C52.7804 89.4591 53.2347 89.0157 53.7279 88.6181C54.2843 88.164 54.9411 87.8493 55.6436 87.7001H55.698L55.7198 87.7545C56.1733 88.941 56.6523 90.2363 57.2074 91.6005C57.774 93.0513 58.4521 94.4561 59.2356 95.8021C60.1022 97.2728 61.1505 98.6283 62.356 99.8368C63.6547 101.115 65.0864 102.251 66.6265 103.226C67.1526 103.534 67.6606 103.864 68.1867 104.155L69.7578 104.993H69.6634L72.2831 103.178L73.553 102.304C73.9739 102.017 74.3839 101.731 74.7721 101.426C76.2351 100.273 77.5948 98.9946 78.8358 97.6054C80.3178 96.4841 81.583 95.1021 82.5694 93.5272C83.3256 92.3181 83.8922 91.0002 84.2493 89.6195C84.4777 88.7329 84.6211 87.8266 84.6774 86.9128C84.6992 86.5935 84.6774 86.3504 84.7028 86.1871C84.7282 86.0238 84.7028 85.9404 84.7028 85.9404C84.7028 85.9404 84.7028 86.0238 84.7028 86.1871C84.7028 86.3504 84.7028 86.5971 84.7028 86.9128C84.669 87.8331 84.5402 88.7474 84.3182 89.6412C83.9729 91.0372 83.4136 92.3713 82.6601 93.5961C81.6811 95.1856 80.4209 96.5835 78.941 97.7215C77.6967 99.1236 76.3321 100.414 74.8628 101.578C74.4709 101.887 74.061 102.177 73.6401 102.464L72.3702 103.342L69.7505 105.156L69.707 105.189L69.6562 105.163L68.0779 104.321C67.5481 104.031 67.0365 103.701 66.5104 103.389C64.955 102.409 63.5109 101.263 62.2036 99.9711C60.9898 98.7507 59.9352 97.3816 59.0651 95.8965C58.2871 94.5357 57.6162 93.1163 57.0587 91.6513C56.5072 90.2798 56.0355 88.9809 55.5892 87.7944L55.6654 87.838C54.984 87.9808 54.3462 88.2829 53.8041 88.7197C53.3148 89.1084 52.8629 89.5421 52.4543 90.015C51.8053 90.7812 51.2215 91.6005 50.7091 92.4641C50.2846 93.1897 49.9834 93.7485 49.7911 94.1367L49.5698 94.583C49.55 94.636 49.5232 94.686 49.49 94.7318Z" fill="#263238"/>
<path d="M90.0435 85.7988C90.0986 87.6472 90.0113 89.4971 89.7823 91.332C89.5553 93.3357 89.1855 95.3206 88.6757 97.2716C88.0493 99.6714 87.2465 102.022 86.2737 104.303L86.1358 104.63L86.0923 104.267C86.0669 104.057 86.0488 103.828 86.0125 103.596C85.8417 102.294 85.539 101.012 85.109 99.7715C84.9022 99.1692 84.6664 98.5886 84.4124 98.0299C84.2854 97.7505 84.1512 97.4784 84.0133 97.2099C83.8882 96.9458 83.7401 96.6932 83.5706 96.4552C83.4116 96.224 83.1901 96.0428 82.932 95.9327C82.8098 95.8886 82.678 95.8782 82.5504 95.9024C82.4227 95.9267 82.3039 95.9848 82.2064 96.0706C82.008 96.2523 81.8236 96.4488 81.6549 96.6584L81.1288 97.2571L79.2094 99.4341L76.4192 102.594L75.6754 103.465L75.4722 103.683L75.3997 103.752C75.4164 103.722 75.4358 103.694 75.4577 103.668L75.6464 103.44L76.372 102.562L79.115 99.3615L81.0163 97.1555C81.1904 96.9559 81.3791 96.7564 81.5388 96.5495C81.7144 96.3323 81.906 96.1286 82.112 95.94C82.2301 95.8374 82.3732 95.7679 82.5267 95.7386C82.6803 95.7093 82.839 95.7212 82.9865 95.7731C83.2708 95.8951 83.5148 96.0951 83.6904 96.35C83.8678 96.5958 84.0233 96.8569 84.1548 97.1301C84.2927 97.3986 84.4305 97.6743 84.5575 97.9537C84.8151 98.5161 85.0546 99.1039 85.2832 99.7098C85.7173 100.965 86.0236 102.261 86.1975 103.578C86.2338 103.81 86.2519 104.042 86.2773 104.256L86.0959 104.231C87.0653 101.957 87.8704 99.6168 88.5051 97.228C89.0198 95.2861 89.4016 93.3113 89.6481 91.3175C89.8585 89.6194 89.9456 88.2371 89.9819 87.2828C90.0073 86.8039 90.0073 86.4338 90.0181 86.1943C90.0181 86.0782 90.0181 85.9839 90.0181 85.9077C90.0181 85.8315 90.0435 85.7988 90.0435 85.7988Z" fill="#263238"/>
<path d="M62.9763 75.7738C62.9763 75.7738 62.9763 75.8028 62.9219 75.8464L62.7477 76.0423C62.5881 76.2092 62.3849 76.4741 62.1128 76.8188C61.3943 77.8279 60.8089 78.9254 60.3712 80.0842C59.7067 81.7878 59.2688 83.5713 59.0686 85.3888C58.8137 87.6132 58.9117 89.8639 59.3589 92.0577C59.5883 93.1925 59.9286 94.302 60.3748 95.3704C60.7894 96.3648 61.2959 97.3183 61.8878 98.2186C62.8882 99.7483 64.1111 101.12 65.5161 102.29C66.1003 102.805 66.6953 103.189 67.1924 103.559C67.6895 103.93 68.1684 104.184 68.5458 104.398L69.4274 104.884L69.656 105.014C69.6838 105.028 69.7094 105.045 69.7322 105.065C69.7322 105.065 69.7032 105.065 69.6488 105.033L69.4129 104.916L68.5095 104.463C68.1249 104.256 67.6713 103.966 67.1344 103.647C66.5974 103.327 66.0459 102.921 65.4327 102.391C64.0017 101.227 62.7563 99.8518 61.739 98.3129C61.1443 97.3952 60.6377 96.4233 60.226 95.4103C59.7739 94.3328 59.4287 93.2136 59.1956 92.0686C58.7439 89.8543 58.6508 87.5819 58.9198 85.3381C59.1302 83.508 59.5841 81.7143 60.2696 80.0044C60.7251 78.8463 61.3354 77.7551 62.0837 76.7607C62.2904 76.4933 62.5147 76.24 62.755 76.0024L62.94 75.8173L62.9763 75.7738Z" fill="#263238"/>
<path d="M32.1139 110.638C32.1139 110.638 32.143 110.667 32.1865 110.74L32.3788 111.077H32.3244C32.0668 109.858 31.3629 106.121 30.561 101.698C30.0821 98.9769 29.6467 96.5133 29.3238 94.6955C29.1786 93.8174 29.0589 93.099 28.9609 92.5693C28.9283 92.3334 28.8993 92.1448 28.8775 91.9887C28.8625 91.9221 28.8564 91.8538 28.8594 91.7856C28.8843 91.85 28.9026 91.9169 28.9138 91.9851C28.9464 92.1339 28.9863 92.3262 29.0335 92.5584C29.1387 93.0809 29.2766 93.7993 29.4471 94.6737C29.7846 96.4879 30.2381 98.9442 30.7424 101.665C31.5407 106.085 32.1938 109.836 32.3752 111.066L32.4042 111.251L32.3208 111.085L32.1502 110.722C32.1358 110.695 32.1236 110.667 32.1139 110.638Z" fill="#263238"/>
<path d="M31.2394 109.891C31.1922 109.913 30.2779 108.077 29.1967 105.787C28.1154 103.498 27.2809 101.622 27.3281 101.6C27.3752 101.578 28.2896 103.414 29.3708 105.704C30.4521 107.993 31.2866 109.869 31.2394 109.891Z" fill="#263238"/>
<g opacity="0.3">
<path opacity="0.3" d="M30.866 149.784C33.1409 150.927 38.4165 148.91 40.3322 146.395C42.248 143.881 42.8031 140.608 43.2349 137.473C43.8614 132.749 44.3089 128.007 44.5774 123.247C48.5245 126.116 53.3261 127.566 58.2017 127.361C61.2785 127.22 64.7871 125.997 65.7413 123.069C66.6956 120.141 64.6529 117.187 62.5484 114.985C60.5433 112.887 58.3579 110.969 56.0175 109.252C54.4827 108.128 52.7991 107.075 50.9052 106.854C48.8624 106.633 46.7979 107.467 45.245 108.813C43.6921 110.159 42.6072 111.974 41.8126 113.868C39.3853 119.655 39.5159 126.131 39.0188 132.372C38.5217 138.613 37.8614 145.104 32.3209 149.175" fill="black"/>
</g>
<path d="M31.0146 149.806C31.0643 149.777 31.1165 149.753 31.1707 149.733L31.6278 149.534C32.1842 149.238 32.7052 148.88 33.1808 148.467C34.8404 146.954 36.2542 145.191 37.3715 143.242V143.271C37.7016 140.786 38.0971 137.883 38.4999 134.799C39.1675 129.908 39.7553 125.482 40.2306 122.282C40.5245 120.703 40.7603 119.422 40.9309 118.515C41.0143 118.084 41.0796 117.743 41.1304 117.492L41.1848 117.227C41.1896 117.197 41.1982 117.168 41.2102 117.14C41.2158 117.17 41.2158 117.201 41.2102 117.231C41.2102 117.304 41.1848 117.391 41.1703 117.499L41.007 118.53C40.851 119.437 40.6442 120.707 40.3648 122.303C39.9367 125.522 39.3453 129.923 38.6922 134.825C38.2713 137.909 37.8758 140.808 37.5384 143.293V143.311C36.4019 145.269 34.9589 147.032 33.2642 148.532C32.778 148.943 32.243 149.291 31.6714 149.57C31.4682 149.654 31.3085 149.708 31.1997 149.744C31.1423 149.776 31.0796 149.797 31.0146 149.806Z" fill="#263238"/>
<path d="M65.9406 150.593C65.9218 150.558 65.9095 150.52 65.9043 150.481C65.8826 150.394 65.8572 150.281 65.8245 150.14C65.7592 149.839 65.6395 149.414 65.5451 148.826C65.2548 147.199 65.0874 145.552 65.0444 143.899C64.9869 141.452 65.1179 139.004 65.4363 136.577C65.7701 133.834 66.3252 130.848 66.9711 127.728C67.6169 124.607 68.368 121.665 68.9993 118.983C69.5985 116.618 69.9883 114.204 70.164 111.77C70.2578 110.128 70.1971 108.481 69.9826 106.85C69.9209 106.27 69.8229 105.827 69.7794 105.522L69.7286 105.178C69.7238 105.138 69.7238 105.098 69.7286 105.058C69.7432 105.095 69.7529 105.134 69.7576 105.174C69.7758 105.261 69.8012 105.374 69.8302 105.515C69.881 105.816 69.9935 106.241 70.066 106.839C70.3087 108.474 70.3902 110.128 70.3091 111.778C70.1521 114.225 69.7744 116.654 69.1807 119.034C68.5566 121.723 67.7838 124.654 67.167 127.778C66.5502 130.902 65.9624 133.874 65.6177 136.61C65.2894 139.025 65.1426 141.462 65.1787 143.899C65.2092 145.544 65.356 147.184 65.6177 148.808C65.7012 149.385 65.81 149.824 65.8608 150.129C65.8862 150.27 65.908 150.387 65.9225 150.474C65.937 150.561 65.9406 150.593 65.9406 150.593Z" fill="#263238"/>
<path d="M72.0473 109.68C72.0038 109.651 72.6278 108.654 73.3245 107.38C74.0211 106.107 74.5254 105.043 74.5762 105.065C74.5234 105.318 74.4354 105.562 74.315 105.791C74.1263 106.23 73.8397 106.825 73.4914 107.467C73.1431 108.109 72.7911 108.668 72.5226 109.064C72.3933 109.29 72.2334 109.498 72.0473 109.68Z" fill="#263238"/>
<g opacity="0.3">
<path opacity="0.3" d="M73.2156 108.175C75.1069 105.961 77.1549 103.886 79.3438 101.967C79.9425 101.44 80.5919 100.907 81.3793 100.777C82.3372 100.617 83.3132 101.11 83.9771 101.821C84.603 102.568 85.103 103.411 85.4575 104.318C86.4081 101.981 85.4212 99.347 84.4416 97.0212C84.1223 96.2629 83.5708 95.3631 82.758 95.4864C82.3327 95.6051 81.9628 95.8697 81.7131 96.2339C78.5684 99.8848 75.6599 103.733 73.0051 107.754" fill="black"/>
</g>
<g opacity="0.3">
<path opacity="0.3" d="M105.116 90.893L105.25 89.7428C103.867 89.8734 102.169 90.0367 101.066 90.8785C99.7783 91.8617 99.2522 93.5344 98.8386 95.0946C97.8517 98.6431 100.653 116.912 100.508 120.594C101.73 120.076 102.594 112.249 102.812 110.921C103.349 107.725 102.264 105.729 102.594 104.837C102.924 103.944 102.913 102.975 102.939 102.028C103.058 97.7868 103.479 94.8043 105.116 90.893Z" fill="black"/>
</g>
<path d="M87.0794 32.2594C85.3233 30.0824 85.9002 26.6028 87.9103 24.6399C89.9204 22.677 92.9899 22.1327 95.7366 22.5972C97.7383 22.9533 99.6272 23.7784 101.249 25.005C102.87 26.2316 104.178 27.8249 105.065 29.6542C106.008 31.6317 106.516 33.9683 108.247 35.3108C109.764 36.4936 111.854 36.5952 113.581 37.4442C115.896 38.5763 117.39 41.0036 117.935 43.5253C118.479 46.047 118.145 48.6739 117.612 51.1992C117.122 53.5141 116.469 56.0176 117.463 58.1619C118.457 60.3063 120.696 61.3984 122.18 63.1618C124.988 66.4744 124.357 72.1128 120.877 74.7179C119.771 75.5488 118.37 76.1693 117.84 77.461C117.358 78.6293 117.768 79.9536 117.742 81.2163C117.681 84.4818 114.092 87.1486 110.954 86.2959C109.372 85.8605 107.913 84.6922 106.284 84.9135C104.655 85.1348 103.588 86.6297 102.293 87.5985C100.967 88.5196 99.3653 88.9564 97.7558 88.8355C96.1462 88.7146 94.6273 88.0433 93.4544 86.9345C92.5037 85.9875 91.7382 84.6995 90.4392 84.3548C89.1403 84.0101 87.7797 84.7539 86.4481 84.5725C84.7101 84.3366 83.5672 82.6095 83.052 80.9441C82.5368 79.2787 82.4025 77.4464 81.5353 75.9226C80.3924 73.9052 78.2154 72.7841 76.4013 71.369C74.3863 69.8119 72.7294 67.8401 71.5426 65.5871C70.3557 63.3341 69.6668 60.8524 69.5223 58.31C69.3778 55.7676 69.7812 53.2239 70.705 50.8509C71.6289 48.4779 73.0518 46.3311 74.8774 44.5557" fill="#263238"/>
<path d="M62.7442 75.7847C61.0211 77.7968 59.8008 80.1897 59.1838 82.766C58.5669 85.3423 58.571 88.0283 59.1957 90.6027C60.491 95.7223 64.7725 103.208 69.7179 105.065C72.9253 102.714 77.0471 99.4304 80.0368 96.8108C81.9707 95.1164 82.9975 92.6382 83.9554 90.2508C84.5069 88.872 85.0693 87.3844 84.7246 85.9403C84.467 84.8772 83.7486 83.9919 82.9902 83.2046C80.527 80.6885 77.5001 78.7951 74.16 77.6809C70.8198 76.5667 67.2624 76.2637 63.7819 76.797" fill="#EF9D78"/>
<path d="M77.428 38.9246C78.3205 37.1146 79.8077 35.6663 81.6407 34.8221C83.4737 33.9779 85.5411 33.7892 87.4966 34.2876L99.8728 37.4442C106.059 39.4362 110.903 49.0113 107.256 57.4C104.376 64.0217 101.426 72.3414 98.4686 76.9131C92.5182 86.1 84.3835 83.9992 84.3835 83.9992L79.9932 93.7956L62.0439 76.9639L77.428 38.9246Z" fill="#EF9D78"/>
<path d="M98.3269 59.987C98.5591 59.8999 99.1686 61.0755 100.504 61.7032C101.839 62.3309 103.16 62.1531 103.225 62.3889C103.261 62.4978 102.96 62.7155 102.38 62.8171C101.602 62.936 100.807 62.8091 100.105 62.4542C99.4046 62.1205 98.8298 61.5711 98.4648 60.8868C98.2108 60.3861 98.2144 60.0233 98.3269 59.987Z" fill="#263238"/>
<path d="M84.3108 53.6048C84.572 53.554 85.1743 54.842 86.6184 55.7382C88.0625 56.6344 89.5211 56.6598 89.5828 56.9102C89.6154 57.0263 89.2707 57.1968 88.6212 57.2041C87.7373 57.1866 86.8751 56.9268 86.1286 56.453C85.3874 56.0001 84.7918 55.344 84.4124 54.5627C84.1584 53.993 84.1838 53.6229 84.3108 53.6048Z" fill="#263238"/>
<path d="M90.2502 67.2908C90.2793 67.211 91.19 67.4396 92.6413 67.875C93.0041 67.9911 93.3669 68.0709 93.5302 67.8568C93.6935 67.6427 93.7443 67.2037 93.7552 66.7212C93.8023 65.7342 93.8532 64.7002 93.9003 63.6117C94.147 59.2033 94.4845 55.6294 94.6623 55.6475C94.84 55.6657 94.7893 59.2432 94.5462 63.6552C94.4784 64.7413 94.4131 65.7766 94.3502 66.7611C94.3067 67.2146 94.3321 67.7661 93.9257 68.2124C93.82 68.3127 93.6929 68.3877 93.554 68.4317C93.4151 68.4757 93.268 68.4876 93.1239 68.4664C92.908 68.4338 92.6971 68.3741 92.4961 68.2886C91.0811 67.7443 90.2212 67.3706 90.2502 67.2908Z" fill="#263238"/>
<path d="M84.3836 84.0319C84.3836 84.0319 77.2176 81.3469 72.3811 74.464C72.3811 74.464 72.6532 82.8672 83.2878 86.4955L84.3836 84.0319Z" fill="#D37A57"/>
<path d="M85.4357 48.9533C85.6606 48.5904 87.0793 49.0839 88.8354 49.2399C90.5915 49.3959 92.0755 49.2218 92.2279 49.6245C92.2932 49.8168 91.9739 50.1397 91.3353 50.4046C90.49 50.7178 89.5846 50.8345 88.6875 50.7459C87.7904 50.6572 86.9253 50.3656 86.1577 49.893C85.5844 49.5048 85.3341 49.1274 85.4357 48.9533Z" fill="#263238"/>
<path d="M101.251 52.9444C101.709 52.9444 102.275 54.0728 103.254 55.1504C104.234 56.2281 105.246 56.9646 105.181 57.4218C105.137 57.6286 104.756 57.7193 104.154 57.5415C103.358 57.2661 102.65 56.7825 102.104 56.141C101.54 55.52 101.155 54.7576 100.99 53.935C100.896 53.3181 101.037 52.9589 101.251 52.9444Z" fill="#263238"/>
<path d="M87.1049 71.0824C87.1049 71.0824 87.9466 70.6434 87.5548 69.0251C87.1629 67.4069 85.1093 65.9447 83.8067 67.2763C83.8067 67.2763 82.4932 67.3743 83.0085 68.8909C83.5237 70.4075 86.5207 72.5482 87.0795 71.3291" fill="#D37A57"/>
<path d="M86.6148 72.3196C86.3754 72.2761 86.7382 70.6978 85.6497 69.2646C84.5612 67.8314 82.8414 67.6137 82.8813 67.3887C82.8813 67.2835 83.3276 67.171 84.0424 67.3162C84.9688 67.518 85.7939 68.0412 86.3718 68.7929C86.9292 69.5152 87.183 70.4263 87.0793 71.3327C86.9886 72.004 86.7201 72.3523 86.6148 72.3196Z" fill="#263238"/>
<path d="M66.8442 33.7688C65.8852 34.5173 65.116 35.4813 64.5991 36.5826C64.0822 37.6838 63.8321 38.8914 63.869 40.1074C63.9234 41.4644 64.2536 43.0645 63.2558 43.9861C62.258 44.9077 60.6361 44.4179 59.2646 44.4251C58.0564 44.4649 56.9007 44.9289 56.0004 45.7357C55.1001 46.5424 54.5126 47.6405 54.341 48.8372C54.2431 49.6935 54.341 50.6187 53.9201 51.377C53.4992 52.1353 52.5523 52.4982 51.7831 52.9662C50.8235 53.5473 50.0335 54.3704 49.4922 55.3529C48.951 56.3355 48.6775 57.4431 48.6992 58.5647C48.7209 59.6863 49.037 60.7825 49.6158 61.7434C50.1946 62.7044 51.0158 63.4963 51.9971 64.0398C52.8861 64.5297 53.9238 64.8381 54.5732 65.6182C55.2989 66.5143 55.3424 67.7951 55.7089 68.8836C56.0613 69.9519 56.7399 70.8826 57.649 71.545C58.5582 72.2073 59.6522 72.5679 60.777 72.5759C61.9018 72.5839 63.0008 72.239 63.9193 71.5896C64.8378 70.9403 65.5296 70.0193 65.8972 68.9562" fill="#263238"/>
<path d="M86.9234 30.2965C86.5581 31.3609 86.4318 32.4928 86.5536 33.6116C86.6754 34.7304 87.0422 35.8086 87.628 36.7695C88.2138 37.7304 89.0041 38.5505 89.9428 39.1713C90.8814 39.7921 91.9454 40.1985 93.0589 40.3614C94.7787 40.6118 96.8324 40.3941 97.9426 41.7329C99.1109 43.1407 98.4179 45.383 99.3432 46.965C100.66 49.2181 102.913 51.0178 105.047 52.5272C106.698 53.6919 104.811 56.932 105.529 58.8187C106.248 60.7054 109.205 65.0122 111.222 65.0884C111.665 63.4012 114.176 55.9886 114.219 54.247C114.263 52.5054 113.856 50.6912 112.79 49.3197C112.198 48.5687 111.422 47.97 110.91 47.1645C109.804 45.4193 110.185 43.1734 109.822 41.1306C109.578 39.8139 109.023 38.5747 108.203 37.5167C107.382 36.4587 106.32 35.6127 105.105 35.0496C103.091 34.128 100.729 34.0264 98.8678 32.8254C97.4927 31.9365 96.5094 30.5178 95.0835 29.7123C92.3078 28.1449 88.8319 29.3495 85.9619 30.7282" fill="#263238"/>
<path d="M73.5455 51.377C73.2588 51.1847 71.3685 52.6251 73.2334 53.7753C76.5243 55.7854 79.3508 48.9859 79.231 46.7255C80.9073 45.9998 82.6017 45.2996 84.0785 44.1857C85.5552 43.0718 87.7612 39.4035 88.1567 37.5386C89.4157 38.0502 95.5004 38.0973 94.9707 37.7309C93.7697 36.9 91.3424 35.1185 91.0194 33.7397C90.3192 30.7101 88.1676 28.0723 85.323 27.2813C83.8397 26.9066 82.275 27.0222 80.8629 27.6108C79.4508 28.1994 78.2673 29.2295 77.4894 30.5468C74.1042 29.4293 70.0913 30.4343 67.3918 33.0866C66.0443 34.4448 65.0472 36.1103 64.4865 37.9395C63.9259 39.7688 63.8184 41.707 64.1735 43.587C64.3694 44.5521 64.696 45.5608 64.3876 46.5187C64.003 47.7015 62.8129 48.3328 61.8659 49.1093C59.2862 51.2028 58.1759 54.9146 58.4916 58.2418C58.8072 61.5689 59.3805 62.9078 61.0314 64.116C64.2642 66.4744 57.5446 72.5047 63.5712 74.5438" fill="#263238"/>
<path d="M118.49 74.4349C118.49 74.4132 118.704 74.2862 119.056 73.956C119.575 73.4782 119.989 72.8974 120.271 72.2507C120.728 71.2361 120.847 70.1013 120.609 69.0142C120.326 67.7479 119.371 66.5433 118.094 65.5165C116.817 64.4897 115.224 63.4992 114.07 61.8193C112.916 60.1394 112.71 57.8281 113.08 55.6511C113.45 53.4741 114.364 51.2972 114.952 49.0077C115.268 47.8545 115.419 46.6621 115.398 45.4664C115.387 44.2508 115.06 43.0591 114.448 42.0087C113.788 40.9885 112.852 40.1769 111.748 39.6684C110.666 39.1621 109.518 38.8126 108.338 38.6307C107.162 38.4923 105.998 38.2692 104.854 37.9631C104.281 37.8104 103.744 37.5421 103.278 37.1746C102.812 36.8071 102.426 36.3482 102.144 35.826C101.618 34.7883 101.502 33.6889 101.273 32.6911C101.095 31.7236 100.693 30.8114 100.098 30.028C98.9853 28.6257 97.3951 27.6827 95.6312 27.3793C94.1771 27.1321 92.6826 27.3111 91.328 27.8945C90.3025 28.336 89.3601 28.9496 88.5414 29.7087C87.8579 30.3795 87.2407 31.1146 86.6982 31.9038C86.6982 31.9038 86.7164 31.8385 86.7781 31.7296C86.8628 31.5641 86.9561 31.403 87.0574 31.2471C87.4421 30.6389 87.8963 30.0775 88.4108 29.5744C89.2286 28.7741 90.1803 28.1233 91.2228 27.6514C92.6212 27.0203 94.1731 26.8098 95.6892 27.0455C97.5416 27.3497 99.2156 28.3295 100.388 29.7957C101.025 30.6224 101.46 31.5866 101.658 32.6113C101.897 33.6309 102.021 34.7049 102.51 35.6373C102.77 36.1049 103.121 36.5147 103.544 36.8416C103.967 37.1685 104.453 37.4057 104.97 37.5386C106.094 37.8354 107.237 38.05 108.392 38.1808C109.619 38.3732 110.813 38.7397 111.937 39.2693C113.123 39.8156 114.13 40.6875 114.839 41.7837C115.494 42.9055 115.844 44.1787 115.855 45.4773C115.877 46.7172 115.721 47.9538 115.391 49.1492C114.778 51.4822 113.856 53.612 113.497 55.7491C113.138 57.8862 113.308 60.0378 114.382 61.6161C115.456 63.1944 117.046 64.1777 118.297 65.2734C119.549 66.3692 120.579 67.6173 120.837 68.9707C121.065 70.1113 120.913 71.2951 120.405 72.3414C120.098 72.9996 119.648 73.5809 119.088 74.0431C118.909 74.2017 118.707 74.3337 118.49 74.4349Z" fill="#455A64"/>
<path d="M107.347 52.5272C107.387 52.5453 107.169 53.046 106.948 53.9966C106.644 55.339 106.601 56.7271 106.821 58.0857C106.968 59.0181 107.244 59.9254 107.641 60.7816C108.121 61.7571 108.718 62.6709 109.419 63.5028C109.8 63.9829 110.125 64.5052 110.388 65.0594C110.665 65.6602 110.783 66.3227 110.729 66.9824C110.623 68.3321 109.959 69.5222 109.466 70.7522C108.972 71.9822 108.657 73.2521 109.132 74.3805C109.607 75.5089 110.471 76.3543 111.287 77.1671C112.125 77.9179 112.845 78.7914 113.421 79.7577C113.906 80.6508 114.035 81.694 113.784 82.6785C113.617 83.3761 113.297 84.0279 112.848 84.587C112.399 85.1461 111.831 85.5984 111.186 85.9113C110.835 86.0699 110.462 86.1739 110.079 86.2197C109.947 86.239 109.812 86.239 109.68 86.2197C110.17 86.1113 110.648 85.9533 111.106 85.7481C111.698 85.4207 112.214 84.9708 112.619 84.4284C113.024 83.8859 113.308 83.2634 113.453 82.6023C113.665 81.7014 113.535 80.7542 113.091 79.9427C112.521 79.0226 111.817 78.1934 111.001 77.4827C110.181 76.6736 109.226 75.8028 108.718 74.5474C108.467 73.9092 108.383 73.2171 108.475 72.5373C108.58 71.8608 108.773 71.2008 109.049 70.5744C109.56 69.3227 110.192 68.158 110.286 66.9461C110.38 65.7342 109.774 64.6711 109.089 63.7604C108.378 62.8975 107.779 61.9492 107.303 60.9376C106.33 58.7362 106.149 56.2655 106.792 53.9458C106.892 53.5731 107.022 53.2091 107.18 52.8573C107.219 52.7394 107.275 52.6281 107.347 52.5272Z" fill="#455A64"/>
<path d="M52.9077 63.9164C52.9077 63.9164 52.8279 63.8729 52.7009 63.7641C52.5081 63.6032 52.3308 63.4246 52.1712 63.2307C51.5582 62.4864 51.1437 61.5988 50.9666 60.651C50.8132 59.9104 50.8129 59.1463 50.9658 58.4056C51.1186 57.665 51.4214 56.9634 51.8555 56.3442C52.4326 55.537 53.2013 54.886 54.0924 54.4497C54.9835 54.0133 55.9691 53.8053 56.9606 53.8442L56.761 54.1127C56.294 52.9106 56.0851 51.6238 56.1478 50.3357C56.1852 49.6255 56.3785 48.9322 56.714 48.3051C57.0494 47.678 57.5189 47.1325 58.089 46.7073C58.7021 46.2473 59.4451 45.9933 60.2115 45.9817C60.9794 46.0281 61.7281 46.2397 62.4067 46.6021C63.0442 46.9484 63.7233 47.2118 64.4276 47.3858C64.7698 47.4514 65.1227 47.4339 65.4567 47.3348C65.7907 47.2356 66.096 47.0578 66.347 46.8162C67.0888 46.0479 67.5137 45.0283 67.5371 43.9607C67.6206 42.894 67.519 41.8091 67.6315 40.7242C67.8582 38.6369 68.802 36.6929 70.3019 35.2237C71.6391 33.9195 73.3626 33.0832 75.2146 32.8399C76.7758 32.6206 78.3672 32.8196 79.8262 33.4168L79.6231 33.5003C80.1456 32.4555 81.0341 31.6394 82.1193 31.2072C82.9147 30.8806 83.7785 30.756 84.6338 30.8443C85.1656 30.8977 85.6833 31.0478 86.1613 31.287C86.3273 31.3684 86.4822 31.4708 86.6221 31.5918C85.9971 31.2749 85.3173 31.0804 84.6192 31.0185C83.7956 30.9681 82.9719 31.1162 82.2173 31.4503C81.2075 31.8769 80.3882 32.6574 79.9133 33.6454L79.848 33.7796L79.7065 33.7252C78.2957 33.1767 76.7663 33.0053 75.2691 33.2281C73.5079 33.4829 71.8742 34.294 70.6067 35.543C69.1904 36.9464 68.3022 38.7959 68.0923 40.7787C67.987 41.8055 68.0923 42.8867 68.0088 44.0115C67.9783 45.1974 67.4999 46.3278 66.6699 47.1754C66.3648 47.4644 65.9959 47.6774 65.5931 47.7972C65.1903 47.917 64.7649 47.9401 64.3515 47.8648C63.6016 47.6847 62.8783 47.4078 62.1999 47.0411C61.5843 46.7055 60.9037 46.5063 60.2043 46.457C59.5353 46.4678 58.8867 46.6886 58.3502 47.0883C57.8275 47.474 57.3969 47.9709 57.0895 48.5431C56.7821 49.1153 56.6054 49.7486 56.5723 50.3973C56.5061 51.625 56.6951 52.853 57.1275 54.0039L57.2291 54.2869H56.9279C55.999 54.243 55.0735 54.429 54.2337 54.8284C53.3938 55.2277 52.6654 55.8281 52.1131 56.5764C51.6916 57.1585 51.3923 57.8199 51.2332 58.5208C51.0742 59.2217 51.0588 59.9476 51.1879 60.6546C51.341 61.5765 51.7144 62.4478 52.2764 63.1944C52.6574 63.6697 52.9259 63.8947 52.9077 63.9164Z" fill="#455A64"/>
<path d="M86.7599 33.0286C86.7817 33.112 86.0343 32.9923 85.1236 33.6635C84.2129 34.3348 83.3929 35.9058 83.157 37.9232L83.1389 38.0937H82.9647C81.9627 38.0285 80.9591 38.196 80.0326 38.5831C79.1061 38.9702 78.2816 39.5664 77.6238 40.3251C77.2576 40.7571 76.9669 41.2477 76.7639 41.7764C76.59 42.3496 76.4686 42.9374 76.4011 43.5326C76.3247 44.1728 76.2034 44.8069 76.0383 45.4302C75.8583 46.1132 75.4562 46.717 74.8953 47.1464C73.6907 48.0861 72.2104 48.2349 70.9042 48.4525C69.651 48.5622 68.4248 48.8798 67.2759 49.3923C65.3535 50.3137 63.853 51.9309 63.0779 53.9168C62.5676 55.2649 62.3969 56.7178 62.5808 58.1474C62.7114 59.1633 62.9437 59.7003 62.882 59.7148C62.8033 59.5979 62.7433 59.4693 62.7042 59.3339C62.572 58.9568 62.4701 58.5697 62.3994 58.1764C62.137 56.7112 62.262 55.2027 62.7622 53.8007C63.5239 51.6935 65.0729 49.9638 67.0836 48.975C68.2679 48.4326 69.5348 48.0928 70.8316 47.97C72.1233 47.7632 73.5275 47.5818 74.5797 46.7509C75.6174 46.0252 75.7298 44.6464 75.9294 43.4382C76.0078 42.8141 76.1426 42.1984 76.3321 41.5987C76.5596 41.0236 76.8808 40.4903 77.2828 40.0203C77.9897 39.2178 78.8749 38.592 79.8672 38.1931C80.8596 37.7943 81.9316 37.6335 82.9974 37.7236L82.8051 37.8833C83.0953 35.7825 83.9806 34.157 85.0111 33.4966C85.39 33.2358 85.8274 33.0725 86.2846 33.0213C86.4425 32.9998 86.6028 33.0022 86.7599 33.0286Z" fill="#455A64"/>
<path d="M74.246 52.4183C75.2801 50.3937 73.8832 47.843 71.6155 47.8466C70.3637 47.8466 69.0212 48.5288 67.9037 50.6695C64.9248 56.3804 71.2744 58.1946 71.3687 58.0349C71.4268 57.937 73.0341 54.7949 74.246 52.4183Z" fill="#EF9D78"/>
<path d="M70.752 54.9618C70.752 54.9291 70.6178 54.9799 70.3892 54.9618C70.1014 54.9423 69.8323 54.8123 69.6381 54.5989C69.1519 54.062 69.1411 52.8392 69.6381 51.7979C69.876 51.2988 70.2247 50.8608 70.6577 50.5171C70.8052 50.3684 70.9866 50.2577 71.1863 50.1945C71.386 50.1313 71.598 50.1175 71.8042 50.1542C71.9347 50.1838 72.0507 50.258 72.1322 50.364C72.2136 50.47 72.2555 50.6011 72.2505 50.7348C72.2505 50.9343 72.1489 51.0287 72.1707 51.0541C72.1925 51.0795 72.3449 51.0214 72.4211 50.7638C72.4709 50.6086 72.4671 50.4412 72.4102 50.2885C72.3632 50.1888 72.2971 50.0994 72.2155 50.0253C72.134 49.9512 72.0386 49.8939 71.9349 49.8567C71.6762 49.7802 71.4023 49.7713 71.1393 49.831C70.8762 49.8908 70.6329 50.017 70.4327 50.1978C69.9328 50.5666 69.5295 51.0508 69.2572 51.6092C68.6948 52.7812 68.7238 54.149 69.4241 54.8348C69.5544 54.9584 69.7105 55.0515 69.8812 55.1073C70.0519 55.1631 70.2328 55.1804 70.411 55.1577C70.6722 55.0924 70.7665 54.9835 70.752 54.9618Z" fill="#D37A57"/>
<path d="M68.5566 131.741C68.0487 130.805 66.7425 130.228 66.7425 130.228L65.654 127.561C65.9144 126.887 65.9144 126.141 65.654 125.467C65.2222 124.313 62.0474 117.612 62.12 117.394L61.3 117.347C61.3 117.347 64.2244 124.44 64.5111 124.803C64.7977 125.166 65.2367 127.274 64.5111 127.561C63.7854 127.847 62.2579 127.071 61.6084 126.422C60.9589 125.772 58.8944 120.892 58.5352 119.891C58.176 118.889 58.8146 117.478 58.8146 117.478L59.3915 116.11H58.6223C58.3062 117.031 58.041 117.968 57.8277 118.918C57.5411 120.29 60.7848 126.273 61.2891 126.922C61.7935 127.572 63.5242 128.076 64.4603 128.736C65.3964 129.397 65.2549 131.407 65.2549 131.407C64.7669 132.112 64.4683 132.93 64.3877 133.783C64.3151 135.082 67.1996 141.211 69.1444 142.491C71.0892 143.772 73.4004 142.854 73.6145 142.927C73.8286 142.999 74.3402 141.914 74.3402 141.914C74.3402 141.914 69.061 132.677 68.5566 131.741ZM71.2126 142.448C70.1506 142.305 69.1883 141.748 68.5349 140.899C68.299 140.586 65.7737 136.182 65.4472 135.376C64.8812 133.95 65.273 133.159 65.4798 132.325C65.781 131.109 67.6568 131.82 67.6568 131.82C67.6568 131.82 73.1791 141.363 73.0521 141.653C72.9251 141.943 72.2503 142.539 71.2126 142.448Z" fill="#263238"/>
<path d="M74.322 141.904C74.322 141.904 90.3991 135.786 91.1501 135.093C91.9012 134.4 94.6152 130.416 94.6152 130.416C94.6152 130.416 95.9432 130.645 95.769 130.993C95.5948 131.341 93.055 135.325 90.3265 136.479C87.598 137.633 73.5854 142.916 73.5854 142.916L74.322 141.904Z" fill="#263238"/>
<path d="M23.4458 91.488L16.8242 129.68C16.8242 129.68 14.3859 137.111 14.7343 138.751C15.0826 140.391 16.3126 147.386 20.028 149.592C23.7434 151.798 31.1016 150.357 32.611 148.866C34.1204 147.375 37.0956 144.592 37.4439 143.315C37.7922 142.038 40.2341 122.634 40.2341 122.634L41.2028 117.191C41.2028 117.191 37.6035 118.352 35.3975 116.828C33.1915 115.304 30.2889 108.817 30.2889 108.817L27.056 113.784L23.4458 91.488Z" fill="#FF725E"/>
<path d="M30.289 108.781C30.2565 108.857 30.2151 108.928 30.1656 108.995L29.7702 109.593C29.4291 110.109 28.9356 110.86 28.3442 111.796C27.1541 113.668 25.5649 116.284 23.827 119.19C22.089 122.097 20.5252 124.727 19.3533 126.617C18.7727 127.561 18.2938 128.319 17.9564 128.842C17.7931 129.085 17.6588 129.284 17.5609 129.437C17.5165 129.507 17.4668 129.574 17.4121 129.636C17.4411 129.558 17.4802 129.483 17.5282 129.415L17.891 128.802L19.2408 126.548L23.6637 119.092C25.4017 116.19 27.0126 113.577 28.2318 111.723C28.8413 110.794 29.3493 110.054 29.7121 109.546L30.133 108.969C30.1792 108.902 30.2315 108.839 30.289 108.781Z" fill="#263238"/>
<path d="M40.372 121.824C40.3315 121.881 40.2853 121.933 40.2341 121.98C40.1362 122.078 40.0055 122.234 39.8096 122.405C39.2645 122.907 38.6468 123.324 37.9773 123.642C37.516 123.859 37.028 124.014 36.526 124.103C35.9444 124.213 35.3489 124.227 34.7626 124.147C34.116 124.063 33.4837 123.892 32.8831 123.639C32.2459 123.363 31.6381 123.024 31.069 122.626C30.5081 122.211 29.9935 121.737 29.5342 121.211C28.3984 119.871 27.6373 118.253 27.3282 116.523C27.1931 115.798 27.1432 115.058 27.1794 114.321C27.1794 114.06 27.223 113.86 27.2339 113.722C27.2402 113.653 27.2524 113.583 27.2701 113.516C27.2838 113.785 27.2838 114.055 27.2701 114.325C27.2638 115.056 27.3331 115.785 27.4769 116.502C27.6887 117.564 28.0658 118.586 28.5945 119.531C28.9094 120.083 29.2738 120.605 29.683 121.092C30.1366 121.605 30.6425 122.069 31.1923 122.478C31.7527 122.868 32.3508 123.201 32.9775 123.472C33.5572 123.72 34.1672 123.891 34.7916 123.98C35.3561 124.055 35.9289 124.043 36.4897 123.943C36.9898 123.863 37.4775 123.719 37.941 123.515C38.6049 123.213 39.223 122.818 39.7769 122.343C40.1543 122.013 40.3611 121.81 40.372 121.824Z" fill="#263238"/>
<path d="M30.2888 108.781L35.2451 105.595C35.2451 105.595 48.4522 100.229 49.7947 99.9203C51.1371 99.6119 52.6973 98.9914 53.423 99.9203C54.1486 100.849 61.6774 106.317 61.6774 106.317C61.6774 106.317 66.1148 114.662 66.1148 115.812C66.1148 116.962 67.3521 118.399 66.1148 118.809L64.8631 119.227C64.8631 119.227 64.4494 121.251 62.9002 121.476C61.3509 121.701 60.8356 121.476 60.8356 121.476C60.8356 121.476 60.734 123.501 59.4968 123.377C58.2595 123.254 56.195 121.476 56.195 121.476C56.195 121.476 55.2662 122.528 54.5441 122.528C53.8221 122.528 51.5508 120.983 51.5508 120.983L47.1605 117.162L43.2927 115.823L41.2064 117.14C41.2064 117.14 36.7436 117.521 36.0724 117.14C35.4011 116.759 30.2888 108.781 30.2888 108.781Z" fill="#EF9D78"/>
<path d="M55.6543 121.824C55.5615 121.635 55.485 121.439 55.4257 121.237C55.3604 121.048 55.277 120.816 55.1645 120.551C55.052 120.286 54.9432 119.981 54.7835 119.658C54.6239 119.335 54.4679 118.973 54.2647 118.606C54.0615 118.24 53.8329 117.844 53.5898 117.434C53.0393 116.563 52.4244 115.735 51.7503 114.956C51.064 114.188 50.3231 113.47 49.5334 112.808C49.1705 112.514 48.8077 112.224 48.4449 111.988C48.082 111.752 47.7736 111.524 47.4688 111.335C47.1641 111.146 46.8774 110.972 46.6307 110.841C46.384 110.711 46.1663 110.58 45.9849 110.479C45.7938 110.392 45.6094 110.291 45.4333 110.177C45.6347 110.238 45.8302 110.317 46.0175 110.413C46.2443 110.508 46.4659 110.615 46.6815 110.733C46.9355 110.867 47.2294 111.012 47.5378 111.204C47.8462 111.397 48.1872 111.596 48.5356 111.847C48.8839 112.097 49.2612 112.365 49.6241 112.659C51.2474 113.969 52.6331 115.549 53.7204 117.329C53.9635 117.743 54.1994 118.131 54.3844 118.519C54.5695 118.907 54.7472 119.245 54.8888 119.607C55.0303 119.97 55.1464 120.25 55.2516 120.518C55.3568 120.787 55.4257 121.023 55.4802 121.218C55.554 121.416 55.6123 121.618 55.6543 121.824Z" fill="#D37A57"/>
<path d="M60.8284 121.697C60.8284 121.697 60.7849 121.647 60.7159 121.538C60.647 121.429 60.5454 121.273 60.4329 121.059C60.1175 120.454 59.8482 119.825 59.6274 119.179C59.3408 118.367 59.0614 117.365 58.7349 116.277C58.4087 115.094 57.9409 113.955 57.3416 112.884C56.7062 111.835 55.8613 110.929 54.8598 110.221C53.9455 109.557 53.0638 109.02 52.3926 108.469C51.8474 108.053 51.3743 107.55 50.992 106.981C50.8924 106.823 50.8051 106.658 50.7308 106.488C50.6992 106.431 50.676 106.37 50.6619 106.306C50.68 106.306 50.7816 106.546 51.0537 106.941C51.4529 107.485 51.9325 107.964 52.476 108.363C53.1509 108.893 54.0326 109.416 54.9614 110.083C55.9894 110.795 56.855 111.716 57.5012 112.786C58.1095 113.87 58.5799 115.026 58.9018 116.226C59.2211 117.314 59.4859 118.309 59.7544 119.129C59.9571 119.772 60.1995 120.402 60.4801 121.015C60.6087 121.236 60.725 121.464 60.8284 121.697Z" fill="#D37A57"/>
<path d="M64.5511 119.303C64.5238 119.246 64.5042 119.187 64.4931 119.125C64.4604 118.983 64.4205 118.813 64.3697 118.602C64.3189 118.392 64.2572 118.098 64.1665 117.782C64.0758 117.467 63.9887 117.097 63.8472 116.694C63.7057 116.291 63.5787 115.87 63.3937 115.417C63.2087 114.963 63.0055 114.484 62.7842 113.984C61.7732 111.827 60.426 109.844 58.793 108.109C58.4084 107.718 58.0492 107.337 57.6827 107.021C57.3163 106.705 56.9825 106.393 56.6596 106.128C56.3366 105.863 56.0391 105.642 55.7779 105.439C55.5166 105.236 55.2844 105.076 55.0921 104.945L54.6495 104.641C54.5515 104.568 54.5007 104.528 54.5043 104.521C54.5631 104.544 54.619 104.573 54.6712 104.608L55.132 104.887C55.3316 105.007 55.5711 105.16 55.8396 105.355C56.1081 105.551 56.4237 105.758 56.7466 106.027C57.0696 106.295 57.4288 106.571 57.788 106.908C58.1472 107.246 58.5136 107.605 58.9164 107.997C59.7403 108.87 60.4971 109.804 61.1804 110.791C61.8473 111.787 62.4368 112.832 62.9438 113.918C63.1651 114.426 63.3828 114.905 63.5425 115.37C63.7021 115.834 63.8581 116.262 63.9779 116.665C64.0976 117.068 64.1883 117.431 64.2718 117.753C64.3437 118.027 64.4018 118.305 64.4459 118.584C64.4822 118.795 64.5112 118.973 64.5366 119.114C64.5507 119.176 64.5555 119.239 64.5511 119.303Z" fill="#D37A57"/>
<path d="M45.1106 105.218C45.1106 105.247 44.853 105.287 44.4721 105.453C43.975 105.662 43.5417 105.997 43.2161 106.427C42.8905 106.856 42.6842 107.364 42.618 107.899C42.5636 108.313 42.5962 108.574 42.5672 108.577C42.4796 108.359 42.452 108.121 42.4874 107.888C42.5191 107.317 42.7203 106.768 43.0654 106.312C43.4106 105.855 43.8839 105.512 44.4249 105.326C44.6404 105.232 44.8765 105.195 45.1106 105.218Z" fill="#D37A57"/>
<path d="M48.7896 101.72C48.8186 101.771 48.1801 102.173 47.5487 102.848C46.9174 103.523 46.5401 104.176 46.4893 104.151C46.923 103.08 47.7444 102.212 48.7896 101.72Z" fill="#D37A57"/>
<path d="M100.569 58.6336C99.9417 58.8949 99.8147 59.6459 99.8256 60.3244C99.8256 61.1735 100.051 61.3113 100.744 62.7336C101.879 65.0594 103.236 69.4714 103.236 69.4714C103.236 69.4714 102.122 80.6104 102.873 83.2264C103.078 83.92 103.45 84.5529 103.956 85.0697C104.462 85.5864 105.087 85.9713 105.776 86.1907L104.76 94.7935H116.911C116.911 94.7935 116.48 86.4483 116.218 83.9085C115.943 81.2235 116.124 64.9868 116.124 64.9868L114.93 56.3188L112.118 51.4496C111.692 51.7285 111.376 52.1472 111.224 52.6338C111.072 53.1203 111.095 53.6445 111.287 54.1164C111.922 55.8979 112.34 59.3194 112.34 59.3194L105.304 48.7319C105.304 48.7319 103.922 49.0621 103.853 51.6346C103.853 51.6346 101.807 52.9662 103.127 55.1287C104.55 57.5451 106.081 64.8018 105.544 64.8018L101.19 58.3905L100.569 58.6336Z" fill="#EF9D78"/>
<path d="M104.731 94.7934C104.731 94.7934 104.731 94.6011 104.785 94.2238C104.84 93.8465 104.891 93.2841 104.97 92.5584C105.137 91.0889 105.384 88.9301 105.696 86.1834L105.729 86.2342C105.163 86.0515 104.638 85.7607 104.183 85.378C103.682 84.9634 103.285 84.4379 103.022 83.8432C102.761 83.1977 102.616 82.511 102.594 81.815C102.553 81.0893 102.536 80.3515 102.543 79.6017C102.576 76.5611 102.812 73.1578 103.156 69.4642V69.4932C102.587 67.7008 101.955 65.8104 101.164 63.8947C100.965 63.4157 100.754 62.9404 100.515 62.4688C100.249 62.0018 100.016 61.5169 99.8182 61.0174C99.7514 60.7457 99.7221 60.4662 99.7311 60.1865C99.7313 59.9038 99.7729 59.6227 99.8544 59.352C99.9343 59.0652 100.115 58.8167 100.362 58.6518C100.486 58.5802 100.616 58.5195 100.751 58.4704L101.135 58.3107L101.201 58.2853L101.24 58.3434L105.79 65.0158L105.623 65.0521C105.683 64.4933 105.676 63.9293 105.602 63.3722C105.539 62.8009 105.442 62.2339 105.311 61.6742C105.048 60.5292 104.709 59.4031 104.296 58.3034C103.896 57.1823 103.392 56.0938 102.902 54.9727C102.642 54.3936 102.573 53.7466 102.706 53.1258C102.855 52.4968 103.223 51.9412 103.744 51.5584L103.704 51.6273C103.763 51.068 103.893 50.5182 104.089 49.991C104.197 49.7157 104.341 49.4558 104.517 49.2181C104.696 48.961 104.949 48.7648 105.242 48.6557L105.301 48.6376L105.34 48.6957L105.424 48.819L112.376 59.2867L112.205 59.3484C112.036 57.9531 111.787 56.5685 111.461 55.2012C111.378 54.8638 111.284 54.5336 111.175 54.2107C111.051 53.8765 110.992 53.5219 111.001 53.1657C111.021 52.8102 111.124 52.4644 111.302 52.1562C111.481 51.848 111.729 51.586 112.027 51.3915L112.104 51.3407L112.151 51.4242L114.963 56.2934C115.376 59.3266 115.772 62.2172 116.149 64.965C116.098 69.4569 116.073 73.5678 116.08 77.2034C116.08 79.0175 116.08 80.7228 116.135 82.283C116.156 83.0667 116.2 83.8142 116.273 84.5326C116.345 85.251 116.378 85.9367 116.421 86.5862C116.592 89.1841 116.693 91.2232 116.766 92.6128C116.799 93.3058 116.824 93.8356 116.839 94.1984C116.853 94.5612 116.857 94.7426 116.857 94.7426C116.857 94.7426 116.839 94.5576 116.817 94.1984C116.795 93.8392 116.759 93.3058 116.719 92.6165C116.632 91.2268 116.512 89.1877 116.331 86.5898C116.283 85.9403 116.236 85.2582 116.175 84.5398C116.113 83.8214 116.048 83.0704 116.026 82.2866C115.975 80.7119 115.961 79.0211 115.95 77.207C115.932 73.5787 115.95 69.4605 115.993 64.9687C115.613 62.2257 115.213 59.3363 114.792 56.3006V56.3296L111.973 51.4677L112.096 51.5003C111.825 51.6805 111.599 51.9209 111.436 52.2029C111.273 52.4849 111.177 52.8008 111.157 53.1258C111.153 53.4598 111.21 53.7916 111.324 54.1055C111.437 54.4345 111.535 54.7683 111.617 55.1069C111.945 56.4827 112.196 57.8757 112.369 59.2795L112.419 59.6749L112.198 59.3411L105.242 48.8771L105.163 48.7537L105.261 48.7936C105.011 48.8946 104.797 49.0661 104.644 49.2871C104.479 49.5098 104.344 49.754 104.245 50.0127C104.058 50.5254 103.936 51.0592 103.882 51.6019V51.6419L103.846 51.6709C103.364 52.0263 103.024 52.5403 102.884 53.1222C102.763 53.7058 102.829 54.3127 103.073 54.8565C103.555 55.9632 104.067 57.0662 104.466 58.191C104.882 59.2989 105.224 60.4335 105.489 61.5871C105.625 62.1682 105.726 62.7571 105.79 63.3504C105.867 63.9244 105.874 64.5054 105.812 65.0811L105.779 65.3134L105.645 65.1174C104.074 62.8026 102.543 60.553 101.099 58.4304L101.204 58.4595C100.954 58.5719 100.667 58.6663 100.453 58.786C100.239 58.9294 100.084 59.1461 100.018 59.3956C99.9409 59.6497 99.9018 59.9138 99.9016 60.1793C99.8928 60.4417 99.9197 60.7042 99.9814 60.9594C100.175 61.4582 100.403 61.9431 100.664 62.4107C100.903 62.886 101.117 63.3686 101.317 63.862C102.108 65.7887 102.735 67.679 103.301 69.4787V69.5077C102.939 73.1977 102.706 76.5974 102.663 79.6343C102.663 80.3914 102.677 81.1256 102.706 81.8367C102.723 82.5198 102.862 83.1944 103.116 83.8287C103.367 84.3811 103.731 84.8749 104.184 85.2786C104.637 85.6822 105.169 85.9867 105.747 86.1726H105.787V86.2088C105.449 88.9627 105.188 91.1107 105.01 92.5765L104.803 94.242C104.764 94.6012 104.731 94.7934 104.731 94.7934Z" fill="#D37A57"/>
<path d="M110.101 65.727C110.041 65.5315 109.997 65.3312 109.97 65.1283C109.902 64.7401 109.785 64.1813 109.629 63.4919C109.206 61.7068 108.604 59.9686 107.833 58.3034C107.046 56.6428 106.13 55.0463 105.094 53.5286C104.702 52.9444 104.368 52.4764 104.147 52.1534C104.023 51.9895 103.91 51.8173 103.81 51.6382C103.955 51.7838 104.087 51.9416 104.205 52.1099C104.452 52.4183 104.796 52.8755 105.206 53.4524C106.281 54.9553 107.217 56.5522 108.004 58.2236C108.783 59.899 109.372 61.6564 109.76 63.4629C109.898 64.1559 109.999 64.7219 110.043 65.1174C110.08 65.3185 110.1 65.5225 110.101 65.727Z" fill="#D37A57"/>
<path d="M113.874 63.0239C113.522 62.4232 113.224 61.7916 112.985 61.1371C112.683 60.5094 112.44 59.8547 112.26 59.1815C112.61 59.7818 112.906 60.4119 113.145 61.0646C113.446 61.6946 113.69 62.3503 113.874 63.0239Z" fill="#D37A57"/>
<path d="M103.762 91.2304C101.629 110.054 98.8533 130.09 95.6604 150.902H120.395C125.046 140.605 122.209 131.621 120.961 118.817L116.882 89.7428L103.762 91.2304Z" fill="#FF725E"/>
<path d="M95.6602 150.902C95.6562 150.862 95.6562 150.822 95.6602 150.782L95.7038 150.419C95.751 150.096 95.8126 149.635 95.8925 149.051C96.0666 147.85 96.317 146.149 96.6181 144.015C97.2422 139.756 98.1057 133.892 99.0564 127.412C100.007 120.932 100.78 115.047 101.299 110.783C101.564 108.65 101.763 106.927 101.897 105.733C101.966 105.145 102.021 104.684 102.061 104.358L102.104 103.995C102.109 103.954 102.117 103.914 102.13 103.875C102.13 103.875 102.13 103.915 102.13 103.995L102.101 104.358C102.071 104.684 102.028 105.149 101.974 105.736C101.861 106.93 101.683 108.661 101.433 110.794C100.95 115.061 100.181 120.954 99.2559 127.437C98.3307 133.921 97.42 139.774 96.7596 144.033C96.4294 146.145 96.1573 147.858 95.9687 149.059C95.8743 149.639 95.7981 150.096 95.7473 150.423C95.7219 150.568 95.7002 150.688 95.6856 150.786C95.6806 150.825 95.6721 150.864 95.6602 150.902Z" fill="#263238"/>
<path d="M149.25 150.739H78.7195L87.8193 101.237C87.9759 100.388 88.4242 99.621 89.0868 99.0678C89.7493 98.5146 90.5845 98.2103 91.4476 98.2077H154.834C155.378 98.2087 155.916 98.3298 156.408 98.5621C156.9 98.7945 157.334 99.1325 157.681 99.5521C158.027 99.9717 158.277 100.462 158.412 100.99C158.547 101.517 158.565 102.067 158.463 102.602L149.25 150.739Z" fill="#455A64"/>
<path d="M78.7196 150.738H51.9644L52.0732 150.659C54.4595 148.866 57.3407 147.852 60.324 147.756L79.4525 147.194L78.7196 150.738Z" fill="#455A64"/>
<path d="M95.6602 98.273C95.6602 98.2912 95.4643 98.2367 95.0906 98.2331C94.5449 98.2413 94.0085 98.3754 93.5232 98.625C92.7545 99.0154 92.1052 99.6057 91.6437 100.334C91.0607 101.318 90.6692 102.404 90.4899 103.534C90.2613 104.786 90.0581 106.175 89.8078 107.659C89.5574 109.143 89.2817 110.725 88.9696 112.376C88.3564 115.703 87.6271 119.354 86.8362 123.174C85.2433 130.819 83.7666 137.731 82.8051 142.767C82.3189 145.278 81.9452 147.313 81.6912 148.721C81.5642 149.411 81.4663 149.951 81.3973 150.339C81.361 150.514 81.3356 150.651 81.3139 150.76C81.3062 150.808 81.2941 150.856 81.2776 150.902C81.2776 150.902 81.2776 150.855 81.2776 150.757C81.2776 150.659 81.3139 150.506 81.3356 150.332C81.3973 149.94 81.4771 149.396 81.5824 148.703C81.8037 147.292 82.152 145.249 82.6128 142.731C83.5308 137.698 84.9785 130.775 86.5713 123.138C87.3623 119.317 88.0952 115.674 88.7229 112.351C89.0422 110.693 89.3216 109.111 89.5864 107.634C89.8513 106.157 90.0581 104.771 90.3121 103.509C90.5045 102.36 90.9159 101.259 91.524 100.265C92.0078 99.5227 92.6853 98.9267 93.4832 98.5415C93.9823 98.2901 94.5356 98.1655 95.0942 98.1787C95.2864 98.1829 95.477 98.2147 95.6602 98.273Z" fill="#263238"/>
<path d="M125.449 123.359C125.449 124.034 125.249 124.693 124.874 125.254C124.499 125.815 123.966 126.252 123.343 126.51C122.72 126.768 122.034 126.836 121.373 126.704C120.711 126.573 120.103 126.248 119.626 125.771C119.149 125.294 118.825 124.686 118.693 124.025C118.561 123.363 118.629 122.677 118.887 122.054C119.145 121.431 119.582 120.898 120.143 120.523C120.704 120.149 121.364 119.949 122.038 119.949C122.943 119.949 123.81 120.308 124.45 120.948C125.089 121.587 125.449 122.455 125.449 123.359Z" fill="#F5F5F5"/>
<path d="M166.608 150.793C166.608 150.844 129.465 150.887 83.6613 150.887C37.8574 150.887 0.707031 150.847 0.707031 150.793C0.707031 150.738 37.8392 150.699 83.6613 150.699C129.483 150.699 166.608 150.742 166.608 150.793Z" fill="#263238"/>
<path d="M68.2661 20.8302L67.2973 11.7195L62.6495 12.768L58.6438 5.69283L61.1401 15.2571L65.8533 14.1758L68.2661 20.8302Z" fill="#E8505B"/>
<path d="M66.3722 22.55L62.0545 18.1053L60.0191 20.6052L54.9358 18.5117L60.2549 22.5609L62.3122 20.0174L66.3722 22.55Z" fill="#E8505B"/>
<path d="M113.047 26.4795L116.973 19.3389L120.423 21.7953L126.138 17.3688L120.808 24.3569L117.31 21.8534L113.047 26.4795Z" fill="#E8505B"/>
<path d="M120.249 30.5541L124.309 28.8233L124.959 31.0221L128.874 31.0475L124.266 32.2412L123.613 30.0062L120.249 30.5541Z" fill="#E8505B"/>
<path d="M92.0861 2.81194C92.0861 2.81194 92.2494 2.70672 92.576 2.51079C93.0636 2.22608 93.569 1.97279 94.089 1.75247C96.1134 0.885059 98.3071 0.484508 100.507 0.580524C100.878 0.591652 101.247 0.621929 101.614 0.671232C102.004 0.708856 102.39 0.779253 102.768 0.881675C103.168 0.98578 103.552 1.14192 103.911 1.3461C104.294 1.55936 104.615 1.8681 104.843 2.24229C105.073 2.64424 105.153 3.11493 105.068 3.57026C104.962 4.03845 104.73 4.46875 104.397 4.81477C103.689 5.52806 102.817 6.05743 101.857 6.35681C99.7621 7.12737 97.528 7.44758 95.3008 7.29654C92.7804 7.14176 90.3318 6.39599 88.153 5.11955L88.1022 5.08689L88.1349 5.0361C89.0652 3.57212 90.364 2.37843 91.9011 1.57468C93.5275 0.713986 95.3157 0.20236 97.1513 0.0725593C99.0856 -0.0492851 101.027 0.108354 102.917 0.540613C103.889 0.747427 104.861 1.00504 105.819 1.30619C106.819 1.57695 107.791 1.94139 108.722 2.39468C109.685 2.86693 110.493 3.60624 111.048 4.52451C111.323 4.99708 111.495 5.52266 111.552 6.06654C111.602 6.62001 111.509 7.17699 111.284 7.68477C110.774 8.68489 109.945 9.48663 108.929 9.96336C107.922 10.4697 106.853 10.844 105.75 11.0772C101.168 12.1899 96.4009 12.3136 91.7669 11.4401C91.4657 11.3893 91.1718 11.3167 90.8707 11.255C90.5695 11.1934 90.2756 11.1244 89.9781 11.0482C89.3761 10.9134 88.7854 10.7327 88.2111 10.5076C87.6266 10.2785 87.0817 9.95893 86.5965 9.56061C86.0921 9.15329 85.7467 8.58189 85.6205 7.94601C85.5135 7.29875 85.659 6.63513 86.0268 6.09194C86.3887 5.55959 86.8479 5.10041 87.3802 4.73858C87.9084 4.37476 88.4697 4.06135 89.0565 3.80247C89.3395 3.65734 89.637 3.53035 89.9309 3.40698C90.2248 3.28362 90.5223 3.15663 90.8271 3.04415C93.2768 2.12446 95.8665 1.63351 98.4829 1.59283C99.8115 1.5707 101.139 1.66296 102.452 1.86858C102.782 1.91937 103.113 1.9738 103.443 2.04999C103.773 2.12619 104.1 2.18061 104.422 2.27132C105.082 2.42161 105.727 2.63046 106.349 2.89539C106.983 3.15712 107.571 3.51847 108.091 3.96575C108.624 4.41922 109.004 5.02616 109.179 5.70371L109.234 5.96132L109.255 6.22619C109.268 6.40133 109.268 6.57715 109.255 6.75229C109.209 7.10054 109.106 7.43885 108.951 7.75371C108.631 8.37744 108.184 8.92649 107.637 9.36468C107.102 9.81127 106.518 10.1948 105.896 10.5076C105.587 10.6709 105.268 10.8088 104.949 10.943C104.629 11.0772 104.31 11.2151 103.983 11.3385C102.682 11.8409 101.346 12.2471 99.985 12.554C97.224 13.1932 94.3848 13.4279 91.5564 13.2506C90.1108 13.1971 88.6948 12.8255 87.4092 12.1621C86.7583 11.8179 86.2015 11.3196 85.7874 10.7108C85.3905 10.0788 85.2073 9.33592 85.2649 8.59185C85.3192 7.98903 85.5143 7.40739 85.8345 6.8938C86.1568 6.38882 86.5503 5.933 87.0029 5.54043C87.9033 4.77305 88.9246 4.16004 90.0252 3.72628C92.1769 2.81347 94.4645 2.26182 96.7957 2.09353C97.9459 2.00943 99.101 2.01792 100.25 2.11893C100.823 2.16973 101.393 2.24229 101.959 2.34026C102.528 2.42715 103.088 2.56684 103.631 2.75752C104.179 2.93705 104.698 3.19622 105.17 3.52672C105.657 3.85168 106.042 4.30844 106.28 4.8438C106.51 5.38818 106.529 5.99849 106.335 6.55637C106.141 7.10172 105.81 7.58787 105.373 7.96778C104.502 8.73698 103.377 9.05627 102.307 9.32114C101.237 9.58601 100.156 9.83274 99.0815 10.0686C96.9589 10.5622 94.8045 10.9077 92.634 11.1026C90.4991 11.2966 88.3477 11.1941 86.2409 10.7979C84.1735 10.4085 82.2063 9.60505 80.4574 8.43583L80.363 8.37415L80.4465 8.29796C83.398 5.75132 87.0234 4.11316 90.8852 3.58114C94.5486 3.01511 98.2972 3.48385 101.708 4.93451C102.115 5.12757 102.495 5.3714 102.84 5.66017C103.193 5.94874 103.464 6.3238 103.628 6.74867C103.772 7.18896 103.749 7.66692 103.563 8.09114C103.366 8.49674 103.072 8.84711 102.706 9.1107C101.987 9.59915 101.193 9.96682 100.355 10.1992C99.5454 10.4587 98.7169 10.6552 97.8769 10.787C96.2347 11.0428 94.5628 11.0428 92.9207 10.787C92.51 10.7493 92.1155 10.6083 91.7741 10.377C91.6094 10.2407 91.4839 10.0629 91.4106 9.86208C91.3372 9.66122 91.3187 9.44446 91.3568 9.23406C91.4642 8.83267 91.6891 8.47254 92.0027 8.19999C92.2953 7.92641 92.6251 7.69554 92.9823 7.51424C95.7463 6.27786 98.7884 5.79588 101.799 6.11734C102.516 6.18312 103.22 6.34544 103.893 6.5999C104.562 6.84526 105.15 7.274 105.587 7.83716C106.015 8.39737 106.217 9.09795 106.153 9.80008C106.044 10.4762 105.681 11.0851 105.137 11.5018C104.632 11.9029 104.09 12.2552 103.519 12.554C102.963 12.8598 102.389 13.1313 101.799 13.3667C100.677 13.8144 99.5089 14.1368 98.316 14.3282C96.1425 14.6814 93.9197 14.5851 91.785 14.0452H91.716L91.756 13.9908C92.6726 12.7503 93.9347 11.8075 95.3843 11.2804C96.648 10.8055 98.0142 10.6704 99.3464 10.8886C99.9453 10.9714 100.518 11.1871 101.023 11.5199C101.257 11.681 101.457 11.8855 101.614 12.1222C101.76 12.3539 101.852 12.6156 101.883 12.8878C101.921 13.3963 101.78 13.9023 101.483 14.3173C101.229 14.691 100.912 15.0186 100.547 15.2861C99.9276 15.7029 99.2521 16.0303 98.5409 16.2585C98.0395 16.439 97.552 16.6561 97.0823 16.908C96.7971 17.0659 96.5316 17.2571 96.2914 17.4776C96.2115 17.5502 96.1571 17.6119 96.1172 17.6518L96.0591 17.7098C96.1299 17.625 96.205 17.5438 96.2841 17.4667C96.5208 17.2421 96.784 17.0471 97.0678 16.8862C97.534 16.6273 98.0192 16.4041 98.5191 16.2186C99.2246 15.984 99.8947 15.6545 100.511 15.2389C100.87 14.9736 101.181 14.6484 101.429 14.2774C101.718 13.8744 101.854 13.3819 101.814 12.8878C101.784 12.6289 101.694 12.3805 101.552 12.1621C101.401 11.9306 101.205 11.7319 100.976 11.578C100.479 11.2526 99.9164 11.043 99.3283 10.9648C98.0088 10.7515 96.6564 10.8878 95.4061 11.3603C93.9732 11.8853 92.7265 12.8203 91.8213 14.0488L91.7959 13.9763C93.9175 14.5068 96.1251 14.5981 98.2833 14.2448C99.4762 14.0514 100.644 13.7278 101.766 13.2796C102.348 13.047 102.915 12.7805 103.465 12.4814C104.033 12.1829 104.571 11.8305 105.072 11.4292C105.59 11.03 105.938 10.4491 106.044 9.80371C106.096 9.1342 105.897 8.46926 105.486 7.93875C105.066 7.39343 104.501 6.97724 103.856 6.73778C103.196 6.48159 102.504 6.31797 101.799 6.25159C98.8074 5.92626 95.783 6.4034 93.0368 7.63398C92.6922 7.80764 92.3745 8.03004 92.0934 8.29433C91.806 8.54973 91.6003 8.88417 91.502 9.25583C91.4679 9.43994 91.4835 9.62981 91.5473 9.80584C91.6111 9.98188 91.7207 10.1377 91.8648 10.2572C92.1844 10.4925 92.5593 10.6412 92.9533 10.689C94.5787 10.9412 96.2334 10.9412 97.8588 10.689C98.6913 10.5554 99.5124 10.3589 100.315 10.1012C101.138 9.86763 101.916 9.49986 102.619 9.01274C102.963 8.76484 103.239 8.43576 103.425 8.05486C103.594 7.66713 103.615 7.2305 103.483 6.82849C103.336 6.42794 103.086 6.07356 102.757 5.80167C102.428 5.51312 102.062 5.26915 101.669 5.07601C98.2805 3.62949 94.5554 3.15945 90.9142 3.71902C87.0829 4.25909 83.49 5.89737 80.5699 8.43583V8.29433C82.3015 9.44686 84.2474 10.2391 86.2917 10.6237C88.3815 11.0181 90.516 11.1207 92.634 10.9285C94.7963 10.7291 96.9422 10.3799 99.0561 9.88353C100.145 9.64769 101.204 9.39371 102.278 9.1361C103.352 8.87849 104.455 8.5592 105.264 7.82628C105.671 7.46159 105.978 6.99792 106.153 6.48017C106.33 5.96282 106.31 5.39861 106.099 4.89459C105.874 4.39272 105.512 3.96492 105.054 3.66097C104.595 3.34261 104.093 3.09209 103.563 2.91716C103.028 2.7339 102.478 2.60148 101.919 2.52167C101.36 2.42371 100.794 2.35114 100.228 2.30035C99.0876 2.20236 97.941 2.19508 96.7993 2.27858C94.4906 2.44593 92.2251 2.99267 90.0942 3.89681C89.0101 4.32232 88.0046 4.92564 87.119 5.68194C86.2627 6.44389 85.5225 7.44893 85.4282 8.60999C85.3743 9.31204 85.5473 10.0128 85.9216 10.6092C86.3191 11.1913 86.852 11.6682 87.4745 11.9988C88.7357 12.6485 90.1243 13.0127 91.5419 13.0656C94.3531 13.2416 97.175 13.0094 99.9197 12.3762C101.278 12.0657 102.612 11.657 103.911 11.1534C104.233 11.0301 104.552 10.8995 104.869 10.7616C105.188 10.6273 105.5 10.4895 105.805 10.3298C106.414 10.0229 106.986 9.64798 107.51 9.21229C108.036 8.79008 108.467 8.26229 108.776 7.663C108.922 7.36593 109.019 7.04742 109.063 6.71964C109.076 6.5554 109.076 6.39043 109.063 6.22619L109.041 5.97946L108.99 5.73636C108.827 5.09627 108.469 4.5223 107.967 4.09274C107.461 3.65932 106.889 3.30906 106.273 3.05504C105.66 2.79362 105.025 2.58721 104.375 2.43822C104.052 2.35114 103.726 2.28583 103.399 2.2169C103.073 2.14796 102.75 2.08991 102.42 2.03911C98.5389 1.42673 94.5659 1.82666 90.8852 3.20017C90.584 3.30539 90.2901 3.42513 89.9962 3.563C89.7023 3.70088 89.4121 3.80973 89.1291 3.95486C88.5513 4.21007 87.9986 4.5186 87.4782 4.87645C86.9643 5.22406 86.521 5.66608 86.172 6.17902C85.8271 6.68547 85.6894 7.30486 85.7874 7.90973C85.9086 8.50528 86.2331 9.04015 86.7053 9.42274C87.176 9.80973 87.705 10.1196 88.2728 10.3407C88.8395 10.5643 89.4231 10.7426 90.018 10.8741C90.3119 10.9503 90.6058 11.0228 90.9033 11.0809C91.2008 11.1389 91.4947 11.2151 91.7923 11.2659C96.4036 12.134 101.147 12.0103 105.707 10.9031C106.797 10.6778 107.853 10.3119 108.849 9.81459C109.81 9.30663 110.707 8.59548 111.142 7.6122C111.355 7.12911 111.443 6.59982 111.396 6.0738C111.341 5.54344 111.173 5.03109 110.903 4.57167C110.36 3.68002 109.575 2.96138 108.639 2.49991C107.721 2.05031 106.764 1.68595 105.779 1.41141C104.811 1.11026 103.842 0.852648 102.877 0.645834C101 0.214239 99.0701 0.0553802 97.1476 0.174153C95.3304 0.304634 93.5606 0.813829 91.9519 1.66902C90.4321 2.45934 89.147 3.63558 88.2256 5.07964L88.2038 4.99619C90.2394 6.19729 92.5152 6.93393 94.8686 7.15345C97.2219 7.37298 99.5947 7.06998 101.817 6.2661C102.769 5.97289 103.635 5.45093 104.339 4.74584C104.661 4.41121 104.888 3.99657 104.996 3.54486C105.079 3.1084 105.003 2.65668 104.782 2.27132C104.561 1.90742 104.25 1.60727 103.878 1.40052C103.525 1.19747 103.147 1.0425 102.753 0.939728C102.379 0.837261 101.997 0.765664 101.61 0.725658C101.248 0.674861 100.885 0.649462 100.522 0.631321C98.3284 0.534075 96.1407 0.926995 94.118 1.7815C93.5989 1.99395 93.0925 2.23624 92.6014 2.50716C92.2567 2.7176 92.0861 2.81194 92.0861 2.81194Z" fill="#263238"/>
</g>
<defs>
<clipPath id="clip0_936:4834">
<rect width="166.293" height="150.902" fill="white" transform="translate(0.707031)"/>
</clipPath>
</defs>
</svg>
