<svg xmlns="http://www.w3.org/2000/svg" width="720" height="693.355" viewBox="0 0 720 693.355">
  <g id="Group_96" data-name="Group 96" transform="translate(-240 -253.323)">
    <path id="Path_1282" data-name="Path 1282" d="M600,907.106c197.8,0,358.205,8.861,358.205,19.787S797.8,946.678,600,946.678s-358.206-8.86-358.206-19.785S402.2,907.106,600,907.106" fill="#c7c9cb" fill-rule="evenodd"/>
    <path id="Path_1283" data-name="Path 1283" d="M641.74,789.973l-1.7,20.965,28.327,1.682L670.8,793.8Z" fill="#f6a37b" fill-rule="evenodd"/>
    <path id="Path_1284" data-name="Path 1284" d="M640.581,804.262c-9.413,2.975-9.692,26.428-3.989,33.25.032.038.081.075.118.113l97.2-4.883c1.855-4.617-.813-17.358-10.869-22.845-8.476-4.627-33.4-5.912-53.259-6.162l-.353.68a32.452,32.452,0,0,1-17.27,3.746c-9.453-.746-11.513-3.8-11.576-3.9" fill="#2f3a86" fill-rule="evenodd"/>
    <path id="Path_1285" data-name="Path 1285" d="M708.917,834l24.99-1.256c1.855-4.617,3-16.541-7.056-22.028-2.51-1.369-10.277-3.264-15.113-4.108A31.06,31.06,0,0,0,708.917,834" fill="#e0e1e3" fill-rule="evenodd"/>
    <path id="Path_1286" data-name="Path 1286" d="M633.765,831.133a16,16,0,0,0,2.827,6.38c.033.038.081.074.118.112l97.2-4.883a13.072,13.072,0,0,0,.259-6.652Z" fill="#e0e1e3" fill-rule="evenodd"/>
    <path id="Path_1287" data-name="Path 1287" d="M498.207,569.9s-3.751,52.5,16.682,66.872c20.453,14.391,132.3,4.751,142.346,2.664,0,0-7.257,23.128-11.609,67.245s-7.025,84.184-7.025,84.184c6.382,5.809,26.619,8.534,36.062,4.809,0,0,35.923-151.936,33.856-174.4s-14.95-29.932-41.363-32.512-115-11.687-115-11.687Z" fill="#2f3a86" fill-rule="evenodd"/>
    <path id="Path_1288" data-name="Path 1288" d="M718,428.348c-4.771-.922-10.151,7.735-12.014,19.332s.5,21.748,5.268,22.67,10.151-7.736,12.014-19.332-.5-21.748-5.268-22.67" fill="#e0e1e3" fill-rule="evenodd"/>
    <path id="Path_1289" data-name="Path 1289" d="M711.613,470.4c4.678.431,9.836-8.079,11.652-19.381,1.56-9.717.157-18.419-3.146-21.527-4.678-.431-9.835,8.078-11.65,19.382-1.561,9.716-.158,18.418,3.144,21.526" fill="#aeb0b3" fill-rule="evenodd"/>
    <path id="Path_1290" data-name="Path 1290" d="M714.623,449.349s17.908,9.773,19.6,14.623,3.9,29,3.078,30.454-3.439.272-4.091.187-.664-19.748-2.793-26.814-17.526-14.819-17.526-14.819Z" fill="#aeb0b3" fill-rule="evenodd"/>
    <path id="Path_1291" data-name="Path 1291" d="M771.129,479.02c.206.032.412.063.618.1a73.769,73.769,0,0,1,3.1,63.231,74.916,74.916,0,0,1-3.343,7c28.869-4.762,23.117-66.722-.379-70.329" fill="#ffbe00" fill-rule="evenodd"/>
    <path id="Path_1292" data-name="Path 1292" d="M350.179,805.233a41.455,41.455,0,1,0,41.454,41.456,41.461,41.461,0,0,0-41.454-41.456m0-41.895a83.35,83.35,0,1,0,83.35,83.351A83.361,83.361,0,0,0,350.179,763.338Z" fill="#2a1b1a" fill-rule="evenodd"/>
    <path id="Path_1293" data-name="Path 1293" d="M386.766,827.19l-16.807,5.461a24.319,24.319,0,0,0-12.707-9.169V805.838a41.5,41.5,0,0,1,29.514,21.352M379.979,875.5,369.6,861.215a24.143,24.143,0,0,0,4.831-14.526l-.009-.614,16.765-5.447a41.907,41.907,0,0,1,.443,6.061A41.31,41.31,0,0,1,379.979,875.5Zm-48.18,8.354,10.365-14.266a24.349,24.349,0,0,0,16.033,0L368.56,883.85a41.5,41.5,0,0,1-36.761,0Zm-22.633-43.221,16.765,5.447-.008.611a24.144,24.144,0,0,0,4.833,14.528L320.379,875.5a41.481,41.481,0,0,1-11.213-34.868ZM343.1,805.838v17.644a24.323,24.323,0,0,0-12.708,9.17l-16.8-5.461A41.511,41.511,0,0,1,343.1,805.838ZM350.179,792a54.684,54.684,0,1,0,54.684,54.685A54.691,54.691,0,0,0,350.179,792Z" fill="#979999" fill-rule="evenodd"/>
    <path id="Path_1294" data-name="Path 1294" d="M350.179,837.36a9.328,9.328,0,1,0,9.327,9.329,9.329,9.329,0,0,0-9.327-9.329" fill="#4c362e" fill-rule="evenodd"/>
    <path id="Path_1295" data-name="Path 1295" d="M876.649,805.233A41.455,41.455,0,1,0,918.1,846.689a41.461,41.461,0,0,0-41.454-41.456m0-41.895A83.35,83.35,0,1,0,960,846.689,83.36,83.36,0,0,0,876.649,763.338Z" fill="#2a1b1a" fill-rule="evenodd"/>
    <path id="Path_1296" data-name="Path 1296" d="M913.236,827.19l-16.8,5.461a24.333,24.333,0,0,0-12.708-9.169V805.838a41.5,41.5,0,0,1,29.513,21.352M906.45,875.5l-10.376-14.283a24.148,24.148,0,0,0,4.83-14.526l-.008-.614,16.765-5.447a41.907,41.907,0,0,1,.442,6.061A41.309,41.309,0,0,1,906.45,875.5Zm-48.18,8.354,10.365-14.266a24.346,24.346,0,0,0,16.032,0l10.364,14.265a41.5,41.5,0,0,1-36.761,0Zm-22.633-43.221,16.765,5.447-.008.611a24.137,24.137,0,0,0,4.833,14.528L846.851,875.5a41.479,41.479,0,0,1-11.214-34.868Zm33.937-34.793v17.644a24.323,24.323,0,0,0-12.708,9.17l-16.805-5.461A41.511,41.511,0,0,1,869.574,805.838ZM876.649,792a54.684,54.684,0,1,0,54.685,54.685A54.691,54.691,0,0,0,876.649,792Z" fill="#979999" fill-rule="evenodd"/>
    <path id="Path_1297" data-name="Path 1297" d="M876.649,837.36a9.328,9.328,0,1,0,9.328,9.329,9.33,9.33,0,0,0-9.328-9.329" fill="#4c362e" fill-rule="evenodd"/>
    <path id="Path_1298" data-name="Path 1298" d="M321.649,693.989H285.526s-12.76,24.659-10.1,31.071,14.651,5.809,14.651,5.809Z" fill="#ffbe00" fill-rule="evenodd"/>
    <path id="Path_1299" data-name="Path 1299" d="M344.26,688H298.685s-20.476,31.194-20.606,43.475,13,13.04,13,13.04Z" fill="#979999" fill-rule="evenodd"/>
    <path id="Path_1300" data-name="Path 1300" d="M564.492,368.236,549.969,393.1c.255-.057,27.165,21.5,29.245,22l13.041-30.7Z" fill="#f4b391" fill-rule="evenodd"/>
    <path id="Path_1301" data-name="Path 1301" d="M648.243,318.607c2.479,57.1-12.88,88.741-82.361,60.155l5.391-45.85,23.689-19.5Z" fill="#f4b391" fill-rule="evenodd"/>
    <path id="Path_1302" data-name="Path 1302" d="M669.852,299.9c-21.608,18.709-75.517-37.794-92.918-8.547,0,0-18.4,4.9-25.125,21.851s8.642,64.86,8.642,64.86l19.724-18.893c-14.675-14.73,6.256-27.237,11.777-9.485l10.129-22.138c21.794,8.544,68.272,10.374,67.771-27.648" fill="#1c2021" fill-rule="evenodd"/>
    <path id="Path_1303" data-name="Path 1303" d="M589.4,372.862c2.934,8.758,6.5,16.785,18.189,18.125a9.033,9.033,0,0,1-5.556,2.075,19.137,19.137,0,0,1-17.672-15.056Z" fill="#1c2021" fill-rule="evenodd"/>
    <path id="Path_1304" data-name="Path 1304" d="M653.647,303.308c-44.578.465-59.24,22.2-58.13,61.235.42,14.8-4.584,15.338-17.975,14.229-46.134-3.818-72.936-83.753-17.921-115.819,46.48-27.091,102,8.308,94.026,40.355" fill="#e50019" fill-rule="evenodd"/>
    <path id="Path_1305" data-name="Path 1305" d="M653.647,303.308c-44.578.465-59.24,22.2-58.13,61.235.42,14.8-4.584,15.338-17.975,14.23a42.978,42.978,0,0,1-16.533-4.9c10.154,1.543,21.508,2.153,25.875-1.7,8.633-7.625-1.766-37.212,19.19-59.522,14.146-15.059,35.742-15.353,48.287-13.954a25.955,25.955,0,0,1-.714,4.616" fill="#b70019" fill-rule="evenodd"/>
    <path id="Path_1306" data-name="Path 1306" d="M575.63,330a13.353,13.353,0,1,1-13.375,13.329A13.353,13.353,0,0,1,575.63,330" fill="#1c2021" fill-rule="evenodd"/>
    <path id="Path_1307" data-name="Path 1307" d="M721.6,511.145a140.164,140.164,0,0,0-31.5.884c-15.75,2.477-82.008-16.508-88.566-18.454s-22.921-42.35-22.921-42.35l-27.748,15.553s25.775,40.851,36.417,47.236,84.9,14.843,93.771,15.552,39.627-4.123,39.627-4.123Z" fill="#f6a37b" fill-rule="evenodd"/>
    <path id="Path_1308" data-name="Path 1308" d="M717.827,584.362s-23.767-43.278-25.185-56.4,40.793-25.895,40.793-25.895l28.38,61.014-24.832,25.541Z" fill="#b70019" fill-rule="evenodd"/>
    <path id="Path_1309" data-name="Path 1309" d="M293.2,757.866s-11.345,16.28-29.792,43.594S240,840.835,240,840.835s9.578,6.031,29.088-13.834S334,779.111,334,779.111Z" fill="#2a1b1a" fill-rule="evenodd"/>
    <path id="Path_1310" data-name="Path 1310" d="M837.373,726.61c37.64-3.466,99.111,24.055,117.062,66.691-94.076-13.75-101.849,4.846-155.728,41.5-17.749,12.076-37.956,5.321-37.956,5.321Z" fill="#e50019" fill-rule="evenodd"/>
    <path id="Path_1311" data-name="Path 1311" d="M837.373,726.61c11.218-1.032,24.551.688,38.219,4.739-8.363,5.139-16.425,12.7-20.213,23.64-4.367,12.615-6.005,30.317-6.5,45.846-14.961,7.96-29.013,19.57-50.177,33.97-17.749,12.076-37.956,5.321-37.956,5.321Z" fill="#b70019" fill-rule="evenodd"/>
    <path id="Path_1312" data-name="Path 1312" d="M761.815,563.078l-43.988,21.284s-3.9,7.095,2.839,24.121,23.058,46.471,27.669,81.945S752.946,810.683,711.8,812.1s-97.552,1.419-97.552,1.419-11.874-.851-20.545-5.629a27.925,27.925,0,0,1-11.736-11.753L434.04,756.408,262.7,758.182l.709,18.091s56.4,14.19,104.647,23.768S431.2,812.1,431.2,812.1l4.211,15.715s99.017,25.789,193.731,29.336,123.8-7.094,123.8-7.094S798,819.2,812.187,768.114s26.6-67.754,4.257-111.741-54.629-93.295-54.629-93.295" fill="#2a1b1a" fill-rule="evenodd"/>
    <path id="Path_1313" data-name="Path 1313" d="M621.6,791.136l-2.753,20.854,28.207,3.1,3.377-18.671Z" fill="#f4b391" fill-rule="evenodd"/>
    <path id="Path_1314" data-name="Path 1314" d="M619.728,805.349c-9.551,2.5-11.006,25.909-5.653,33.008.031.04.077.078.112.119h97.321c2.084-4.519.058-17.377-9.708-23.363-8.234-5.046-33.057-7.578-52.883-8.824l-.388.659a32.427,32.427,0,0,1-17.435,2.875c-9.4-1.219-11.308-4.374-11.366-4.474" fill="#264392" fill-rule="evenodd"/>
    <path id="Path_1315" data-name="Path 1315" d="M686.485,838.477h25.023c2.084-4.52,3.823-16.371-5.944-22.356-2.437-1.494-10.1-3.775-14.886-4.86a31.066,31.066,0,0,0-4.193,27.216" fill="#fff" fill-rule="evenodd"/>
    <path id="Path_1316" data-name="Path 1316" d="M611.571,831.845a16.027,16.027,0,0,0,2.505,6.512c.03.04.076.079.111.12h97.321a13.089,13.089,0,0,0,.593-6.632Z" fill="#fff" fill-rule="evenodd"/>
    <path id="Path_1317" data-name="Path 1317" d="M761.815,563.078s-8.514,12.061.709,32.636,59.721,94.412,46.943,134.165-35.591,107.764-78.159,121.244S498.6,840.48,498.6,840.48s-7.8,36.893,44.7,37.6,183.044,11.352,220.645-15.607,100.035-134.09,97.908-156.793-100.036-142.6-100.036-142.6" fill="#e50019" fill-rule="evenodd"/>
    <path id="Path_1318" data-name="Path 1318" d="M500.925,858.3c4.392,9.538,15.454,19.414,42.373,19.777,45.265.612,148.535,8.6,200.242-6.482-64.684,5.527-178.218-.417-242.615-13.295" fill="#b70019" fill-rule="evenodd"/>
    <path id="Path_1319" data-name="Path 1319" d="M600.056,683.688H325.491c-12.684,2.995-56.144,45.875-62.788,74.494,57.939,14.556,242.833,42.164,319.261,37.957-42.329-49.657,18.743-79.482,18.092-112.451" fill="#e50019" fill-rule="evenodd"/>
    <path id="Path_1320" data-name="Path 1320" d="M523.295,795.1q8.615.539,16.709.89a80.1,80.1,0,0,0,5.387-28.246c0-57.838-70.129-92.445-156.6-77.28-41.968,7.36-80.082,25.093-108.2,48.007,25.957-18.682,59.064-32.964,95.131-39.289,83.292-14.6,150.837,18.726,150.837,74.434a74.934,74.934,0,0,1-3.256,21.484" fill="#b70019" fill-rule="evenodd"/>
    <path id="Path_1321" data-name="Path 1321" d="M457.372,457.839H298.691a43.765,43.765,0,0,0-43.637,43.638V633.711a43.765,43.765,0,0,0,43.637,43.637H457.372Z" fill="#e50019" fill-rule="evenodd"/>
    <rect id="Rectangle_19" data-name="Rectangle 19" width="7.063" height="219.508" transform="translate(450.309 457.839)" fill="#b70019"/>
    <path id="Path_1322" data-name="Path 1322" d="M457.372,457.839H298.691a43.261,43.261,0,0,0-22.064,6.033H457.372Z" fill="#f16c51" fill-rule="evenodd"/>
    <path id="Path_1323" data-name="Path 1323" d="M267.477,664.124a43.507,43.507,0,0,0,31.214,13.224H457.372V664.124Z" fill="#b70019" fill-rule="evenodd"/>
    <rect id="Rectangle_20" data-name="Rectangle 20" width="202.318" height="7.934" transform="translate(255.054 513.377)" fill="#b70019"/>
    <rect id="Rectangle_21" data-name="Rectangle 21" width="274.564" height="10.282" transform="translate(325.491 673.405)" fill="#e50019"/>
    <rect id="Rectangle_22" data-name="Rectangle 22" width="274.564" height="2.838" transform="translate(325.491 680.85)" fill="#b70019"/>
    <path id="Path_1324" data-name="Path 1324" d="M600.056,673.405H467.3V638.637c0-7.22,5.923-13.606,13.125-13.126l95.68,6.386c13.141.875,23.947,10.776,23.947,23.947Z" fill="#2a1b1a" fill-rule="evenodd"/>
    <path id="Path_1325" data-name="Path 1325" d="M479.871,625.489q.277,0,.558.022l95.68,6.386c13.141.875,23.947,10.776,23.947,23.947V658.6a115.327,115.327,0,0,1-120.185-33.107" fill="#231818" fill-rule="evenodd"/>
    <path id="Path_1326" data-name="Path 1326" d="M349.651,821.525a25.185,25.185,0,0,0,0,50.328v.02l117.619,4.693q1.2.1,2.42.1a29.975,29.975,0,1,0,0-59.95h0q-1.218,0-2.412.1l-117.627,4.713Z" fill="#4d5254" fill-rule="evenodd"/>
    <path id="Path_1327" data-name="Path 1327" d="M489.292,564.142s-6.381,52.243,13.3,67.626c19.705,15.4,131.9,11.382,142.034,9.8,0,0-8.408,22.735-14.969,66.578s-11.24,83.725-11.24,83.725c6.083,6.122,26.158,9.859,35.775,6.612,0,0,43.5-149.941,42.563-172.48s-13.428-30.645-39.678-34.547S542.81,574.015,542.81,574.015Z" fill="#264392" fill-rule="evenodd"/>
    <path id="Path_1328" data-name="Path 1328" d="M773.512,476.838a39.623,39.623,0,0,0-9.273-2.271c.231.028.46.056.69.088a81.963,81.963,0,0,1,5.769,70.1,82.822,82.822,0,0,1-3.455,7.895,39.709,39.709,0,0,0,11.363-4.14c.086-.225.178-.448.263-.674a90.567,90.567,0,0,0-2.341-69.715c-.979-.463-1.984-.893-3.016-1.282" fill="#d3d9e2" fill-rule="evenodd"/>
    <path id="Path_1329" data-name="Path 1329" d="M764.929,474.655a39.556,39.556,0,1,0,2.314,77.994,82.822,82.822,0,0,0,3.455-7.895,81.963,81.963,0,0,0-5.769-70.1" fill="#e50019" fill-rule="evenodd"/>
    <path id="Path_1330" data-name="Path 1330" d="M720.9,505.462a39.559,39.559,0,0,0,46.341,47.187,82.6,82.6,0,0,0,8.63-32.392,135.758,135.758,0,0,1-33.44-5.375,101.362,101.362,0,0,1-21.531-9.42" fill="#b70019" fill-rule="evenodd"/>
    <path id="Path_1331" data-name="Path 1331" d="M713.215,531.33a8.66,8.66,0,0,0-3.131.581l0,0a8.662,8.662,0,0,0-1,.461l-24.291,12.339,7.267,15.795,24.8-12.6h0a8.691,8.691,0,0,0-3.647-16.581" fill="#2a1b1a" fill-rule="evenodd"/>
    <path id="Path_1332" data-name="Path 1332" d="M540.764,384.721c-10.4,10.293-29.465,32.714-35.551,63.673-8.526,43.361-30.788,135.992-30.788,135.992s25.357,6.762,61.36,6.724,45.74-16.212,45.74-16.212,7.438-79.092,11.035-115.809S580.526,407.3,580.526,407.3l-27.2-23.941c-6.8-5.987-5.55-5.57-12.559,1.365" fill="#e50019" fill-rule="evenodd"/>
    <path id="Path_1333" data-name="Path 1333" d="M544.4,380.8l-7.379,5.3c13.487,11.329,43.167,28.376,57.955,46.492,0,0,4.215-15.807-7.224-26.381-8.58-7.93-26.815-19.6-35.4-24.935-4.591-2.855-3.82-3.451-7.957-.478" fill="#b70019" fill-rule="evenodd"/>
    <path id="Path_1334" data-name="Path 1334" d="M585.529,496.731c2.082,1.6,80.938,32.293,93.661,32.154,10.968-.119,12.76-1.711,18.518-.737s11.72,1.106,20.162,6.642,5.723,13.3,4.761,13.577-.919-3.55-3.4-6.828-11.714-5.2-11.714-5.2,7.06,2.087,9.121,6.276.4,12.93-1.174,12.753-.494-5.532-1.747-8.156-8.9-7.578-8.9-7.578,5.925,5.11,6.478,9.759-2.659,10.447-3.771,9.1.729-8.005-.409-10.787-6.157-4.257-6.157-4.257,3.962,1.921,4.808,5.368-.121,8.643-1.313,10.407-.931-4-3.079-8.2-9.123-5.2-9.123-5.2-5.269-.534-8.274,2.978-7.972,3.832-12.552-.247-13.347-7.169-19.207-8.428-72.415-11.21-81.451-16.148-29.5-48.851-29.5-48.851l30.659-10.776Z" fill="#f4b391" fill-rule="evenodd"/>
    <path id="Path_1335" data-name="Path 1335" d="M689.128,543.633a8.691,8.691,0,1,0,8.691,8.691,8.693,8.693,0,0,0-8.691-8.691" fill="#2a1b1a" fill-rule="evenodd"/>
    <path id="Path_1336" data-name="Path 1336" d="M552.79,413.734c-39.452-3.181-16.82,74.4-13.835,82.3l45.051-12.771c-1.49-17.894-9.241-67.756-31.216-69.528" fill="#b70019" fill-rule="evenodd"/>
    <path id="Path_1337" data-name="Path 1337" d="M325.061,720.051c59.458-26.871,158.081-29.833,178.432,22.347-33.958-45.862-149.106-28.969-178.432-22.347" fill="#f16c51" fill-rule="evenodd"/>
    <path id="Path_1338" data-name="Path 1338" d="M939.064,779.9c-25.122-23.333-46.014-34.267-70.959-42.469,33.264,4.495,58.789,25.05,70.959,42.469" fill="#f16c51" fill-rule="evenodd"/>
    <path id="Path_1339" data-name="Path 1339" d="M825.372,666.945h0a8.362,8.362,0,0,0-3.141,11.364L835,700.837a8.359,8.359,0,0,0,11.362,3.141h0a8.36,8.36,0,0,0,3.141-11.363l-12.771-22.529a8.361,8.361,0,0,0-11.362-3.141" fill="#ffbe00" fill-rule="evenodd"/>
    <path id="Path_1340" data-name="Path 1340" d="M691.707,460.187c-6.953,0-13.509,9.611-14.64,21.462s3.593,21.461,10.546,21.461,13.51-9.611,14.641-21.461-3.593-21.462-10.547-21.462" fill="#e0e1e3" fill-rule="evenodd"/>
    <path id="Path_1341" data-name="Path 1341" d="M688.14,503.091c6.754-.469,13.012-9.891,14.114-21.442.946-9.929-2.216-18.285-7.357-20.734-6.754.468-13.012,9.89-14.113,21.442-.947,9.929,2.215,18.285,7.356,20.734" fill="#aeb0b3" fill-rule="evenodd"/>
    <path id="Path_1342" data-name="Path 1342" d="M689.66,481.648s19.046,7.314,21.367,11.9,7.712,28.228,7.088,29.778-3.372.725-4.031.727-3.274-19.485-6.321-26.207-19.335-12.365-19.335-12.365Z" fill="#aeb0b3" fill-rule="evenodd"/>
  </g>
</svg>
