<svg xmlns="http://www.w3.org/2000/svg" width="2184.241" height="1958.179" viewBox="0 0 2184.241 1958.179">
  <g id="Group_12" data-name="Group 12" transform="translate(7133.686 5557.196)">
    <path id="Path_4" data-name="Path 4" d="M636.348,234.457h-502.1V621.716h502.1Z" transform="translate(-6573.324 -4259.499)" fill="#ebebeb"/>
    <path id="Path_5" data-name="Path 5" d="M189.557,619.967c-.673,0-1.256-86.338-1.256-192.835s.583-192.835,1.256-192.835,1.256,86.345,1.256,192.835S190.23,619.967,189.557,619.967Z" transform="translate(-6252.307 -4260.449)" fill="#e0e0e0"/>
    <path id="Path_6" data-name="Path 6" d="M233.4,277.565H194.929V321.1H233.4Z" transform="translate(-6212.942 -4003.469)" fill="#fafafa"/>
    <path id="Path_7" data-name="Path 7" d="M213.357,234.6H156.33v82.626h57.027Z" transform="translate(-6442.191 -4258.631)" fill="#e0e0e0"/>
    <path id="Path_8" data-name="Path 8" d="M213.357,278.19H156.33v82.633h57.027Z" transform="translate(-6442.191 -3999.757)" fill="#e0e0e0"/>
    <path id="Path_9" data-name="Path 9" d="M879.8,220.465H246.665V708.774H879.8Z" transform="translate(-5905.668 -4342.601)" fill="#ebebeb"/>
    <path id="Path_10" data-name="Path 10" d="M316.109,706.421c-.673,0-1.249-108.808-1.249-243.069s.576-243.075,1.249-243.075,1.256,108.808,1.256,243.075S316.838,706.421,316.109,706.421Z" transform="translate(-5500.64 -4343.717)" fill="#e0e0e0"/>
    <path id="Path_11" data-name="Path 11" d="M371.716,274.814h-48.54v54.862h48.54Z" transform="translate(-5451.249 -4019.808)" fill="#fafafa"/>
    <path id="Path_12" data-name="Path 12" d="M346.429,220.646H274.5V324.825h71.926Z" transform="translate(-5740.331 -4341.526)" fill="#e0e0e0"/>
    <path id="Path_13" data-name="Path 13" d="M346.429,275.606H274.5V379.785h71.926Z" transform="translate(-5740.331 -4015.104)" fill="#e0e0e0"/>
    <path id="Path_14" data-name="Path 14" d="M101.072,233.322c25.647-13.205,55.826-14.94,84.269-10.215,15.282,2.5,31.191,7.085,41.6,18.556s12.341,31.678.434,41.559c-7.135,5.877-17.018,6.745-26.273,6.655-22.273-.291-46.956-4.2-64.745,9.2-10.172,7.668-16.921,20.346-28.926,24.107s-25.262-3.324-31.529-14.031a48.918,48.918,0,0,1-3.567-36.2,55.222,55.222,0,0,1,28.733-39.63Z" transform="translate(-6952.572 -4341.093)" fill="#ebebeb"/>
    <path id="Path_15" data-name="Path 15" d="M78.982,404.906c15.667,22.372,46.136,15,60.261,1.3s20.1-33.461,25.5-52.308c12.438-43.148,24.924-88.413,15.716-132.332A73.225,73.225,0,0,0,163.54,185.6a38.587,38.587,0,0,0-36.35-12.1c-15.378,4.053-24.924,19.284-31.818,33.413A314.746,314.746,0,0,0,64.229,342.237C64.229,364.075,66.688,386.926,78.982,404.906Z" transform="translate(-6989.2 -4626.016)" fill="#ebebeb"/>
    <path id="Path_16" data-name="Path 16" d="M214.617,375.463c17.018-20.2,20.247-49.609,12.679-74.916s-24.683-46.812-44.4-64.4a239.024,239.024,0,0,0-79.448-46.861A84.782,84.782,0,0,0,67.676,183.2,37.459,37.459,0,0,0,37.69,201.336c-8.389,15.953-.338,35.286,8.34,51.1a606.967,606.967,0,0,0,52.162,79.5c15.668,20.152,33.746,40.06,57.417,49.172s48.643,8.049,61.274-8.487" transform="translate(-7167.838 -4564.465)" fill="#ebebeb"/>
    <path id="Path_17" data-name="Path 17" d="M66.431,431.026A48.424,48.424,0,0,0,67.877,420.9c.723-7.425,1.591-16.724,2.7-27.764A404.61,404.61,0,0,1,76.8,352.446a311.315,311.315,0,0,1,14.8-48.207,178.392,178.392,0,0,1,24.539-43.391,92.646,92.646,0,0,1,31-25.793,87.44,87.44,0,0,1,26.129-8.1,47.53,47.53,0,0,0,10.124-1.492,47.032,47.032,0,0,0-10.269,0,78.826,78.826,0,0,0-27.238,7.085,91.313,91.313,0,0,0-32.734,26.036,171.858,171.858,0,0,0-25.454,44.3,294.844,294.844,0,0,0-14.463,48.838,353.6,353.6,0,0,0-5.448,41.219c-.867,11.811-1.2,21.352-1.35,27.958A48.214,48.214,0,0,0,66.431,431.026Z" transform="translate(-6977.709 -4314.576)" fill="#e0e0e0"/>
    <path id="Path_18" data-name="Path 18" d="M68.255,644.628a20.484,20.484,0,0,0,.289-4.816v-13.5c0-11.714,0-28.68.578-49.6,1.061-41.851,4.821-86.775,11.618-150.367,6.6-59.733,15.427-129.2,24.779-174.37,1.977-10.27,4-19.527,5.93-27.625s3.327-15.135,4.821-20.776,2.314-9.646,3.182-13.115a19.771,19.771,0,0,0,.82-4.823,19.357,19.357,0,0,0-1.639,4.441c-1.061,3.421-2.362,7.661-3.953,12.914s-3.519,12.588-5.544,20.637S104.8,240.93,102.628,251.2A1528.052,1528.052,0,0,0,76.547,412.989C69.6,476.622,66.471,534.572,66.182,576.513c0,20.97,0,37.986.724,49.706.337,5.447.627,9.93.82,13.448A20.688,20.688,0,0,0,68.255,644.628Z" transform="translate(-6977.606 -4549.489)" fill="#e0e0e0"/>
    <path id="Path_19" data-name="Path 19" d="M194.408,503.421a90.778,90.778,0,0,0,0-14.129c-.53-9.062-1.784-22.129-4.339-38.18a502,502,0,0,0-12.631-55.632,459.329,459.329,0,0,0-23.285-65.854A350.065,350.065,0,0,0,85.841,223.276a169.725,169.725,0,0,0-16.1-14.947c-2.459-2.116-4.821-4.191-6.846-5.829l-5.978-4.3a85.887,85.887,0,0,0-11.907-7.612c-.675.916,16.825,11.228,38.9,34.71a369.331,369.331,0,0,1,66.625,106.06,511.8,511.8,0,0,1,23.381,65.222q7.952,27.188,13.161,55.056c2.892,15.863,4.821,28.93,5.592,37.8A88.53,88.53,0,0,0,194.408,503.421Z" transform="translate(-7103.47 -4520.024)" fill="#e0e0e0"/>
    <path id="Path_20" data-name="Path 20" d="M49.884,261.628l11.185,153.4H258.147l11.185-153.4Z" transform="translate(-7074.405 -4098.123)" fill="#ebebeb"/>
    <path id="Path_21" data-name="Path 21" d="M309.156,252.916H47.139v60.455H309.156Z" transform="translate(-7090.703 -4149.866)" fill="#ebebeb"/>
    <path id="Path_22" data-name="Path 22" d="M47.139,282.893v16.73H304.816v-16.73Z" transform="translate(-7090.703 -3971.824)" fill="#e0e0e0"/>
    <path id="Path_23" data-name="Path 23" d="M60.963,314.546,48.911,285.04H284.894l-14.077,29.506Z" transform="translate(-7080.182 -3959.073)" fill="#e0e0e0"/>
    <path id="Path_24" data-name="Path 24" d="M262.861,287.217a7.232,7.232,0,0,1-.916,1.443c-.772,1.013-1.784,2.318-2.941,3.907L247.53,307.029l-.53.673-.482-.673-28.2-39h1.59l-27.768,39.29-.867,1.256-.965-1.159L157.38,268.224h1.881l-1.784,2.311L128.02,307.417l-1.012,1.249-.867-1.3-27.817-39.29h1.639l-34.229,38.95-.578.722-.482-.819-10.7-17.737c-1.157-1.929-2.025-3.518-2.748-4.823a7.566,7.566,0,0,1-.867-1.735,7.33,7.33,0,0,1,1.157,1.541l3.037,4.58,11.233,17.695H64.722l33.746-39.436.82-1.013.772,1.062,28.058,39.144h-1.832l29.359-36.972c.627-.777,1.253-1.547,1.784-2.269l.964-1.207.965,1.159,32.83,39.29h-1.832l28.058-39.1.82-1.159.771,1.159c11.137,15.863,20.585,29.311,27.624,39.436h-1.012l11.956-14.462c1.3-1.5,2.362-2.7,3.182-3.712A10.2,10.2,0,0,1,262.861,287.217Z" transform="translate(-7071.599 -4073.576)" fill="#f5f5f5"/>
    <path id="Path_25" data-name="Path 25" d="M270.717,262.515c0,.673-49.415,1.249-110.3,1.249s-110.3-.576-110.3-1.249,49.366-1.207,110.3-1.207S270.717,261.842,270.717,262.515Z" transform="translate(-7073.043 -4100.023)" fill="#f5f5f5"/>
    <path id="Path_46" data-name="Path 46" d="M2112.485,291.527c0,.722-463.383,1.256-1034.8,1.256s-1034.9-.534-1034.9-1.256,463.29-1.256,1034.9-1.256S2112.485,290.854,2112.485,291.527Z" transform="translate(-7116.616 -3928.005)" fill="#263238"/>
    <path id="Path_47" data-name="Path 47" d="M185.6,35.487A154.29,154.29,0,0,1,220.4,134.123c-.243,20.344-4,42.761,7.855,59.3,8.972,12.534,25.363,18.85,32.642,32.445,8.771,16.343,1.3,37.025,6.7,54.766,7.619,25.165,37.125,35.723,54.626,55.343a70.016,70.016,0,0,1,14.461,64.022,71.931,71.931,0,0,1-45.223,47.823,46.862,46.862,0,0,1-35.772-.578c-11.811-5.882-19.284-17.982-25.065-29.794C219.008,394.21,116.945,268.626,111.158,243.268" transform="translate(-6710.479 -5441.235)" fill="#263238"/>
    <path id="Path_48" data-name="Path 48" d="M279.135,32.089c-41.747-6.749-81.953,20.971-99.454,59.442S161.6,173.487,160.4,215.91s-4.291,86.39-25.84,122.74c-13.692,23.092-34.9,43.388-38.23,69.951-2.989,23.815,9.352,47.823,5.254,71.494-3.568,20.633-19.284,38.567-18.657,59.44.772,25.169,26.66,44.113,51.777,44.786s48.643-12.484,68.357-28.1a262.723,262.723,0,0,0,75.062-95.406" transform="translate(-6878.263 -5467.438)" fill="#263238"/>
    <path id="Path_49" data-name="Path 49" d="M101.8,121.577A79.023,79.023,0,0,1,172.87,33.113c42.087-4.05,79.545,27.334,85.859,69.18,5.544,36.686,10.27,73.712,10.124,87.161-.534,40.544-24.107,56.309-33.746,61.081a54.323,54.323,0,0,1-10.707,2.651v.289l8.972,46.57c4.094,30.516-12.921,57.85-43.391,62.142s-54.425-18.995-59.1-49.511Z" transform="translate(-6769.631 -5457.422)" fill="#ffbe9d"/>
    <path id="Path_50" data-name="Path 50" d="M144.532,49.881c-.673.964-6.03-1.881-12.872-.868s-11.429,5.159-12.3,4.436,0-1.928,2.123-3.857a17.731,17.731,0,0,1,9.639-4.821,16.873,16.873,0,0,1,10.416,1.735C143.949,48.049,144.865,49.495,144.532,49.881Z" transform="translate(-6663.726 -5387.269)" fill="#263238"/>
    <path id="Path_51" data-name="Path 51" d="M135.737,52c-.68.965-6.03-1.928-12.921-.916s-11.38,5.207-12.248,4.483,0-1.976,2.123-3.856a17.737,17.737,0,0,1,9.639-4.821,17.261,17.261,0,0,1,10.416,1.784C135.105,50.167,136.07,51.565,135.737,52Z" transform="translate(-6715.962 -5374.539)" fill="#263238"/>
    <path id="Path_52" data-name="Path 52" d="M127.415,101.351a45.278,45.278,0,0,1,10.846-3.615c1.742-.434,3.331-1.012,3.477-2.266a9.086,9.086,0,0,0-1.929-4.821l-7.182-12.824C122.641,59.891,115.175,45.044,115.9,44.61s9.639,13.884,19.284,31.818c2.456,4.435,4.823,8.678,6.939,12.679a10.463,10.463,0,0,1,1.929,6.749,4.363,4.363,0,0,1-.9,1.788,4.422,4.422,0,0,1-1.6,1.2,12.336,12.336,0,0,1-2.942.867A43.373,43.373,0,0,1,127.415,101.351Z" transform="translate(-6682.624 -5387.107)" fill="#263238"/>
    <path id="Path_53" data-name="Path 53" d="M172.167,72.291s-26.175,6.026-62.238-9.063c0,0,15.572,33.506,64.695,21.6Z" transform="translate(-6717.779 -5276.477)" fill="#eb996e"/>
    <path id="Path_54" data-name="Path 54" d="M139.837,47.829c-.389,1.976-7.376,2.073-15.287,4.243s-14.121,5.254-15.426,3.76c-.576-.723.291-2.651,2.651-4.821a27.58,27.58,0,0,1,23.385-6.074C138.339,45.66,139.837,46.913,139.837,47.829Z" transform="translate(-6723.581 -5388.351)" fill="#263238"/>
    <path id="Path_55" data-name="Path 55" d="M142.046,47.913c-.965,1.736-5.926.82-11.616,1.543s-10.367,2.6-11.714,1.109c-.583-.723,0-2.363,1.832-4.146a15.989,15.989,0,0,1,9.063-3.953,16.431,16.431,0,0,1,9.639,1.784C141.567,45.551,142.483,47.045,142.046,47.913Z" transform="translate(-6666.881 -5400.487)" fill="#263238"/>
    <path id="Path_56" data-name="Path 56" d="M111.809,54.09a5.66,5.66,0,0,0,2.248,3.771,5.691,5.691,0,0,0,4.261,1.049,5.526,5.526,0,0,0,2.061-.666,5.518,5.518,0,0,0,2.609-3.345,5.534,5.534,0,0,0,.153-2.159,5.743,5.743,0,0,0-6.509-4.821,5.458,5.458,0,0,0-4.691,4A5.428,5.428,0,0,0,111.809,54.09Z" transform="translate(-6706.933 -5367.759)" fill="#263238"/>
    <path id="Path_57" data-name="Path 57" d="M120.566,52.193a5.743,5.743,0,0,0,6.509,4.821,5.511,5.511,0,0,0,3.706-2.076A5.62,5.62,0,0,0,131.752,53a5.53,5.53,0,0,0,.146-2.159,5.733,5.733,0,0,0-6.509-4.821,5.427,5.427,0,0,0-2.068.654,5.484,5.484,0,0,0-1.652,1.409,5.5,5.5,0,0,0-1.1,4.107Z" transform="translate(-6654.901 -5379.023)" fill="#263238"/>
    <path id="Path_58" data-name="Path 58" d="M128.586,55.024a8.493,8.493,0,0,0-10.034,4.146,8.839,8.839,0,0,0,1.207,10.172,7.762,7.762,0,0,0,10.027.723,9.657,9.657,0,0,0,3.137-6.556,9.234,9.234,0,0,0-1.547-6.556,5.25,5.25,0,0,0-6.12-1.833" transform="translate(-6672.99 -5327.474)" fill="#eb996e"/>
    <path id="Path_59" data-name="Path 59" d="M218.674,80.933a62.12,62.12,0,0,0-26.425-37.121,68.923,68.923,0,0,0-36.924-12.968,50.655,50.655,0,0,0-36.348,13.209,37.775,37.775,0,0,0-11.186,26.274l.77-6.749a24.579,24.579,0,0,0,0,17.017c1.11,2.941,2.456,5.93,3.615,8.87a38.08,38.08,0,0,0,18.028,19.621,24.8,24.8,0,0,0,12.053,2.941,14.454,14.454,0,0,0,10.943-5.352,24.117,24.117,0,0,0,2.6-17.259,41.254,41.254,0,0,0,13.164,14.463,14.461,14.461,0,0,0,18.125-2.073c3.955-4.821,2.408-12.438,0-18.416A36.437,36.437,0,0,0,202.186,96.36a13.445,13.445,0,0,0,10.749,1.157,10.453,10.453,0,0,0,5.593-7.231A22.137,22.137,0,0,0,218.674,80.933Z" transform="translate(-6734.926 -5469.085)" fill="#263238"/>
    <path id="Path_60" data-name="Path 60" d="M173.276,88.464c-.437,0-.34-5.737-2.221-14.463a55.139,55.139,0,0,0-16.633-30.227,39.513,39.513,0,0,0-16.675-9.015,36.278,36.278,0,0,0-15.53-.386,44.845,44.845,0,0,0-13.4,5.544,12.944,12.944,0,0,1,2.942-2.748,29.6,29.6,0,0,1,10.076-4.531,36.059,36.059,0,0,1,16.439,0,40.811,40.811,0,0,1,17.834,9.642,53.928,53.928,0,0,1,16.73,31.769,69.035,69.035,0,0,1,.867,10.9A10.239,10.239,0,0,1,173.276,88.464Z" transform="translate(-6724.383 -5463.792)" fill="#455a64"/>
    <path id="Path_61" data-name="Path 61" d="M477.36,292.436,292,218.915S197.077,94.393,199.054,91.982l-66.679,72.987,96.907,131.083,224.6,52.641,106.351.867C551.846,308.633,477.36,292.436,477.36,292.436Z" transform="translate(-6584.466 -5105.695)" fill="#ffbe9d"/>
    <path id="Path_62" data-name="Path 62" d="M345.376,77.927l-25.259-9.642L211.066,82.121V101.4l-3.136.386a223.419,223.419,0,0,0-66.768,25.936,113.967,113.967,0,0,0-53.03,116.039c4.436,27.576,13.017,61.08,29.6,80.461,31.673,37.07,60.6-8.73,60.6-8.73s19.862,45.32,18.7,66.77c-.965,17.987-8.868,55.4-11.422,67.061a3.508,3.508,0,0,0-.028,1.423,3.614,3.614,0,0,0,.534,1.311,3.568,3.568,0,0,0,2.339,1.513l230.05,42.565,1.11-56.264-7.328-231.4-10.367-89.861S402.264,75.709,345.376,77.927Z" transform="translate(-6856.472 -5246.438)" fill="#ff725e"/>
    <path id="Path_63" data-name="Path 63" d="M131.521,73.384l87.691,126.741-70.628,86Z" transform="translate(-6589.539 -5216.153)" fill="#ff725e"/>
    <path id="Path_64" data-name="Path 64" d="M156.481,287.8a55.808,55.808,0,0,1-.333-8.2c0-5.683,0-13.157-.291-22.268A674.91,674.91,0,0,0,150.6,184.2c-3.615-28.443-9.16-53.849-13.358-72.313l-5.107-21.694a55.2,55.2,0,0,1-1.638-8,46.269,46.269,0,0,1,2.6,7.762c1.492,4.821,3.518,12.389,5.836,21.549a590.363,590.363,0,0,1,14.17,72.313,566.57,566.57,0,0,1,4.531,73.472c0,9.639-.243,17.064-.527,22.317A48.483,48.483,0,0,1,156.481,287.8Z" transform="translate(-6595.603 -5163.874)" fill="#263238"/>
    <path id="Path_65" data-name="Path 65" d="M201.568,84.791c0,.386-6.648.337-17.307.868A280.266,280.266,0,0,0,142.9,91.01a286.627,286.627,0,0,0-40.11,11.522c-10.027,3.713-16.053,6.46-16.246,6.075a17.187,17.187,0,0,1,4.05-2.362c2.652-1.447,6.6-3.279,11.57-5.352a224.544,224.544,0,0,1,81.952-16.969c5.406,0,9.646,0,12.782.289A15.191,15.191,0,0,1,201.568,84.791Z" transform="translate(-6856.667 -5153.558)" fill="#fafafa"/>
    <path id="Path_66" data-name="Path 66" d="M197.349,92.408a42.653,42.653,0,0,1-10.943,2.411,243.332,243.332,0,0,1-53.849,1.832,43.4,43.4,0,0,1-11.089-1.639,63.133,63.133,0,0,1,11.186,0H159.46c10.457,0,19.909-1.061,26.751-1.688A61.569,61.569,0,0,1,197.349,92.408Z" transform="translate(-6649.246 -5103.18)" fill="#fafafa"/>
    <path id="Path_67" data-name="Path 67" d="M173.239,84.177a68.182,68.182,0,0,1-18.8,15.186A66.171,66.171,0,0,1,132.311,109c-.291-.674,9.646-4.821,20.825-11.956S172.76,83.6,173.239,84.177Z" transform="translate(-6584.881 -5152.27)" fill="#fafafa"/>
    <path id="Path_68" data-name="Path 68" d="M180.179,75.706a90.928,90.928,0,0,1-55.008,23.14c0-.771,13.261-2.8,28.493-9.3S179.7,75.08,180.179,75.706Z" transform="translate(-6627.253 -5202.566)" fill="#fafafa"/>
    <path id="Path_69" data-name="Path 69" d="M242.926,106.58a23.082,23.082,0,0,1-4.531,2.366c-3.039,1.443-7.425,3.227-13.018,5.3a240.708,240.708,0,0,1-44.786,11.38,237.085,237.085,0,0,1-46.139,2.554c-5.926-.243-10.7-.673-13.976-1.11a22.844,22.844,0,0,1-5.066-.916c0-.43,7.328,0,19.284.291a283.452,283.452,0,0,0,90.294-13.885C235.98,108.947,242.78,106.2,242.926,106.58Z" transform="translate(-6685.226 -5019.202)" fill="#fafafa"/>
    <path id="Path_70" data-name="Path 70" d="M327.687,115.964a17.942,17.942,0,0,1-2.075,1.207l-6.169,2.7c-5.3,2.505-13.164,5.78-23,9.639A355.072,355.072,0,0,1,261.3,140.744a414.25,414.25,0,0,1-89.183,13.837c-13.885.527-26.369.479-36.882,0s-18.944-1.256-24.78-2.075l-6.7-.916a9.122,9.122,0,0,1-2.318-.479,7.522,7.522,0,0,1,2.366,0l6.745.43c5.836.486,14.461.965,24.732,1.256s22.948,0,36.736-.486a354.445,354.445,0,0,0,44.689-4.816c15.766-2.609,30.616-5.739,44.016-9.111s25.259-7.189,35.1-10.707,17.834-6.46,23.233-8.674l6.266-2.463A12.144,12.144,0,0,1,327.687,115.964Z" transform="translate(-6768.203 -4963.26)" fill="#fafafa"/>
    <path id="Path_71" data-name="Path 71" d="M137.443,263.656l-26.081,117.78L63.78,468.642a12.352,12.352,0,0,0,11.394,18.271,12.246,12.246,0,0,0,5.576-1.638c22.08-12.726,103.119-60.115,104.517-68.844,1.688-10.076,35.771-122.4,35.771-122.4Z" transform="translate(-7000.802 -4086.078)" fill="#ff725e"/>
    <g id="Group_1" data-name="Group 1" transform="translate(-6931.334 -3677.406)" opacity="0.6">
      <path id="Path_72" data-name="Path 72" d="M63.312,361.684l117.775-77.13-1.253,4.816a18.63,18.63,0,0,1-7.135,10.707c-9.642,6.891-36.494,25.4-97.72,61.177a12.36,12.36,0,0,1-11.666.431Z" transform="translate(-63.312 -284.554)" fill="#fff" opacity="0.6"/>
    </g>
    <g id="Group_2" data-name="Group 2" transform="translate(-6832.956 -3721.647)" opacity="0.6">
      <path id="Path_73" data-name="Path 73" d="M82.087,278.6a7.47,7.47,0,0,0-4.291,9.014,7.181,7.181,0,0,0,8.87,4.337,7.9,7.9,0,0,0,4.531-9.639,7.48,7.48,0,0,0-9.641-3.525" transform="translate(-77.49 -278.178)" fill="#fff" opacity="0.6"/>
    </g>
    <path id="Path_74" data-name="Path 74" d="M86.889,304.655a38.554,38.554,0,0,0-8.051-11.616A37.43,37.43,0,0,0,65.967,287.3c0-.333,1.687-.868,4.531-.576a19.317,19.317,0,0,1,10.027,4.434,18.722,18.722,0,0,1,6.075,8.966C87.419,302.872,87.179,304.655,86.889,304.655Z" transform="translate(-6978.883 -3949.571)" fill="#263238"/>
    <path id="Path_75" data-name="Path 75" d="M84.554,301.936c-.675.388-3.52-4.337-9.16-7.564a90.541,90.541,0,0,0-11.088-4.3,13.794,13.794,0,0,1,12.438,1.978C83.156,295.767,85.228,301.791,84.554,301.936Z" transform="translate(-6988.747 -3933.21)" fill="#263238"/>
    <path id="Path_76" data-name="Path 76" d="M97.344,304.841a117.566,117.566,0,0,0-13.305-12.629,118.991,118.991,0,0,0-16.391-8.341,27.535,27.535,0,0,1,17.934,6.169A27.016,27.016,0,0,1,97.344,304.841Z" transform="translate(-6968.899 -3966.051)" fill="#263238"/>
    <path id="Path_77" data-name="Path 77" d="M99.211,290.212c-.482.632-6.315-3.664-14.463-6.023s-15.523-1.978-15.572-2.8a30.766,30.766,0,0,1,30.227,8.82Z" transform="translate(-6959.822 -3986.569)" fill="#263238"/>
    <path id="Path_78" data-name="Path 78" d="M101.76,285.434a61.029,61.029,0,0,0-15.089-6.7,61.3,61.3,0,0,0-16.488,0c0-.284,1.495-1.443,4.58-2.359a26.94,26.94,0,0,1,23.719,4.823C100.941,283.505,101.953,285.24,101.76,285.434Z" transform="translate(-6953.839 -4016.161)" fill="#263238"/>
    <path id="Path_79" data-name="Path 79" d="M85.853,294.279a10.826,10.826,0,0,1,.964-4.441,30.922,30.922,0,0,1,6.364-10.749,14.16,14.16,0,0,1,7.424-5.107,5.1,5.1,0,0,1,5.207,2.408,8.1,8.1,0,0,1,.53,5.787A17.5,17.5,0,0,1,87.637,294.23a20.349,20.349,0,0,1-16.825-15.044,7.238,7.238,0,0,1,1.109-5.787,4.822,4.822,0,0,1,5.544-1.3,17.6,17.6,0,0,1,6.749,5.926,35.677,35.677,0,0,1,5.737,11.138,11.087,11.087,0,0,1,.82,4.531,55.345,55.345,0,0,0-8.051-14.461,16.316,16.316,0,0,0-5.977-4.823,2.654,2.654,0,0,0-1.639-.146,2.626,2.626,0,0,0-1.4.867,4.833,4.833,0,0,0-.482,3.81,18.156,18.156,0,0,0,14.656,12.629,15.181,15.181,0,0,0,16.053-9.979,6.016,6.016,0,0,0,0-4.046,2.672,2.672,0,0,0-1.2-1.131,2.725,2.725,0,0,0-1.64-.222,12.68,12.68,0,0,0-6.411,4.15A49.463,49.463,0,0,0,85.853,294.279Z" transform="translate(-6951.236 -4038.211)" fill="#263238"/>
    <g id="Group_3" data-name="Group 3" transform="translate(-6872.181 -3822.422)" opacity="0.3">
      <path id="Path_80" data-name="Path 80" d="M77.477,276.431l-5.64,27,85.282,14.121,7.135-23.524-83.74-30.373Z" transform="translate(-71.837 -263.656)" opacity="0.3"/>
    </g>
    <path id="Path_81" data-name="Path 81" d="M210.6,273.2l-7.043,94.1s93.333,38.569,93.722,56.305l-183.2-7.085,4.823-147.133Z" transform="translate(-6693.107 -4052.034)" fill="#ff725e"/>
    <g id="Group_4" data-name="Group 4" transform="translate(-6551.282 -3694.957)" opacity="0.6">
      <path id="Path_82" data-name="Path 82" d="M123.654,282.124a7.521,7.521,0,0,0-5.5,8.341,7.228,7.228,0,0,0,8.2,5.545,7.921,7.921,0,0,0,5.787-8.875,7.47,7.47,0,0,0-9.16-4.816" transform="translate(-118.081 -282.025)" fill="#fff" opacity="0.6"/>
    </g>
    <g id="Group_5" data-name="Group 5" transform="translate(-6578.927 -3650.363)" opacity="0.6">
      <path id="Path_83" data-name="Path 83" d="M114.1,303.3l1.062-14.85L290.4,300.65s8.056,3.858,6.9,9.638Z" transform="translate(-114.097 -288.451)" fill="#fff" opacity="0.6"/>
    </g>
    <path id="Path_84" data-name="Path 84" d="M142,284.17c0,.916-4.531,1.152-9.014,3.851S126,294.384,125.172,294s.729-5.5,6.224-8.681S142.243,283.351,142,284.17Z" transform="translate(-6628.462 -3969.722)" fill="#263238"/>
    <path id="Path_85" data-name="Path 85" d="M140.959,285.029c0,.916-3.761,2.269-6.939,5.933s-4.191,7.612-5.107,7.564-1.256-5.156,2.79-9.639S140.959,284.064,140.959,285.029Z" transform="translate(-6608.524 -3961.761)" fill="#263238"/>
    <path id="Path_86" data-name="Path 86" d="M132.4,300.987c-.826,0-1.881-4.392.576-9.16s6.745-6.606,7.085-5.836-2.311,3.275-4.289,7.23S133.271,300.939,132.4,300.987Z" transform="translate(-6589.935 -3954.431)" fill="#263238"/>
    <path id="Path_87" data-name="Path 87" d="M143.849,283.322c-.389.77-4.434-.625-9.639-.479s-9.063,1.589-9.646.819,3.47-3.81,9.646-3.907S144.425,282.649,143.849,283.322Z" transform="translate(-6631.178 -3990.476)" fill="#263238"/>
    <g id="Group_6" data-name="Group 6" transform="translate(-6574.923 -3767.123)" opacity="0.3">
      <path id="Path_88" data-name="Path 88" d="M205.786,278.516l-1.2,16.779-89.912-4.289.576-19.381Z" transform="translate(-114.674 -271.625)" opacity="0.3"/>
    </g>
    <path id="Path_89" data-name="Path 89" d="M150.99,290.936a16.589,16.589,0,0,1-9.16-.388,40.2,40.2,0,0,1-9.646-3.324,43.887,43.887,0,0,1-5.156-2.991,12.061,12.061,0,0,1-2.7-2.262,3.96,3.96,0,0,1,0-4.823,4.771,4.771,0,0,1,1.77-1.423,4.873,4.873,0,0,1,2.234-.458,13.631,13.631,0,0,1,3.421.583,32.323,32.323,0,0,1,5.593,2.214,31.352,31.352,0,0,1,8.244,5.836c4.094,4.094,5.4,7.522,5.107,7.661s-2.359-2.6-6.558-6.023a38.754,38.754,0,0,0-8-4.823,53.166,53.166,0,0,0-5.2-1.832c-1.929-.576-3.567-.625-4.1,0s0,.486,0,1.061a8.978,8.978,0,0,0,1.978,1.638,46.88,46.88,0,0,0,4.823,2.942,49.01,49.01,0,0,0,8.723,3.761A63.59,63.59,0,0,1,150.99,290.936Z" transform="translate(-6637.112 -4017.132)" fill="#263238"/>
    <path id="Path_90" data-name="Path 90" d="M129.114,302.382a15.209,15.209,0,0,1-2.075-8.966,32.344,32.344,0,0,1,1.645-9.986,34.13,34.13,0,0,1,2.554-5.447,7.694,7.694,0,0,1,6.023-4.434,4.328,4.328,0,0,1,3.761,2.748,12.019,12.019,0,0,1,.77,3.379,19.987,19.987,0,0,1,0,6.169,21.144,21.144,0,0,1-4.288,9.305c-3.761,4.816-7.522,5.545-7.619,5.253s2.894-2.075,5.836-6.558a20.793,20.793,0,0,0,3.227-8.487,19.382,19.382,0,0,0,0-5.3c-.236-1.929-.916-3.567-1.638-3.373a6.774,6.774,0,0,0-3.324,2.894,35.771,35.771,0,0,0-2.463,4.816,34.531,34.531,0,0,0-2.116,9.063C128.774,298.863,129.6,302.382,129.114,302.382Z" transform="translate(-6616.443 -4027.321)" fill="#263238"/>
    <path id="Path_91" data-name="Path 91" d="M284.277,134.693s-28.926,1.3-48.21,100.231S69.794,1135.418,69.794,1135.418l106.591.964,200.837-762.09L363.871,1160.1l108.273,8.292s81.238-869.156,81.96-919.73c.964-63.057-35.245-126.836-35.245-126.836Z" transform="translate(-6956.149 -4928.432)" fill="#263238"/>
    <path id="Path_92" data-name="Path 92" d="M166.243,122.467c.673,0-10.416,56.645-24.732,126.211S115.045,374.55,114.365,374.4s10.367-56.645,24.683-126.211S165.709,122.321,166.243,122.467Z" transform="translate(-6691.606 -4924.637)" fill="#455a64"/>
    <path id="Path_93" data-name="Path 93" d="M131.264,124.795c0-.284,2.894-1.152,6.225,1.783a8.783,8.783,0,0,1,2.887,6.8,8.518,8.518,0,0,1-5.447,7.328,8.636,8.636,0,0,1-9.063-1.207,9.016,9.016,0,0,1-2.845-6.842c0-4.441,2.991-5.982,3.039-5.69a13.763,13.763,0,0,0-1.256,5.642,7.358,7.358,0,0,0,2.561,5.107,6.9,6.9,0,0,0,9.3-1.374,6.891,6.891,0,0,0,1.4-3.109,7.3,7.3,0,0,0-1.832-5.4C133.873,125.086,131.215,125.183,131.264,124.795Z" transform="translate(-6640.049 -4912.843)" fill="#455a64"/>
    <path id="Path_94" data-name="Path 94" d="M132.868,130.537c0-.285,2.984,0,4.816,4a8.2,8.2,0,0,1-15.28,5.933,8.294,8.294,0,0,1-.368-3.615,8.393,8.393,0,0,1,1.187-3.428c2.269-3.615,5.35-3.518,5.253-3.227a9.3,9.3,0,0,0-3.713,4.046,7.129,7.129,0,0,0,0,5.4,6.419,6.419,0,0,0,8.306,2.866,6.481,6.481,0,0,0,2.5-1.992,7.225,7.225,0,0,0,.625-5.406C134.79,131.842,132.625,130.877,132.868,130.537Z" transform="translate(-6646.226 -4879.441)" fill="#455a64"/>
    <path id="Path_95" data-name="Path 95" d="M194.234,124.643a18.358,18.358,0,0,1-1.249,4.823,80.32,80.32,0,0,1-5.642,12.775A93.7,93.7,0,0,1,113.2,191.079a80.544,80.544,0,0,1-13.933,0,19.245,19.245,0,0,1-4.821-.777c0-.479,7.279.34,18.8-1.1a97.795,97.795,0,0,0,72.794-47.971C191.68,131.492,193.8,124.5,194.234,124.643Z" transform="translate(-6809.752 -4911.727)" fill="#455a64"/>
    <path id="Path_96" data-name="Path 96" d="M168.32,206.162a24.851,24.851,0,0,1-3.227-1.929,58.184,58.184,0,0,1-7.716-6.648A82,82,0,0,1,133.8,136.408a52.927,52.927,0,0,1,1.3-10.076c.527-2.366.867-3.615,1.062-3.574s-.583,5.26-.583,13.7a89.367,89.367,0,0,0,23.094,59.921C164.323,202.6,168.563,205.78,168.32,206.162Z" transform="translate(-6576.444 -4922.909)" fill="#455a64"/>
    <path id="Path_97" data-name="Path 97" d="M136.642,318.989l47.339,2.6a238.327,238.327,0,0,0,13.407,38.568c38.131-66.144,67.491-154.8,75.013-190.427q-1.593-5.254-3.907-11.859a50.322,50.322,0,0,1,.576-20.055c1.3-7.906,3.518-18.608,4.15-23.525,2.068-15.042,4.483-17.452,9.639-15.717,7.134,2.314-2.942,42.28,2.894,43.148,3.185.434,6.988-13.257,8.147-24.491s6.169-45.75,9.881-48.208c5.447-3.375,10.173,1.976,8.827,13.161s-3.137,45.075,2.8,45.509,10.749-56.838,10.749-56.838-.916-12.438,5.926-12.149c12.393.531,2.748,60.936,1.693,66.673-.777,3.953,5.683,4.821,6.266.386s3.567-57.32,16.148-56.887c9.639.338-7.474,49.752-2.026,61.226s9.208-38.9,18.465-38.23c3.421.289,5.982.964-.34,29.456a649.651,649.651,0,0,1-22.122,66.817c-14.468,79.063-79.017,331.967-179.871,285.689-56.4-25.89-82.775-154.272-82.775-154.272Z" transform="translate(-6850.891 -5303.343)" fill="#ffbe9d"/>
    <path id="Path_98" data-name="Path 98" d="M196.85,189.727a6.565,6.565,0,0,1,.479-1.736c.437-1.253.965-2.892,1.686-4.821,1.589-4.58,3.761-10.944,6.606-19.284s6.266-18.464,9.639-30.42c1.735-5.93,3.185-12.389,4.483-19.284.68-3.471,1.3-7.039,1.742-10.7a41.929,41.929,0,0,0,0-5.447c0-1.881-.437-3.423-1.929-3.471s-2.56.867-3.615,2.459a29.637,29.637,0,0,0-2.366,5.351c-1.346,3.809-2.408,7.858-3.47,11.956s-2.026,8.388-3.275,12.727a19.816,19.816,0,0,1-2.894,6.653,2.674,2.674,0,0,1-1.3.82,2.174,2.174,0,0,1-1.832-.434,6.1,6.1,0,0,1-1.346-1.783,13.544,13.544,0,0,1-1.013-3.712,118.9,118.9,0,0,1,2.894-28.926c.819-4.821,1.686-9.642,2.311-14.463a72.82,72.82,0,0,0,.625-7.424c.049-2.6-.333-5.351-1.346-5.785s-3.47.916-4.823,2.941a29.287,29.287,0,0,0-3.13,6.846,99.827,99.827,0,0,0-3.713,15.427c-.916,5.3-1.645,10.7-2.269,16.2-.243,2.748-.527,5.5-.77,8.292l-.389,4.194a6.079,6.079,0,0,1-1.929,4.821,4.813,4.813,0,0,1-5.683,0,3.927,3.927,0,0,1-1.735-2.748,5.224,5.224,0,0,1,0-1.543v-1.012l1.3-8.436c.819-5.689,1.5-11.378,2.026-17.163s.965-11.618,1.062-17.452A57.9,57.9,0,0,0,181.133,65.2a5.721,5.721,0,0,0-2.415-3.471,2.891,2.891,0,0,0-3.227,1.06,15.77,15.77,0,0,0-1.832,9.353c-1.062,11.329-2.269,22.465-3.907,33.409-.819,5.447-1.735,10.895-3.081,16.246-.389,1.3-.777,2.652-1.256,4a8.114,8.114,0,0,1-2.748,4.146,2.891,2.891,0,0,1-3.518-.772,5.8,5.8,0,0,1-1.3-2.169,19.916,19.916,0,0,1-1.11-4.146,161.654,161.654,0,0,1-.284-31.576,83.81,83.81,0,0,0,.819-14.8,8.214,8.214,0,0,0-2.7-5.5,3.234,3.234,0,0,0-2.512-.386,7.94,7.94,0,0,0-1.3.578c-.437.386-.389,0-.673.82a65.223,65.223,0,0,0-3.81,13.45c-.965,4.821-1.783,9.208-2.505,13.74s-1.4,8.967-1.978,13.4-.867,8.774-1.735,13.112a71.457,71.457,0,0,1-3.379,12.438,23.817,23.817,0,0,1-1.395,2.989c-.673.915-1.062,2.073-2.894,2.651a2.41,2.41,0,0,1-2.456-1.06,6.994,6.994,0,0,1-.77-1.783,18.887,18.887,0,0,1-.389-3.182c0-8.244,1.11-15.764,1.541-23.044a57.264,57.264,0,0,0,0-10.461c0-1.543-.722-3.375-1.589-3.712a4.443,4.443,0,0,0-3.907,0,13.579,13.579,0,0,0-3.567,7.907c-.722,2.941-1.013,5.93-1.54,8.774-2.026,11.378-4.15,21.212-5.156,29.214a39.336,39.336,0,0,0,0,10.606c.673,2.893,1.686,5.5,2.214,7.521s1.062,3.471,1.4,4.821a8.909,8.909,0,0,1,.382,1.59,6.216,6.216,0,0,1-.673-1.495l-1.638-4.821c-.68-2.073-1.686-4.387-2.512-7.569a38.726,38.726,0,0,1,0-10.9c.916-8.147,2.845-17.885,4.823-29.311.534-2.844.819-5.834,1.45-8.919a44.6,44.6,0,0,1,1.3-4.821,8.209,8.209,0,0,1,2.991-4.387,6.077,6.077,0,0,1,5.69,0,6.492,6.492,0,0,1,3.032,5.592,58.321,58.321,0,0,1,0,10.9c-.333,7.327-1.492,14.993-1.3,22.8a16.636,16.636,0,0,0,.333,2.748c0,.916.68,1.3.583,1.109s.916-.772,1.3-1.543a22.1,22.1,0,0,0,1.256-2.652,65.119,65.119,0,0,0,3.136-12.052c.819-4.194,1.1-8.533,1.686-13.017s1.152-8.918,1.881-13.5,1.54-9.16,2.456-13.836a62.92,62.92,0,0,1,4.046-14.221,4.842,4.842,0,0,1,1.693-1.881,9.343,9.343,0,0,1,2.019-.82,5.881,5.881,0,0,1,4.823.723,10.438,10.438,0,0,1,3.907,7.328,29.013,29.013,0,0,1,0,7.907c-.243,2.459-.486,4.821-.625,7.52a153.332,153.332,0,0,0,.284,30.854,19.8,19.8,0,0,0,.965,3.567,3.359,3.359,0,0,0,.722,1.253h.243v.049a9.624,9.624,0,0,0,1.4-2.652,32.865,32.865,0,0,0,1.152-3.76c1.3-5.11,2.172-10.509,2.991-15.909,1.638-10.847,2.845-21.984,3.858-33.265v.242a18.59,18.59,0,0,1,2.456-11.425,6.033,6.033,0,0,1,6.7-1.977,8.632,8.632,0,0,1,4.143,5.3,60.319,60.319,0,0,1,1.881,18.175c0,5.977-.527,11.859-1.062,17.692s-1.249,11.57-2.068,17.259c-.437,2.893-.867,5.689-1.3,8.533-.382,1.784-.291,1.832,0,2.362a2.017,2.017,0,0,0,1.131.347,2.039,2.039,0,0,0,1.138-.347c.576-.434.673-1.253.819-2.844l.333-4.194.867-8.34c.583-5.5,1.353-10.991,2.269-16.343a109.3,109.3,0,0,1,3.858-15.86,35.021,35.021,0,0,1,3.518-7.473,10.737,10.737,0,0,1,3.088-3.182,5.288,5.288,0,0,1,4.816-.723,5.613,5.613,0,0,1,2.651,4.243,23.125,23.125,0,0,1,.243,4.1,69.416,69.416,0,0,1-.625,7.762c-.68,4.821-1.589,9.931-2.463,14.8a121.433,121.433,0,0,0-2.984,27.913,12.316,12.316,0,0,0,.77,2.941,5.38,5.38,0,0,0,.624.964v-.337A19.374,19.374,0,0,0,205,125.946c1.249-4.194,2.262-8.436,3.372-12.582a122.352,122.352,0,0,1,3.615-12.2,30.081,30.081,0,0,1,2.6-5.688,9.16,9.16,0,0,1,2.221-2.555,4,4,0,0,1,1.686-.868,6.1,6.1,0,0,1,1.881,0,3.7,3.7,0,0,1,1.818.7,3.656,3.656,0,0,1,1.214,1.522,8.928,8.928,0,0,1,.631,3.182,38.131,38.131,0,0,1-.34,5.833c-.43,3.76-1.159,7.328-1.832,10.847a180.7,180.7,0,0,1-4.823,19.284c-3.615,11.956-7.231,22.079-10.166,30.323s-5.447,14.463-7.141,18.9c-.819,2.024-1.492,3.615-1.971,4.821A11.023,11.023,0,0,1,196.85,189.727Z" transform="translate(-6697.481 -5304.486)" fill="#eb996e"/>
    <path id="Path_99" data-name="Path 99" d="M87.454,133.828c9.16,32.352,27.094,82.245,46.329,134.983a9.107,9.107,0,0,0,16.825.819l47.15-99.738s-11.38-81.959-10.416-79.018S90.058,101.48,90.058,101.48Z" transform="translate(-6851.262 -5112.734)" fill="#ff725e"/>
    <path id="Path_100" data-name="Path 100" d="M182.893,94.686c0,.386-5.878,2.121-15.183,5.689a214.4,214.4,0,0,0-35,17.066,219.685,219.685,0,0,0-31.336,23.138c-7.472,6.606-11.763,11.138-12.052,10.846s.82-1.346,2.651-3.518a116.458,116.458,0,0,1,8.2-8.625,180.728,180.728,0,0,1,31.24-24.106,184.036,184.036,0,0,1,35.671-16.584,112.236,112.236,0,0,1,11.478-3.278A13.783,13.783,0,0,1,182.893,94.686Z" transform="translate(-6840.449 -5089.646)" fill="#fafafa"/>
    <path id="Path_101" data-name="Path 101" d="M134.018,167.341a51.03,51.03,0,0,1-7.911-10.317,176.81,176.81,0,0,1-14.461-27.672,173.843,173.843,0,0,1-9.306-29.889,49.685,49.685,0,0,1-1.686-12.823,90.068,90.068,0,0,1,3.428,12.389,240.979,240.979,0,0,0,9.639,29.359,246.96,246.96,0,0,0,13.788,27.72A101.482,101.482,0,0,1,134.018,167.341Z" transform="translate(-6772.866 -5137.425)" fill="#263238"/>
    <path id="Path_102" data-name="Path 102" d="M171.791,42.938a106.052,106.052,0,0,0-9.208,90.681c4.823,13.257,12.539,26.323,11.137,40.4s-12.387,28.009-8.528,41.894c2.311,8.243,9.347,14.462,12.1,22.465,3.137,9.641,0,19.814-1.686,29.7-3.858,25.262,4.247,50.668,6.218,76.122s-4.816,55.3-27.57,66.384c-6.9,3.375-15.912,4.339-21.65-.82-7.328-6.508-5.3-18.271-3.275-27.913,19.957-96.418-41.7-190.522-27.625-288.1,2.269-15.62,10.992-42.135,22.226-53.03s42.42-9.641,53.03,1.928" transform="translate(-6779.21 -5454.712)" fill="#263238"/>
    <path id="Path_103" data-name="Path 103" d="M96.305,328.727a101.8,101.8,0,0,0,7.279-10.317,93.479,93.479,0,0,0,12.583-31.576,96.027,96.027,0,0,0,1.494-23.43,248.269,248.269,0,0,1-1.012-27.431,59.31,59.31,0,0,1,2.748-14.752,82.157,82.157,0,0,1,6.656-14.173c5.4-9.111,12.192-17.6,18.458-26.659a73.118,73.118,0,0,0,13.115-28.926,90.206,90.206,0,0,0-1.686-29.552,112.27,112.27,0,0,1-2.123-27.383A92.378,92.378,0,0,1,158.639,71,89.491,89.491,0,0,1,175.7,40.968a63.553,63.553,0,0,1,6.558-6.7,13.165,13.165,0,0,1,2.505-2.073,105.581,105.581,0,0,0-8.334,9.642,92.549,92.549,0,0,0-20.346,53.03,109.8,109.8,0,0,0,2.359,26.9,91.415,91.415,0,0,1,1.832,30.371,75.8,75.8,0,0,1-13.5,29.745c-6.315,9.208-13.115,17.644-18.417,26.515a74.968,74.968,0,0,0-6.459,13.692,55.857,55.857,0,0,0-2.748,14.173,261.639,261.639,0,0,0,.771,27.142,96.4,96.4,0,0,1-1.832,23.863,90.339,90.339,0,0,1-13.5,31.769,69.941,69.941,0,0,1-5.785,7.424A15.377,15.377,0,0,1,96.305,328.727Z" transform="translate(-6798.694 -5460.793)" fill="#455a64"/>
    <path id="Path_104" data-name="Path 104" d="M89.719,336.117a17.751,17.751,0,0,1,1.495-3.23c1.205-2.266,2.748-5.254,4.821-9.015,4.05-7.858,10.076-19.284,16.005-33.746a147.084,147.084,0,0,0,11.86-53.368,103.734,103.734,0,0,0-1.205-15.813c-.82-5.4-2.073-10.847-2.893-16.536a46.869,46.869,0,0,1,.386-17.741,31.728,31.728,0,0,1,9.642-15.475c9.063-8.243,20.007-13.643,25.7-23.333a78.935,78.935,0,0,0,8.533-30.9,120.7,120.7,0,0,1,6.655-28.925,104.556,104.556,0,0,1,39-49.27,80.955,80.955,0,0,1,8.82-5.158,14.518,14.518,0,0,1,3.282-1.446,119.358,119.358,0,0,0-11.526,7.424A105.254,105.254,0,0,0,184.4,66.05a102.234,102.234,0,0,0-11.762,22.707,122.488,122.488,0,0,0-6.273,28.926c-1.443,10.268-2.6,21.742-8.771,31.914s-17.452,15.957-26.081,24.1a29.5,29.5,0,0,0-9.111,14.463,44.632,44.632,0,0,0-.337,16.776c.771,5.544,1.976,11.04,2.8,16.488a97.743,97.743,0,0,1,1.157,16.2,146.358,146.358,0,0,1-12.486,54.235,323.414,323.414,0,0,1-16.777,33.746l-5.11,7.569A16.625,16.625,0,0,1,89.719,336.117Z" transform="translate(-6837.81 -5461)" fill="#455a64"/>
    <path id="Path_105" data-name="Path 105" d="M389.179,969.386a11.361,11.361,0,0,1,.867-2.026c.673-1.443,1.589-3.372,2.7-5.829a141.793,141.793,0,0,0,8.05-23.337c5.308-20.727,7.189-52.405-.673-90.009a485.6,485.6,0,0,0-16.73-60.5c-7.037-21.456-15.28-44.21-21.984-68.844a267.09,267.09,0,0,1-10.846-79.163c1.013-28.007,9.306-55.917,18.417-83.785s18.514-55.008,21.311-82.487a125.851,125.851,0,0,0-15.141-76.165c-12.047-22.226-27.237-41.268-38.562-60.941A212.032,212.032,0,0,1,313.4,277.68a218.46,218.46,0,0,1-1.492-90.724,167.093,167.093,0,0,1,9.638-32.059,13.066,13.066,0,0,1-.576,2.116l-1.929,6.127a247.414,247.414,0,0,0-5.884,24.1,221.869,221.869,0,0,0,2.366,90.106A209.921,209.921,0,0,0,338.8,335.193c11.332,19.284,26.564,38.568,38.909,60.892a128.442,128.442,0,0,1,15.572,77.761c-2.845,27.861-12.3,55.292-21.408,83.112s-17.307,55.438-18.32,82.966a263.442,263.442,0,0,0,10.6,78.386c6.606,24.5,14.7,47.25,21.7,68.8a473.824,473.824,0,0,1,16.391,60.844c7.661,37.888,5.5,69.9,0,90.682a134.022,134.022,0,0,1-8.632,23.281l-2.984,5.739A9.9,9.9,0,0,1,389.179,969.386Z" transform="translate(-5542.227 -4732.026)" fill="#263238"/>
    <path id="Path_106" data-name="Path 106" d="M319.7,284.684s-23.045-73.806,18.32-117a2.574,2.574,0,0,1,1.187-.729,2.548,2.548,0,0,1,1.388.007,2.519,2.519,0,0,1,1.187.729,2.6,2.6,0,0,1,.624,1.249C344.618,181.129,347.366,218.254,319.7,284.684Z" transform="translate(-5509.914 -4660.977)" fill="#e8505b"/>
    <path id="Path_107" data-name="Path 107" d="M328.788,170.521a70.462,70.462,0,0,1-1.54,13.594c-1.541,9.4-3.324,20.395-5.253,32.545s-3.712,23.184-5.2,32.538a80.865,80.865,0,0,1-2.415,13.5A57.212,57.212,0,0,1,314.667,249c.77-8.438,2.262-20.006,4.337-32.732s4.337-24.107,6.121-32.448A60.233,60.233,0,0,1,328.788,170.521Z" transform="translate(-5505.172 -4639.231)" fill="#263238"/>
    <path id="Path_108" data-name="Path 108" d="M318.125,290.212s14.128-76.026,70.912-94.832a2.649,2.649,0,0,1,1.395-.083,2.582,2.582,0,0,1,1.929,1.874,2.644,2.644,0,0,1-.042,1.395C388.558,210.278,373.66,244.364,318.125,290.212Z" transform="translate(-5481.249 -4492.419)" fill="#e8505b"/>
    <path id="Path_109" data-name="Path 109" d="M373.9,198.074a71.86,71.86,0,0,1-7.716,11.332l-19.909,26.272L326.5,262.047A76.908,76.908,0,0,1,318.07,272.8a56.994,56.994,0,0,1,6.745-11.956c4.823-7.085,11.38-16.627,19.284-26.9s15.093-19.284,20.54-25.842A61.838,61.838,0,0,1,373.9,198.074Z" transform="translate(-5481.575 -4475.587)" fill="#263238"/>
    <path id="Path_110" data-name="Path 110" d="M316.412,332.116s-8.584-76.846,40.3-111.313a2.426,2.426,0,0,1,1.3-.52,2.5,2.5,0,0,1,1.381.264,2.527,2.527,0,0,1,1.02.965,2.491,2.491,0,0,1,.34,1.367C360.616,235.264,356.23,272.2,316.412,332.116Z" transform="translate(-5494.865 -4343.757)" fill="#e8505b"/>
    <path id="Path_111" data-name="Path 111" d="M347.462,223.7a64.733,64.733,0,0,1-4.1,13.06L331.987,267.7c-4.247,11.575-8.057,22.032-11.283,30.956a79.441,79.441,0,0,1-4.823,12.775,56.209,56.209,0,0,1,2.991-13.407c2.359-8.1,6.023-19.284,10.506-31.331s8.875-22.9,12.2-30.665A66.6,66.6,0,0,1,347.462,223.7Z" transform="translate(-5494.576 -4323.411)" fill="#263238"/>
    <path id="Path_112" data-name="Path 112" d="M322.253,358.408s-5.787-77.137,44.259-109.821a2.51,2.51,0,0,1,1.325-.451,2.59,2.59,0,0,1,1.36.319,2.555,2.555,0,0,1,.992.985,2.59,2.59,0,0,1,.319,1.36C369.932,263.194,364.242,299.972,322.253,358.408Z" transform="translate(-5457.945 -4178.27)" fill="#e8505b"/>
    <path id="Path_113" data-name="Path 113" d="M356.857,251.506a66.178,66.178,0,0,1-4.58,12.914c-3.567,8.778-7.807,19.284-12.484,30.519s-8.771,21.692-12.338,30.519A74.845,74.845,0,0,1,322,338.039a58.139,58.139,0,0,1,3.525-13.31c2.651-8,6.7-18.993,11.616-30.9S346.781,271.22,350.4,263.6A64.9,64.9,0,0,1,356.857,251.506Z" transform="translate(-5458.228 -4158.24)" fill="#263238"/>
    <path id="Path_114" data-name="Path 114" d="M369.232,258.566s-68.359-35.869-69.858-95.6a2.589,2.589,0,0,1,1.346-2.3,2.573,2.573,0,0,1,1.339-.326,2.628,2.628,0,0,1,1.318.409C313.551,167.787,341.8,192.088,369.232,258.566Z" transform="translate(-5592.616 -4699.7)" fill="#e8505b"/>
    <path id="Path_115" data-name="Path 115" d="M301.424,163.678a66.371,66.371,0,0,1,8.529,10.749c5.593,7.668,12.1,16.73,19.284,26.709l19.284,26.612a75.205,75.205,0,0,1,7.814,11.235,56.931,56.931,0,0,1-9.4-9.979c-5.447-6.46-12.581-15.717-20.1-26.182s-14.128-20.152-18.66-27.237A66.477,66.477,0,0,1,301.424,163.678Z" transform="translate(-5580.44 -4679.874)" fill="#263238"/>
    <path id="Path_116" data-name="Path 116" d="M384.712,277.773s-70.572-31.581-75.541-91.217a2.522,2.522,0,0,1,1.194-2.38,2.485,2.485,0,0,1,1.325-.389,2.521,2.521,0,0,1,1.339.361C323.584,190.56,353.236,213.022,384.712,277.773Z" transform="translate(-5534.485 -4560.441)" fill="#e8505b"/>
    <path id="Path_117" data-name="Path 117" d="M311.4,187.021a65.4,65.4,0,0,1,9.16,10.173l20.922,25.5,20.97,25.4a77.3,77.3,0,0,1,8.487,10.749,58.738,58.738,0,0,1-10.027-9.4c-5.787-6.176-13.5-14.947-21.651-24.926s-15.28-19.284-20.29-26.085A61.436,61.436,0,0,1,311.4,187.021Z" transform="translate(-5521.19 -4541.233)" fill="#263238"/>
    <path id="Path_118" data-name="Path 118" d="M341.3,323.206s-48.207-60.261-25.7-115.7a2.549,2.549,0,0,1,2.151-1.582,2.644,2.644,0,0,1,1.36.264,2.58,2.58,0,0,1,1.02.93C326.836,217.583,342.886,251.135,341.3,323.206Z" transform="translate(-5531.803 -4429)" fill="#e8505b"/>
    <path id="Path_119" data-name="Path 119" d="M311.181,209.676a65.863,65.863,0,0,1,3.567,13.254c2.026,9.257,4.386,20.152,6.988,32.205s5.065,22.9,7.092,32.156a76.5,76.5,0,0,1,2.651,13.448,57.485,57.485,0,0,1-4.823-12.921c-2.366-8.147-5.253-19.277-7.952-32.1s-4.823-24.107-6.176-32.4A63.007,63.007,0,0,1,311.181,209.676Z" transform="translate(-5522.512 -4406.68)" fill="#263238"/>
    <path id="Path_120" data-name="Path 120" d="M384.473,334.269s-70.045-32.733-74-92.417a2.491,2.491,0,0,1,.257-1.381,2.529,2.529,0,0,1,.944-1.041,2.589,2.589,0,0,1,1.353-.382,2.523,2.523,0,0,1,1.353.4C324.747,246.043,354.01,269.039,384.473,334.269Z" transform="translate(-5526.772 -4232.231)" fill="#e8505b"/>
    <path id="Path_121" data-name="Path 121" d="M312.63,242.314a72.068,72.068,0,0,1,8.966,10.367l20.485,25.793,20.54,25.793a75.337,75.337,0,0,1,8.292,10.895,57.14,57.14,0,0,1-9.646-9.646c-5.732-6.266-13.254-15.183-21.255-25.307s-14.947-19.527-19.867-26.418A58.718,58.718,0,0,1,312.63,242.314Z" transform="translate(-5513.885 -4212.834)" fill="#263238"/>
    <path id="Path_122" data-name="Path 122" d="M455.423,208.974v6.509c0,4.823-.486,10.943-.819,18.757-.868,16.488-2.172,39.477-3.664,66.957-4.823,27.965-19.284,58.963-38.569,89.093-14.031,22.178-28.93,42.329-41.462,61.079a431.715,431.715,0,0,0-30.755,51.587,216.18,216.18,0,0,0-14.461,37.7c-1.207,4.58-2.172,8.2-2.7,10.652a22.808,22.808,0,0,1-1.013,3.761,17.244,17.244,0,0,1,.479-3.858c.34-2.5,1.062-6.169,2.172-10.846a196.572,196.572,0,0,1,13.74-38.326,413.5,413.5,0,0,1,30.706-51.919c12.629-18.9,27.237-39.1,41.219-61.135,19.041-29.984,33.218-60.5,38.568-88.024,1.929-27.431,3.518-50.379,4.823-66.867.624-7.814,1.152-14.031,1.541-18.708a37.616,37.616,0,0,1,.479-4.816A6.581,6.581,0,0,1,455.423,208.974Z" transform="translate(-5458.347 -4410.849)" fill="#263238"/>
    <path id="Path_123" data-name="Path 123" d="M348.49,336.287s29.645-71.349-7.619-118.162a2.561,2.561,0,0,0-1.124-.826,2.49,2.49,0,0,0-1.388-.118,2.542,2.542,0,0,0-1.971,1.811C333.057,230.949,326.936,267.637,348.49,336.287Z" transform="translate(-5393.111 -4362.39)" fill="#e8505b"/>
    <path id="Path_124" data-name="Path 124" d="M334.583,220.868a62.337,62.337,0,0,1,2.366,13.5c1.062,8.389,2.214,20.006,3.13,32.878s1.353,24.537,1.353,33.024a55.886,55.886,0,0,1-.819,13.691,72.532,72.532,0,0,1-1.207-13.643c-.624-9.639-1.395-20.582-2.221-32.878s-1.589-23.427-2.262-32.878A69.967,69.967,0,0,1,334.583,220.868Z" transform="translate(-5384.61 -4340.207)" fill="#263238"/>
    <g id="Group_7" data-name="Group 7" transform="translate(-5060.146 -4145.257)" opacity="0.3">
      <path id="Path_125" data-name="Path 125" d="M348.49,336.287s29.645-71.349-7.619-118.162a2.561,2.561,0,0,0-1.124-.826,2.49,2.49,0,0,0-1.388-.118,2.542,2.542,0,0,0-1.971,1.811C333.057,230.949,326.936,267.637,348.49,336.287Z" transform="translate(-332.965 -217.133)" opacity="0.3"/>
    </g>
    <path id="Path_126" data-name="Path 126" d="M341.71,360.078s23.767-73.57-17.209-117.149a2.589,2.589,0,0,0-1.18-.729,2.547,2.547,0,0,0-1.388-.014,2.606,2.606,0,0,0-1.825,1.95C317.8,256.28,314.661,293.405,341.71,360.078Z" transform="translate(-5478.173 -4214.122)" fill="#e8505b"/>
    <path id="Path_127" data-name="Path 127" d="M320.1,245.746a58.839,58.839,0,0,1,3.47,13.31c1.735,8.244,3.81,19.763,5.787,32.49s3.324,24.343,4.052,32.781a57.972,57.972,0,0,1,.236,13.74,82.287,82.287,0,0,1-2.311-13.5c-1.4-9.4-3.04-20.395-4.823-32.587s-3.518-23.191-4.823-32.594A70.423,70.423,0,0,1,320.1,245.746Z" transform="translate(-5469.53 -4192.45)" fill="#263238"/>
    <g id="Group_8" data-name="Group 8" transform="translate(-5159.53 -3972.025)" opacity="0.3">
      <path id="Path_128" data-name="Path 128" d="M341.71,360.078s23.767-73.57-17.209-117.149a2.589,2.589,0,0,0-1.18-.729,2.547,2.547,0,0,0-1.388-.014,2.606,2.606,0,0,0-1.825,1.95C317.8,256.28,314.661,293.405,341.71,360.078Z" transform="translate(-318.643 -242.097)" opacity="0.3"/>
    </g>
    <path id="Path_129" data-name="Path 129" d="M340.648,312.57s63.3-44.349,56.936-103.839a2.542,2.542,0,0,0-.514-1.284,2.5,2.5,0,0,0-1.11-.833,2.573,2.573,0,0,0-1.374-.132,2.527,2.527,0,0,0-1.242.611C384.136,215.385,359.453,242.962,340.648,312.57Z" transform="translate(-5347.479 -4425.886)" fill="#e8505b"/>
    <g id="Group_9" data-name="Group 9" transform="translate(-5006.831 -4219.443)" opacity="0.3">
      <path id="Path_130" data-name="Path 130" d="M340.648,312.57s63.3-44.349,56.936-103.839a2.542,2.542,0,0,0-.514-1.284,2.5,2.5,0,0,0-1.11-.833,2.573,2.573,0,0,0-1.374-.132,2.527,2.527,0,0,0-1.242.611C384.136,215.385,359.453,242.962,340.648,312.57Z" transform="translate(-340.648 -206.442)" opacity="0.3"/>
    </g>
    <path id="Path_131" data-name="Path 131" d="M385.567,209.975a59.533,59.533,0,0,1-5.253,12.678c-3.615,7.612-8.868,18.028-14.989,29.409s-12.005,21.449-16.536,28.583a57.289,57.289,0,0,1-8.049,11.089,70.79,70.79,0,0,1,6.266-12.144c4.531-8.341,9.882-18.084,15.759-28.93l15.717-28.923A70.95,70.95,0,0,1,385.567,209.975Z" transform="translate(-5346.938 -4404.903)" fill="#263238"/>
    <path id="Path_132" data-name="Path 132" d="M325.649,309.852s76.36-11.908,96.8-68.123a2.508,2.508,0,0,0,.118-1.374,2.475,2.475,0,0,0-.611-1.235,2.535,2.535,0,0,0-2.547-.763C407.5,241.923,372.989,255.663,325.649,309.852Z" transform="translate(-5436.562 -4236.834)" fill="#e8505b"/>
    <g id="Group_10" data-name="Group 10" transform="translate(-5110.913 -3998.562)" opacity="0.3">
      <path id="Path_133" data-name="Path 133" d="M325.649,309.852s76.36-11.908,96.8-68.123a2.508,2.508,0,0,0,.118-1.374,2.475,2.475,0,0,0-.611-1.235,2.535,2.535,0,0,0-2.547-.763C407.5,241.923,372.989,255.663,325.649,309.852Z" transform="translate(-325.649 -238.273)" opacity="0.3"/>
    </g>
    <path id="Path_134" data-name="Path 134" d="M402.029,240.918a61.95,61.95,0,0,1-10.319,9.014c-6.606,5.3-15.9,12.338-26.369,19.86s-20.249,13.934-27.479,18.368a55.737,55.737,0,0,1-12.151,6.412,75.029,75.029,0,0,1,11.041-8.147l26.9-18.993,26.855-19.284A63.712,63.712,0,0,1,402.029,240.918Z" transform="translate(-5436.193 -4221.125)" fill="#263238"/>
    <path id="Path_135" data-name="Path 135" d="M334.21,268.846l-22.275,149.93H450.776L432.8,268.846Z" transform="translate(-5518.013 -4055.253)" fill="#455a64"/>
    <path id="Path_136" data-name="Path 136" d="M426.012,276.918c0,.819-25.071,1.45-55.972,1.45s-56.021-.631-56.021-1.45a552.656,552.656,0,0,1,56.021-1.443A551.75,551.75,0,0,1,426.012,276.918Z" transform="translate(-5505.635 -4016.902)" fill="#263238"/>
    <path id="Path_137" data-name="Path 137" d="M429.578,278.494c0,.819-25.89,1.444-57.853,1.444s-57.853-.625-57.853-1.444,25.89-1.443,57.853-1.443S429.578,277.676,429.578,278.494Z" transform="translate(-5506.502 -4006.522)" fill="#263238"/>
    <path id="Path_138" data-name="Path 138" d="M490.38,59.726h-3.81a92.51,92.51,0,0,0-10.992,0,123.521,123.521,0,0,0-41.122,9.641,126.29,126.29,0,0,0-52.162,40.64,113.829,113.829,0,0,0-18.222,37.265,125.349,125.349,0,0,0,12.678,94.683,107,107,0,0,0,16.391,21.791A89.126,89.126,0,0,0,415.317,281.1a54.464,54.464,0,0,0,27.82,6.99A39.971,39.971,0,0,0,470.082,277.2a38.864,38.864,0,0,0,10.749-27.769,51.182,51.182,0,0,0-9.639-29.552c-12.491-17.6-32.732-29.407-54.286-35.77a133.291,133.291,0,0,0-68.456-.965,143.525,143.525,0,0,0-32.975,13.113,118.851,118.851,0,0,0-28.3,22.224,90.8,90.8,0,0,0-6.023,6.846l-5.447,7.328a137.072,137.072,0,0,0-8.875,16.1,130.709,130.709,0,0,0-10.458,35.53,134.648,134.648,0,0,0,9.639,72.315,111.746,111.746,0,0,0,46.521,53.03,77.21,77.21,0,0,0,32.975,9.979,58.232,58.232,0,0,0,32.545-7.814,50.872,50.872,0,0,0,21.984-24.1,43.71,43.71,0,0,0,.819-31.678,63.8,63.8,0,0,0-18.125-25.644A83.128,83.128,0,0,0,356.07,314.9a103.324,103.324,0,0,0-58.72-1.012,114.373,114.373,0,0,0-48.207,26.853,110.116,110.116,0,0,0-27.625,42.758,123.926,123.926,0,0,0,1.3,86.782,131.641,131.641,0,0,0,39.679,53.03,142.817,142.817,0,0,0,36.493,21.255c4.531,1.686,8.05,2.942,10.464,3.615l3.567,1.159s-1.256-.243-3.664-.916A103.82,103.82,0,0,1,298.842,545a136.7,136.7,0,0,1-36.924-20.922A132.166,132.166,0,0,1,221.469,470.8a125.33,125.33,0,0,1-1.589-87.691,110.574,110.574,0,0,1,27.91-43.389,116.617,116.617,0,0,1,48.936-27.479,105.522,105.522,0,0,1,59.969.965,84.5,84.5,0,0,1,27.431,15.86,65.411,65.411,0,0,1,18.8,26.564,46.168,46.168,0,0,1-.479,33.218,53.98,53.98,0,0,1-23,25.113,60.839,60.839,0,0,1-33.746,8.2,78.316,78.316,0,0,1-33.746-10.319,113.933,113.933,0,0,1-47.68-53.946,137.424,137.424,0,0,1-9.93-73.66,134.194,134.194,0,0,1,10.7-36.253,139.848,139.848,0,0,1,9.063-16.439l5.593-7.472a71.756,71.756,0,0,1,6.127-7.039,122.025,122.025,0,0,1,28.923-22.658A145.156,145.156,0,0,1,348.5,181.068a135.664,135.664,0,0,1,69.76,1.012c21.983,6.556,42.565,18.56,55.535,36.783a53.025,53.025,0,0,1,10.124,30.854,41.169,41.169,0,0,1-11.429,29.359A42.165,42.165,0,0,1,444.053,290.5a56.075,56.075,0,0,1-28.93-7.279,89.679,89.679,0,0,1-22.657-17.789,110.957,110.957,0,0,1-16.633-22.224,127.133,127.133,0,0,1-12.726-96.418,115.1,115.1,0,0,1,18.66-37.652A126.834,126.834,0,0,1,434.8,68.4,120.486,120.486,0,0,1,476.2,59.34a84.232,84.232,0,0,1,11.089,0Z" transform="translate(-6107.199 -5300.647)" fill="#263238"/>
    <path id="Path_139" data-name="Path 139" d="M854.479,128.754H178.54V650.087h675.94Z" transform="translate(-6310.28 -4887.296)" fill="#ff725e"/>
    <path id="Path_140" data-name="Path 140" d="M178.54,128.754,303.356,245.23H967.867L854.479,128.754Z" transform="translate(-6310.28 -4887.296)" fill="#ff725e"/>
    <path id="Path_141" data-name="Path 141" d="M178.533,129.787l676.134-1.207h.527l.389.34L967.811,244.188l1.159,1.207,2.075,2.116h-2.991l-664.469-.527H303.3l-124.768-117.2,125.344,115.7h-.527l664.462-.479-.867,2.123-1.207-1.207L853.556,130.655l.867.389Z" transform="translate(-6310.322 -4888.33)" fill="#263238"/>
    <path id="Path_142" data-name="Path 142" d="M219.325,163.4a13.984,13.984,0,1,0,1.013,0" transform="translate(-6148.058 -4681.525)" fill="#263238"/>
    <path id="Path_143" data-name="Path 143" d="M242.282,163.4a13.941,13.941,0,1,0,1.062,0" transform="translate(-6011.3 -4681.525)" fill="#263238"/>
    <path id="Path_144" data-name="Path 144" d="M370.777,241.314a99.8,99.8,0,0,0-13.4-29.943,88.06,88.06,0,0,0-25.55-24.489,77.962,77.962,0,0,0-82.584-2.262,89.021,89.021,0,0,0-26.848,23.038,98.755,98.755,0,0,0-15,29.214,9.7,9.7,0,0,1,.389-2.311,52.555,52.555,0,0,1,1.783-6.412A76.964,76.964,0,0,1,220.993,206.6,87.7,87.7,0,0,1,248.132,182.5a79.331,79.331,0,0,1,84.95,2.311,87.471,87.471,0,0,1,25.738,25.46,76.976,76.976,0,0,1,10.27,22.171,56.61,56.61,0,0,1,1.4,6.509A12.874,12.874,0,0,1,370.777,241.314Z" transform="translate(-6138.879 -4634.671)" fill="#263238"/>
    <path id="Path_145" data-name="Path 145" d="M178.755,129.581,298.318,281.148H853.2V240.318H302.079Z" transform="translate(-6309.003 -4882.385)" opacity="0.5"/>
    <path id="Path_146" data-name="Path 146" d="M257.807,550.312c-.68,0-1.256-90.682-1.256-202.474s.576-202.481,1.256-202.481,1.3,90.634,1.3,202.481S258.529,550.312,257.807,550.312Z" transform="translate(-5846.953 -4788.681)" fill="#263238"/>
    <path id="Path_147" data-name="Path 147" d="M323.03,186.68H263.443v67.353H323.03Z" transform="translate(-5806.02 -4543.259)" fill="#f5f5f5"/>
    <path id="Path_148" data-name="Path 148" d="M297.331,128.754,158.539,245.23H297.331Z" transform="translate(-6429.071 -4887.296)" fill="#e8505b"/>
    <g id="Group_11" data-name="Group 11" transform="translate(-6270.533 -4758.542)" opacity="0.4">
      <path id="Path_149" data-name="Path 149" d="M297.331,128.754,158.539,245.23H297.331Z" transform="translate(-158.539 -128.754)" fill="#ff725e" opacity="0.4"/>
    </g>
    <path id="Path_150" data-name="Path 150" d="M944,203.882H166.827V803.309H944Z" transform="translate(-6379.847 -4441.091)" fill="#e8505b"/>
    <path id="Path_151" data-name="Path 151" d="M944,203.882H166.827V803.309H944Z" transform="translate(-6379.847 -4441.091)" fill="#ff725e" opacity="0.3"/>
    <path id="Path_152" data-name="Path 152" d="M251.832,800.43c-.673,0-1.256-133.588-1.256-298.368s.583-298.409,1.256-298.409,1.256,133.588,1.256,298.409S252.505,800.43,251.832,800.43Z" transform="translate(-5882.439 -4442.452)" fill="#263238"/>
    <path id="Path_153" data-name="Path 153" d="M320.327,270.6H260.74v67.345h59.587Z" transform="translate(-5822.073 -4044.812)" fill="#f5f5f5"/>
    <path id="Path_154" data-name="Path 154" d="M289.261,204.1H200.994V332h88.267Z" transform="translate(-6176.92 -4439.773)" fill="#263238"/>
    <path id="Path_155" data-name="Path 155" d="M289.261,271.576H200.994v127.9h88.267Z" transform="translate(-6176.92 -4039.039)" fill="#263238"/>
    <path id="Path_156" data-name="Path 156" d="M937.251,204.5h-7.862l-22.414.243-82.584.382-272.331.631-272.428-.34-82.536-.389-22.421-.236h0l22.421-.243,82.536-.389,272.428-.382,272.331.382,82.584.389,22.414.243h5.836Z" transform="translate(-6379.888 -4441.709)" fill="#263238"/>
    <path id="Path_157" data-name="Path 157" d="M343.474,295.852l-84.655-20.826h.627a140.523,140.523,0,0,1-73.036,21.935,153.64,153.64,0,0,1-45.268-6.6A141.928,141.928,0,0,1,43.663,172.534,139.811,139.811,0,0,1,80.012,59.58a145.089,145.089,0,0,1,24.539-21.5c4.532-2.844,9.063-5.785,13.788-8.244l7.184-3.471,3.567-1.736,3.76-1.35a141.2,141.2,0,0,1,185.026,85.667,146.835,146.835,0,0,1,7.81,45.7,140.242,140.242,0,0,1-20.3,73.326V227.2c23.526,42.472,35.385,63.925,38.037,68.649-2.748-4.821-15.042-25.888-39.387-67.926v-.771a139.132,139.132,0,0,0,19.283-72.314,143.568,143.568,0,0,0-7.907-44.93A138.824,138.824,0,0,0,133.862,26.027l-3.664,1.3-3.52,1.736-7.039,3.375c-4.821,2.459-9.063,5.3-13.547,8.1a143.2,143.2,0,0,0-24.1,20.923,137.341,137.341,0,0,0-35.723,110.88,139.464,139.464,0,0,0,52.21,92.706,137.248,137.248,0,0,0,43.388,23.14,150.22,150.22,0,0,0,44.5,6.7,139.227,139.227,0,0,0,72.313-21.164h.82Z" transform="translate(-7118.033 -5570.858)" fill="#263238"/>
    <path id="Path_158" data-name="Path 158" d="M61.316,33.243l4.291,70.867a11.472,11.472,0,0,0,22.852.53l7.858-71.012A9.015,9.015,0,0,0,87.2,23.65H69.994a8.967,8.967,0,0,0-8.678,9.594Z" transform="translate(-7006.632 -5511.546)" fill="#ff725e"/>
    <path id="Path_159" data-name="Path 159" d="M94.947,61.938a17.26,17.26,0,1,1,.841-6.688A17.26,17.26,0,0,1,94.947,61.938Z" transform="translate(-7006.515 -5419.044)" fill="#ff725e"/>
  </g>
</svg>
