<svg xmlns="http://www.w3.org/2000/svg" width="14.563" height="14.122" viewBox="0 0 14.563 14.122">
  <path id="genders_1_" data-name="genders (1)" d="M13.38,10.294h.882l0-2.788-2.788,0v.882l1.286,0-1.723,1.723a4.368,4.368,0,0,0-4.717-.516,4.359,4.359,0,1,0-2.4,8.232v1.4H2.7V20.1H3.918v1.217H4.8V20.1H6.023v-.882H4.8v-1.4a4.324,4.324,0,0,0,1.515-.442,4.361,4.361,0,0,0,5.341-6.65l1.723-1.723ZM4.359,16.962a3.477,3.477,0,1,1,1.077-6.783q-.124.107-.241.224a4.364,4.364,0,0,0,0,6.165q.117.117.241.224A3.463,3.463,0,0,1,4.359,16.962Zm3.477-3.477a3.476,3.476,0,0,1-1.52,2.872,3.481,3.481,0,0,1,0-5.744A3.476,3.476,0,0,1,7.836,13.486Zm2.9,2.459a3.486,3.486,0,0,1-3.539.848,4.353,4.353,0,0,0,0-6.613,3.478,3.478,0,0,1,3.539,5.765Z" transform="translate(0.15 -7.35)" fill="#999" stroke="#999" strokeWidth="0.3"/>
</svg>
