<svg width="26" height="27" viewBox="0 0 26 27" fill="none" xmlns="http://www.w3.org/2000/svg">
<path d="M9.32111 24.4637V20.625C9.32342 20.1542 9.51189 19.7035 9.84538 19.3712C10.1789 19.0388 10.6303 18.852 11.1011 18.8513H14.7085C14.9426 18.8501 15.1746 18.8951 15.3913 18.9836C15.608 19.0721 15.8052 19.2025 15.9715 19.3672C16.1378 19.5319 16.2701 19.7277 16.3607 19.9436C16.4513 20.1594 16.4986 20.3909 16.4997 20.625V20.625V24.47C16.5 24.8705 16.6572 25.255 16.9376 25.541C17.218 25.827 17.5993 25.9918 17.9997 25.9999H20.4047C20.9722 26.0032 21.5348 25.8947 22.0603 25.6804C22.5859 25.4662 23.064 25.1506 23.4675 24.7515C23.871 24.3524 24.1919 23.8777 24.4119 23.3545C24.6319 22.8314 24.7466 22.27 24.7496 21.7025V21.7025V10.7977C24.7418 10.3367 24.6295 9.8834 24.4213 9.47203C24.213 9.06066 23.9141 8.70189 23.5471 8.42273L15.3223 1.85659C14.6204 1.3018 13.7519 1 12.8573 1C11.9627 1 11.0942 1.3018 10.3923 1.85659L2.20248 8.42898C1.83353 8.70743 1.5333 9.06674 1.32485 9.47931C1.1164 9.89188 1.00527 10.3467 1 10.8089L1 21.7013C1.00278 22.2686 1.11728 22.8298 1.33695 23.3528C1.55663 23.8759 1.87717 24.3505 2.28029 24.7497C2.6834 25.1489 3.1612 25.4647 3.68639 25.6792C4.21157 25.8938 4.77387 26.0027 5.34118 25.9999H7.74988C7.95261 26.0009 8.15354 25.962 8.34122 25.8853C8.52889 25.8086 8.69962 25.6957 8.84366 25.5531C8.98771 25.4104 9.10225 25.2408 9.18073 25.0539C9.25922 24.867 9.30013 24.6664 9.30111 24.4637V24.4637" stroke="#3D454D" stroke-width="1.5" stroke-miterlimit="10" stroke-linecap="round" stroke-linejoin="round"/>
</svg>
