<svg xmlns="http://www.w3.org/2000/svg" width="25.839" height="24.372" viewBox="0 0 25.839 24.372">
  <g id="Group_13" data-name="Group 13" transform="translate(4074.369 6931.583)">
    <path id="Path_160" data-name="Path 160" d="M1,1l2.721.48,1.26,15.294a2.373,2.373,0,0,0,2.354,2.2H21.607a2.369,2.369,0,0,0,2.335-2.061l1.241-8.743A1.783,1.783,0,0,0,23.7,6.149c-.083-.012-19.541-.019-19.541-.019m10.763,4.927h4.8" transform="translate(-4074.5 -6931.715)" fill="none" stroke="#3d454d" stroke-linecap="round" stroke-linejoin="round" stroke-miterlimit="10" stroke-width="1.5"/>
    <path id="Path_161" data-name="Path 161" d="M6.775,24.124a.612.612,0,0,1,0,1.207.612.612,0,0,1,0-1.207Zm10.59,0a.5.5,0,0,1,.459.294.7.7,0,0,1,0,.616.5.5,0,0,1-.458.3.615.615,0,0,1,0-1.206Z" transform="translate(-4071.425 -6933.543)" fill="#3d454d" stroke="#3d454d" stroke-linecap="round" stroke-linejoin="round" stroke-miterlimit="10" stroke-width="2"/>
  </g>
</svg>

