<svg width="32" height="32" viewBox="0 0 32 32" fill="none" xmlns="http://www.w3.org/2000/svg">
<path d="M32 16C32 7.16344 24.8366 0 16 0C7.16344 0 0 7.16344 0 16C0 24.8366 7.16344 32 16 32C24.8366 32 32 24.8366 32 16Z" fill="#2B8B5B"/>
<path d="M18.9345 12.8944V10.2745C18.9354 9.84544 18.8602 9.42041 18.7132 9.02365C18.5662 8.6269 18.3503 8.26619 18.0779 7.96212C17.8054 7.65806 17.4817 7.4166 17.1253 7.25152C16.7688 7.08643 16.3866 7.00097 16.0004 7.00001C15.6142 6.99904 15.2316 7.0826 14.8745 7.24589C14.5174 7.40919 14.1927 7.64904 13.919 7.95174C13.3662 8.56307 13.0547 9.3933 13.053 10.2598V12.8944" stroke="white" strokeWidth="1.2" strokeMiterlimit="10" strokeLinecap="round" strokeLinejoin="round"/>
<path d="M19.6882 23.0001H12.3118C11.877 23.0004 11.4465 22.9054 11.0447 22.7208C10.643 22.5361 10.2779 22.2654 9.97037 21.9239C9.66283 21.5825 9.41884 21.1771 9.25235 20.7309C9.08585 20.2847 9.0001 19.8065 9 19.3234V14.5571C9.0001 14.0741 9.08585 13.5958 9.25235 13.1496C9.41884 12.7034 9.66283 12.298 9.97037 11.9566C10.2779 11.6152 10.643 11.3444 11.0447 11.1597C11.4465 10.9751 11.877 10.8801 12.3118 10.8804H19.6882C20.123 10.8801 20.5535 10.9751 20.9553 11.1597C21.357 11.3444 21.7221 11.6152 22.0296 11.9566C22.3372 12.298 22.5812 12.7034 22.7477 13.1496C22.9141 13.5958 22.9999 14.0741 23 14.5571V19.3234C22.9999 19.8065 22.9141 20.2847 22.7477 20.7309C22.5812 21.1771 22.3372 21.5825 22.0296 21.9239C21.7221 22.2654 21.357 22.5361 20.9553 22.7208C20.5535 22.9054 20.123 23.0004 19.6882 23.0001Z" stroke="white" strokeWidth="1.2" strokeMiterlimit="10" strokeLinecap="round" strokeLinejoin="round"/>
<path d="M13.8611 17.3731L15.3326 19.0106L18.3644 15.6406" stroke="white" strokeWidth="1.2" strokeMiterlimit="10" strokeLinecap="round" strokeLinejoin="round"/>
</svg>
