<svg xmlns="http://www.w3.org/2000/svg" width="28.573" height="25" viewBox="0 0 28.573 25">
  <g id="store" transform="translate(0 -32)">
    <g id="Group_28" data-name="Group 28" transform="translate(0 32)">
      <path id="Path_51" data-name="Path 51" d="M28.545,39.82l-1.786-7.143A.892.892,0,0,0,25.893,32H2.679a.892.892,0,0,0-.866.677L.027,39.82A.874.874,0,0,0,0,40.036a4.528,4.528,0,0,0,1.786,3.627V56.107A.893.893,0,0,0,2.679,57h8.929a.893.893,0,0,0,.893-.893v-6.25h3.571v6.25a.893.893,0,0,0,.893.893h8.929a.893.893,0,0,0,.893-.893V43.662a4.528,4.528,0,0,0,1.786-3.627.873.873,0,0,0-.028-.215ZM25,55.214H17.857v-6.25a.893.893,0,0,0-.893-.893H11.607a.893.893,0,0,0-.893.893v6.25H3.571V44.429a3.961,3.961,0,0,0,.67.071,4.164,4.164,0,0,0,3.348-1.727,4.109,4.109,0,0,0,6.7,0,4.109,4.109,0,0,0,6.7,0A4.164,4.164,0,0,0,24.33,44.5a3.961,3.961,0,0,0,.67-.071Zm-.67-12.5a2.578,2.578,0,0,1-2.455-2.679.893.893,0,1,0-1.786,0,2.578,2.578,0,0,1-2.455,2.679,2.578,2.578,0,0,1-2.455-2.679.893.893,0,1,0-1.786,0,2.578,2.578,0,0,1-2.455,2.679,2.578,2.578,0,0,1-2.455-2.679.893.893,0,0,0-1.786,0,2.578,2.578,0,0,1-2.455,2.679,2.568,2.568,0,0,1-2.454-2.575l1.589-6.354H25.2l1.589,6.354a2.571,2.571,0,0,1-2.459,2.575Z" transform="translate(0 -32)"/>
    </g>
  </g>
</svg>
