<svg xmlns="http://www.w3.org/2000/svg" width="21.5" height="17.5" viewBox="0 0 21.5 17.5">
  <g id="Group_34" data-name="Group 34" transform="translate(-5799.25 3583.75)">
    <path id="ticket" d="M17.7,17A3.277,3.277,0,0,0,21,13.743V11.151a2.15,2.15,0,1,1,0-4.3V4.257A3.277,3.277,0,0,0,17.7,1H4.3A3.277,3.277,0,0,0,1,4.257V6.935A2.09,2.09,0,0,1,3.177,9,2.159,2.159,0,0,1,1,11.151v2.593A3.277,3.277,0,0,0,4.3,17Z" transform="translate(5799 -3584)" fill="none" stroke="#008944" strokeLinecap="round" strokeLinejoin="round" strokeMiterlimit="10" strokeWidth="1.5"/>
    <line id="Line_1" data-name="Line 1" y2="13" transform="translate(5812.5 -3581.5)" fill="none" stroke="#008944" strokeWidth="1" stroke-dasharray="3 2"/>
  </g>
</svg>
