<svg width="27" height="23" fill="none" xmlns="http://www.w3.org/2000/svg">
    <path d="M21.607 21.735a4.629 4.629 0 0 0 4.628-4.625v-2.683a3.056 3.056 0 0 1-3.054-3.055 3.056 3.056 0 0 1 3.054-3.054v-2.68A4.626 4.626 0 0 0 21.614 1H5.63A4.63 4.63 0 0 0 1 5.627v2.806a2.95 2.95 0 0 1 3.051 2.847v.09a3.051 3.051 0 0 1-3.043 3.054H1v2.683a4.627 4.627 0 0 0 4.626 4.628h15.981z" stroke="#3D454D" strokeWidth="1.5" strokeMiterlimit="10" strokeLinecap="round" strokeLinejoin="round"/>
    <path d="m14.048 7.075.916 1.828a.608.608 0 0 0 .462.332l2.045.294a.62.62 0 0 1 .499.413.599.599 0 0 1-.157.623l-1.485 1.421a.61.61 0 0 0-.179.538l.35 2.008a.598.598 0 0 1-.245.593.62.62 0 0 1-.647.047l-1.82-.947a.618.618 0 0 0-.574 0l-1.827.948a.625.625 0 0 1-.646-.048.61.61 0 0 1-.246-.592l.35-2.008a.598.598 0 0 0-.179-.537l-1.478-1.422a.605.605 0 0 1-.157-.622.606.606 0 0 1 .497-.414l2.046-.293a.623.623 0 0 0 .464-.333l.91-1.829a.611.611 0 0 1 .55-.334.623.623 0 0 1 .551.334v0z" stroke="#3D454D" strokeWidth="1.5" strokeMiterlimit="10" strokeLinecap="round" strokeLinejoin="round"/>
</svg>
