<?xml version="1.0" encoding="utf-8"?>
<!-- Generator: Adobe Illustrator 25.2.1, SVG Export Plug-In . SVG Version: 6.00 Build 0)  -->
<svg version="1.1" id="Layer_1" xmlns="http://www.w3.org/2000/svg" xmlns:xlink="http://www.w3.org/1999/xlink" x="0px" y="0px"
	 viewBox="0 0 40 40" style="enable-background:new 0 0 40 40;" xml:space="preserve">
<style type="text/css">
	.st0{fill:#58595B;}
</style>
<g id="group_34188" transform="translate(0 -0.243)">
	<path id="Path_404" class="st0" d="M17.9,27.7h-7.8c-0.5,0-0.9,0.5-0.9,0.9s0.5,0.9,0.9,0.9h7.8c0.5,0,0.9-0.5,0.9-0.9
		S18.3,27.7,17.9,27.7L17.9,27.7L17.9,27.7z M14,31.1h-3.9c-0.5,0-0.9,0.5-0.9,0.9c0,0.5,0.5,0.9,0.9,0.9H14c0.5,0,0.9-0.5,0.9-0.9
		C14.9,31.6,14.5,31.1,14,31.1L14,31.1z"/>
	<path id="Path_405" class="st0" d="M38.1,21.3l-4.5-7.2c-0.1-0.2-0.5-0.5-0.7-0.5H6.5c-0.3,0-0.6,0.2-0.7,0.5l-4.5,7.2
		c-0.2,0.2-0.2,0.6,0,0.9c0.1,0.3,0.5,0.5,0.7,0.5h3.6v11.7c0,1.5,1.1,2.6,2.6,2.7h0.1h22.8c1.5,0,2.6-1.1,2.7-2.6v-0.1v-9
		c0-0.5-0.5-0.9-0.9-0.9s-0.8,0.3-0.9,0.9v9c0,0.5-0.3,0.9-0.8,0.9h-0.1h-7.4V19.9c0-0.5-0.5-0.9-0.9-0.9c-0.5,0-0.9,0.5-0.9,0.9
		v15.3H8.3c-0.5,0-0.9-0.3-0.9-0.8v-0.1V21.7c0-0.5-0.3-0.9-0.8-0.9H6.4H3.6L7,15.4h14l-3.1,4.9c-0.1,0.2-0.5,0.5-0.7,0.5h-7.1
		c-0.5,0-0.9,0.5-0.9,0.9c0,0.5,0.5,0.9,0.9,0.9h7.1c0.9,0,1.8-0.5,2.3-1.3l3.2-5.2l3.2,5.2c0.5,0.8,1.4,1.3,2.3,1.3h9.2
		c0.3,0,0.7-0.1,0.8-0.5C38.4,21.8,38.3,21.5,38.1,21.3L38.1,21.3z M28.2,20.8c-0.3,0-0.6-0.2-0.7-0.5l-3.2-4.9h8l3.4,5.4H28.2
		L28.2,20.8z M26,3.7c-0.3-0.5-1-0.5-1.5,0l0,0l-5,5.3l-2.4-2.4c-0.3-0.5-1-0.5-1.5-0.1c-0.5,0.3-0.5,1-0.1,1.5l0.1,0.1l3.2,3.2
		c0.3,0.5,1,0.5,1.5,0l0,0l5.7-6C26.4,4.8,26.4,4.1,26,3.7L26,3.7L26,3.7z"/>
</g>
</svg>
